<?xml version="1.0" encoding="UTF-8" standalone="no"?><!DOCTYPE svg PUBLIC "-//W3C//DTD SVG 1.1//EN" "http://www.w3.org/Graphics/SVG/1.1/DTD/svg11.dtd"><svg width="100%" height="100%" viewBox="0 0 1000 1000" version="1.1" xmlns="http://www.w3.org/2000/svg" xmlns:xlink="http://www.w3.org/1999/xlink" xml:space="preserve" xmlns:serif="http://www.serif.com/" style="fill-rule:evenodd;clip-rule:evenodd;stroke-linejoin:round;stroke-miterlimit:2;"><path d="M17.963,178.227l0,654.757l229.017,0l0,-296.472c0,-109.597 74.45,-134.873 158.759,-134.873c28.116,0 54.78,2.815 82.883,5.593l0,-240.216c-103.992,0 -195.296,44.958 -241.692,113.814l0,-102.603l-228.967,0Z" style="fill:#f43f5e;fill-rule:nonzero;"/><path d="M511.378,178.227l0,654.757l229.017,0l0,-296.472c0,-109.597 74.45,-134.873 158.759,-134.873c28.116,0 54.78,2.815 82.883,5.593l0,-240.216c-103.992,0 -195.296,44.958 -241.692,113.814l0,-102.603l-228.967,0Z" style="fill:#f43f5e;fill-rule:nonzero;"/></svg>