<?xml version="1.0" encoding="UTF-8" standalone="no"?>
<!DOCTYPE svg PUBLIC "-//W3C//DTD SVG 1.1//EN" "http://www.w3.org/Graphics/SVG/1.1/DTD/svg11.dtd">
<svg width="100%" height="100%" viewBox="0 0 128 128" version="1.1" xmlns="http://www.w3.org/2000/svg" xmlns:xlink="http://www.w3.org/1999/xlink" xml:space="preserve" xmlns:serif="http://www.serif.com/" style="fill-rule:evenodd;clip-rule:evenodd;stroke-linejoin:round;stroke-miterlimit:2;">
    <g transform="matrix(0.904218,0,0,0.904218,-12.8093,-5.25522)">
        <path d="M121.765,112.663L144.817,112.663L144.817,74.162C144.817,69.302 143.944,64.692 142.325,60.58C140.58,56.468 138.213,52.979 135.222,49.989C132.107,46.998 128.494,44.631 124.382,43.011C120.146,41.391 115.535,40.519 110.551,40.519C105.193,40.519 100.334,41.516 95.973,43.385C91.612,45.379 87.874,48.12 85.008,51.484C81.893,48.12 78.279,45.379 73.918,43.385C69.557,41.516 64.698,40.519 59.34,40.519C54.356,40.519 49.746,41.391 45.634,43.011C41.397,44.631 37.784,46.998 34.793,49.989C31.678,52.979 29.311,56.468 27.691,60.58C25.947,64.692 25.074,69.302 25.074,74.162L25.074,112.663L48.126,112.663L48.126,74.411C48.126,70.424 49.372,67.184 51.864,64.567C54.231,62.075 57.346,60.829 61.084,60.829C64.822,60.829 67.937,62.075 70.305,64.567C72.672,67.184 73.918,70.424 73.918,74.411L73.918,112.663L95.973,112.663L95.973,74.411C95.973,70.424 97.219,67.184 99.711,64.567C102.078,62.075 105.193,60.829 108.931,60.829C112.669,60.829 115.784,62.075 118.152,64.567C120.519,67.184 121.765,70.424 121.765,74.411L121.765,112.663Z" style="fill-rule:nonzero;"/>
    </g>
</svg>
