<?xml version="1.0" encoding="UTF-8" standalone="no"?><!DOCTYPE svg PUBLIC "-//W3C//DTD SVG 1.1//EN" "http://www.w3.org/Graphics/SVG/1.1/DTD/svg11.dtd"><svg width="100%" height="100%" viewBox="0 0 1169 841" version="1.1" xmlns="http://www.w3.org/2000/svg" xmlns:xlink="http://www.w3.org/1999/xlink" xml:space="preserve" xmlns:serif="http://www.serif.com/" style="fill-rule:evenodd;clip-rule:evenodd;stroke-linejoin:round;stroke-miterlimit:2;"><rect id="Mesa-de-trabajo1" serif:id="Mesa de trabajo1" x="0" y="0" width="1168.52" height="840.051" style="fill:none;"/><g><g><g><path d="M989.813,406.748l0,-8.238c0,-169.091 -137.076,-306.167 -306.167,-306.167l-0.001,-0c-108.931,-0 -204.325,57.058 -258.593,142.747c-49.67,-49.366 -126.485,-65.595 -193.9,-34.705l-0.001,0c-84.853,38.876 -123.003,137.733 -87.606,223.255c-55.858,31.875 -93.592,91.866 -93.592,160.783c-0,102.239 82.882,185.122 185.122,185.122l703.082,-0c102.242,-0 185.124,-82.883 185.124,-185.122c0,-84.294 -56.391,-155.297 -133.468,-177.675Z" style="fill:#f43f5e;fill-rule:nonzero;"/></g></g><g><path d="M440.726,364.769l-0,-55.691l-24.258,-0c-14.692,-0 -28.017,2.05 -39.975,6.492c-12.3,4.441 -22.892,10.25 -31.775,17.766c-8.883,7.858 -15.717,16.742 -20.5,27.333c-5.125,10.592 -7.517,22.55 -7.517,35.192l0,111.041l63.208,0l0,-107.283c0,-10.25 3.417,-18.791 10.25,-25.283c6.834,-6.492 15.717,-9.567 26.309,-9.567l24.258,0Z" style="fill:#fff;fill-rule:nonzero;"/><path d="M586.617,364.769l0,-55.691l-24.258,-0c-14.692,-0 -28.017,2.05 -39.975,6.492c-12.3,4.441 -22.892,10.25 -31.775,17.766c-8.883,7.858 -15.717,16.742 -20.5,27.333c-5.125,10.592 -7.517,22.55 -7.517,35.192l0,111.041l63.209,0l-0,-107.283c-0,-10.25 3.416,-18.791 10.25,-25.283c6.833,-6.492 15.716,-9.567 26.308,-9.567l24.258,0Z" style="fill:#fff;fill-rule:nonzero;"/></g></g></svg>