<?xml version="1.0" encoding="UTF-8" standalone="no"?><!DOCTYPE svg PUBLIC "-//W3C//DTD SVG 1.1//EN" "http://www.w3.org/Graphics/SVG/1.1/DTD/svg11.dtd"><svg width="100%" height="100%" viewBox="0 0 766 567" version="1.1" xmlns="http://www.w3.org/2000/svg" xmlns:xlink="http://www.w3.org/1999/xlink" xml:space="preserve" xmlns:serif="http://www.serif.com/" style="fill-rule:evenodd;clip-rule:evenodd;stroke-linecap:round;stroke-linejoin:round;"><rect id="Mesa-de-trabajo1" serif:id="Mesa de trabajo1" x="0" y="0" width="765.169" height="566.966" style="fill:none;"/><g><g><g><path d="M160.942,489.649c117.16,13.932 102.184,-40.182 102.184,-40.182c-0,0 34.123,12.504 109.808,-17.173c46.529,-18.245 72.58,-44.121 72.58,-44.121c0,0 20.001,7.272 62.059,-16.146c25.115,-13.984 51.9,-31.955 64.079,-44.96c28.11,-30.018 30.988,-76.332 24.535,-111.535c-10.415,-56.816 -33.101,-72.879 -33.101,-72.879c-0,0 30.582,-45.999 -41.498,-90.755c-25.393,-15.769 -105.1,-37.175 -141.844,-16.964c0,0 -45.066,-6.551 -99.225,17.788c-49.06,22.048 -69.17,60.28 -69.17,60.28c-0,-0 -49.93,13.157 -88.91,53.1c-70.431,72.171 -52.467,109.861 -52.467,109.861c-0,-0 -26.36,22.627 -37.519,56.031c-17.527,52.47 5.007,142.972 128.489,157.655Z" style="fill:#f43f5e;fill-rule:nonzero;"/><path d="M160.942,489.649c117.16,13.932 102.184,-40.182 102.184,-40.182c-0,0 34.123,12.504 109.808,-17.173c46.529,-18.245 72.58,-44.121 72.58,-44.121c0,0 20.001,7.272 62.059,-16.146c25.115,-13.984 51.9,-31.955 64.079,-44.96c28.11,-30.018 30.988,-76.332 24.535,-111.535c-10.415,-56.816 -33.101,-72.879 -33.101,-72.879c-0,0 30.582,-45.999 -41.498,-90.755c-25.393,-15.769 -105.1,-37.175 -141.844,-16.964c0,0 -45.066,-6.551 -99.225,17.788c-49.06,22.048 -69.17,60.28 -69.17,60.28c-0,-0 -49.93,13.157 -88.91,53.1c-70.431,72.171 -52.467,109.861 -52.467,109.861c-0,-0 -26.36,22.627 -37.519,56.031c-17.527,52.47 5.007,142.972 128.489,157.655Z" style="fill:#95283c;fill-opacity:0;fill-rule:nonzero;stroke:#fff;stroke-width:2.78px;"/></g><g><g><g><path d="M106.007,303.564c-57.003,46.874 -36,151.225 -36,151.225" style="fill-opacity:0;fill-rule:nonzero;stroke:#fff;stroke-width:4.63px;"/></g></g><g><g><path d="M211.349,113.002c-0,-0 46.211,9.178 95.217,45.252" style="fill-opacity:0;fill-rule:nonzero;stroke:#fff;stroke-width:4.63px;"/></g></g><g><g><path d="M151.209,189.629c29.443,-50.629 96.803,-64.549 96.803,-64.549" style="fill-opacity:0;fill-rule:nonzero;stroke:#fff;stroke-width:4.63px;"/></g></g></g><g><g><g><path d="M110.665,309.601c-0.109,5.439 -4.608,9.762 -10.047,9.653c-5.439,-0.109 -9.761,-4.607 -9.652,-10.047c0.109,-5.439 4.607,-9.761 10.046,-9.652c5.439,0.109 9.761,4.607 9.653,10.046Z" style="fill:#fff;fill-rule:nonzero;"/><path d="M110.665,309.601c-0.109,5.439 -4.608,9.762 -10.047,9.653c-5.439,-0.109 -9.761,-4.607 -9.652,-10.047c0.109,-5.439 4.607,-9.761 10.046,-9.652c5.439,0.109 9.761,4.607 9.653,10.046Z" style="fill-opacity:0;fill-rule:nonzero;stroke:#fff;stroke-width:4.63px;"/></g></g><g><g><path d="M309.392,153.494c-0.109,5.439 -4.607,9.762 -10.046,9.653c-5.44,-0.109 -9.762,-4.607 -9.653,-10.047c0.109,-5.439 4.607,-9.761 10.046,-9.652c5.44,0.109 9.762,4.607 9.653,10.046Z" style="fill:#fff;fill-rule:nonzero;"/><path d="M309.392,153.494c-0.109,5.439 -4.607,9.762 -10.046,9.653c-5.44,-0.109 -9.762,-4.607 -9.653,-10.047c0.109,-5.439 4.607,-9.761 10.046,-9.652c5.44,0.109 9.762,4.607 9.653,10.046Z" style="fill-opacity:0;fill-rule:nonzero;stroke:#fff;stroke-width:4.63px;"/></g></g><g><g><path d="M166.294,183.277c-0.109,5.439 -4.607,9.762 -10.046,9.653c-5.44,-0.109 -9.762,-4.607 -9.653,-10.047c0.109,-5.439 4.607,-9.761 10.046,-9.652c5.44,0.109 9.762,4.607 9.653,10.046Z" style="fill:#fff;fill-rule:nonzero;"/><path d="M166.294,183.277c-0.109,5.439 -4.607,9.762 -10.046,9.653c-5.44,-0.109 -9.762,-4.607 -9.653,-10.047c0.109,-5.439 4.607,-9.761 10.046,-9.652c5.44,0.109 9.762,4.607 9.653,10.046Z" style="fill-opacity:0;fill-rule:nonzero;stroke:#fff;stroke-width:4.63px;"/></g></g></g></g><g><g><path d="M159.837,477.374c-0,-0 13.553,49.63 100.671,61.271c116.945,15.627 151.435,-19.479 151.435,-19.479c-0,-0 34.123,12.503 109.808,-17.174c46.529,-18.244 72.58,-44.121 72.58,-44.121c0,0 20.001,7.273 62.059,-16.145c25.115,-13.984 51.9,-31.957 64.079,-44.962c28.11,-30.018 30.989,-76.332 24.535,-111.535c-10.414,-56.815 -31.799,-88.175 -31.799,-88.175c-0,0 5.618,-47.38 -57.618,-86.938c-25.342,-15.853 -73.351,-35.02 -110.095,-14.808c-0,-0 -53.925,5.704 -100.994,26.888c-49.047,22.075 -84.332,60.504 -84.332,60.504c0,0 -50.37,13.903 -90.026,53.175c-45.062,44.626 -53.428,89.675 -53.428,89.675c-0,0 -36.241,29.589 -49.159,69.172c-17.838,54.659 -7.716,82.652 -7.716,82.652Z" style="fill:#f43f5e;fill-rule:nonzero;"/><path d="M159.837,477.374c-0,-0 13.553,49.63 100.671,61.271c116.945,15.627 151.435,-19.479 151.435,-19.479c-0,-0 34.123,12.503 109.808,-17.174c46.529,-18.244 72.58,-44.121 72.58,-44.121c0,0 20.001,7.273 62.059,-16.145c25.115,-13.984 51.9,-31.957 64.079,-44.962c28.11,-30.018 30.989,-76.332 24.535,-111.535c-10.414,-56.815 -31.799,-88.175 -31.799,-88.175c-0,0 5.618,-47.38 -57.618,-86.938c-25.342,-15.853 -73.351,-35.02 -110.095,-14.808c-0,-0 -53.925,5.704 -100.994,26.888c-49.047,22.075 -84.332,60.504 -84.332,60.504c0,0 -50.37,13.903 -90.026,53.175c-45.062,44.626 -53.428,89.675 -53.428,89.675c-0,0 -36.241,29.589 -49.159,69.172c-17.838,54.659 -7.716,82.652 -7.716,82.652Z" style="fill-opacity:0;fill-rule:nonzero;stroke:#fff;stroke-width:2.78px;"/></g><g><g><g><path d="M507.18,163.771c-0,0 43.21,-37.081 104.492,-34.326" style="fill-opacity:0;fill-rule:nonzero;stroke:#fff;stroke-width:4.63px;"/></g></g><g><g><path d="M545.493,95.307c-0,0 118.879,38.639 124.026,126.119" style="fill-opacity:0;fill-rule:nonzero;stroke:#fff;stroke-width:4.63px;"/></g></g><g><g><path d="M275.416,230.854l60.388,41.497c-0,0 49.578,-43.495 88.512,-49.837" style="fill-opacity:0;fill-rule:nonzero;stroke:#fff;stroke-width:4.63px;"/></g><g><path d="M302.807,336.425c-0,0 13.057,-41.29 32.997,-64.074" style="fill-opacity:0;fill-rule:nonzero;stroke:#fff;stroke-width:4.63px;"/></g></g><g><g><path d="M410.237,520.359c0,-0 12.005,-68.878 -29.568,-122.716" style="fill-opacity:0;fill-rule:nonzero;stroke:#fff;stroke-width:4.63px;"/></g></g><g><g><path d="M197.413,379.274c32.447,44.687 85.178,47.97 104.505,45.411c4.937,-0.654 9.415,2.941 9.82,7.904c4.042,49.472 -3.322,109.969 -3.322,109.969" style="fill-opacity:0;fill-rule:nonzero;stroke:#fff;stroke-width:4.63px;"/></g></g><g><g><path d="M411.258,471.528c0,-0 123.209,-17.087 154.894,-65.528" style="fill-opacity:0;fill-rule:nonzero;stroke:#fff;stroke-width:4.63px;"/></g></g><g><g><path d="M641.557,344.347c17.316,34.349 9.247,100.55 9.247,100.55" style="fill-opacity:0;fill-rule:nonzero;stroke:#fff;stroke-width:4.63px;"/></g></g><g><g><path d="M640.629,285.897c51.405,48.348 30.277,147.407 30.277,147.407" style="fill-opacity:0;fill-rule:nonzero;stroke:#fff;stroke-width:4.63px;"/></g></g><g><g><path d="M192.976,414.143c37.683,34.741 86.981,35.098 106.568,32.044c6.932,-1.081 13.263,4.156 13.398,11.171c0.833,43.104 -4.526,85.2 -4.526,85.2" style="fill-opacity:0;fill-rule:nonzero;stroke:#fff;stroke-width:4.63px;"/></g></g></g><g><g><g><path d="M523.487,159.119c-0.108,5.44 -4.607,9.762 -10.046,9.653c-5.439,-0.109 -9.761,-4.607 -9.653,-10.046c0.109,-5.44 4.608,-9.762 10.047,-9.653c5.439,0.109 9.761,4.607 9.652,10.046Z" style="fill:#fff;fill-rule:nonzero;"/><path d="M523.487,159.119c-0.108,5.44 -4.607,9.762 -10.046,9.653c-5.439,-0.109 -9.761,-4.607 -9.653,-10.046c0.109,-5.44 4.608,-9.762 10.047,-9.653c5.439,0.109 9.761,4.607 9.652,10.046Z" style="fill-opacity:0;fill-rule:nonzero;stroke:#fff;stroke-width:4.63px;"/></g></g><g><g><path d="M679.492,213.257c-0.109,5.439 -4.607,9.761 -10.046,9.652c-5.44,-0.108 -9.762,-4.607 -9.653,-10.046c0.109,-5.439 4.607,-9.761 10.046,-9.653c5.44,0.109 9.762,4.608 9.653,10.047Z" style="fill:#fff;fill-rule:nonzero;"/><path d="M679.492,213.257c-0.109,5.439 -4.607,9.761 -10.046,9.652c-5.44,-0.108 -9.762,-4.607 -9.653,-10.046c0.109,-5.439 4.607,-9.761 10.046,-9.653c5.44,0.109 9.762,4.608 9.653,10.047Z" style="fill-opacity:0;fill-rule:nonzero;stroke:#fff;stroke-width:4.63px;"/></g></g><g><g><path d="M315.741,328.524c-0.109,5.439 -4.607,9.761 -10.046,9.652c-5.439,-0.108 -9.762,-4.607 -9.653,-10.046c0.109,-5.439 4.607,-9.761 10.047,-9.653c5.439,0.109 9.761,4.608 9.652,10.047Z" style="fill:#fff;fill-rule:nonzero;"/><path d="M315.741,328.524c-0.109,5.439 -4.607,9.761 -10.046,9.652c-5.439,-0.108 -9.762,-4.607 -9.653,-10.046c0.109,-5.439 4.607,-9.761 10.047,-9.653c5.439,0.109 9.761,4.608 9.652,10.047Z" style="fill-opacity:0;fill-rule:nonzero;stroke:#fff;stroke-width:4.63px;"/></g></g><g><g><path d="M427.395,225.59c-0.109,5.439 -4.607,9.761 -10.046,9.652c-5.439,-0.109 -9.761,-4.607 -9.653,-10.046c0.109,-5.439 4.608,-9.762 10.047,-9.653c5.439,0.109 9.761,4.607 9.652,10.047Z" style="fill:#fff;fill-rule:nonzero;"/><path d="M427.395,225.59c-0.109,5.439 -4.607,9.761 -10.046,9.652c-5.439,-0.109 -9.761,-4.607 -9.653,-10.046c0.109,-5.439 4.608,-9.762 10.047,-9.653c5.439,0.109 9.761,4.607 9.652,10.047Z" style="fill-opacity:0;fill-rule:nonzero;stroke:#fff;stroke-width:4.63px;"/></g></g><g><g><path d="M395.124,405.046c-0.109,5.44 -4.608,9.762 -10.047,9.653c-5.439,-0.109 -9.761,-4.607 -9.652,-10.046c0.109,-5.44 4.607,-9.762 10.046,-9.653c5.439,0.109 9.762,4.607 9.653,10.046Z" style="fill:#fff;fill-rule:nonzero;"/><path d="M395.124,405.046c-0.109,5.44 -4.608,9.762 -10.047,9.653c-5.439,-0.109 -9.761,-4.607 -9.652,-10.046c0.109,-5.44 4.607,-9.762 10.046,-9.653c5.439,0.109 9.762,4.607 9.653,10.046Z" style="fill-opacity:0;fill-rule:nonzero;stroke:#fff;stroke-width:4.63px;"/></g></g><g><g><path d="M213.772,384.631c-0.109,5.439 -4.608,9.761 -10.047,9.652c-5.439,-0.108 -9.761,-4.607 -9.652,-10.046c0.108,-5.439 4.607,-9.761 10.046,-9.652c5.439,0.108 9.761,4.607 9.653,10.046Z" style="fill:#fff;fill-rule:nonzero;"/><path d="M213.772,384.631c-0.109,5.439 -4.608,9.761 -10.047,9.652c-5.439,-0.108 -9.761,-4.607 -9.652,-10.046c0.108,-5.439 4.607,-9.761 10.046,-9.652c5.439,0.108 9.761,4.607 9.653,10.046Z" style="fill-opacity:0;fill-rule:nonzero;stroke:#fff;stroke-width:4.63px;"/></g></g><g><g><path d="M569.884,411.465c-0.109,5.44 -4.608,9.762 -10.047,9.653c-5.439,-0.109 -9.761,-4.607 -9.652,-10.046c0.109,-5.44 4.607,-9.762 10.046,-9.653c5.439,0.109 9.761,4.607 9.653,10.046Z" style="fill:#fff;fill-rule:nonzero;"/><path d="M569.884,411.465c-0.109,5.44 -4.608,9.762 -10.047,9.653c-5.439,-0.109 -9.761,-4.607 -9.652,-10.046c0.109,-5.44 4.607,-9.762 10.046,-9.653c5.439,0.109 9.761,4.607 9.653,10.046Z" style="fill-opacity:0;fill-rule:nonzero;stroke:#fff;stroke-width:4.63px;"/></g></g><g><g><path d="M654.173,351.896c-0.109,5.44 -4.607,9.762 -10.046,9.653c-5.439,-0.109 -9.762,-4.607 -9.653,-10.046c0.109,-5.44 4.607,-9.762 10.047,-9.653c5.439,0.109 9.761,4.607 9.652,10.046Z" style="fill:#fff;fill-rule:nonzero;"/><path d="M654.173,351.896c-0.109,5.44 -4.607,9.762 -10.046,9.653c-5.439,-0.109 -9.762,-4.607 -9.653,-10.046c0.109,-5.44 4.607,-9.762 10.047,-9.653c5.439,0.109 9.761,4.607 9.652,10.046Z" style="fill-opacity:0;fill-rule:nonzero;stroke:#fff;stroke-width:4.63px;"/></g></g><g><g><path d="M655.373,291.978c-0.109,5.439 -4.607,9.761 -10.046,9.652c-5.44,-0.109 -9.762,-4.607 -9.653,-10.046c0.109,-5.439 4.607,-9.762 10.046,-9.653c5.44,0.109 9.762,4.607 9.653,10.047Z" style="fill:#fff;fill-rule:nonzero;"/><path d="M655.373,291.978c-0.109,5.439 -4.607,9.761 -10.046,9.652c-5.44,-0.109 -9.762,-4.607 -9.653,-10.046c0.109,-5.439 4.607,-9.762 10.046,-9.653c5.44,0.109 9.762,4.607 9.653,10.047Z" style="fill-opacity:0;fill-rule:nonzero;stroke:#fff;stroke-width:4.63px;"/></g></g><g><g><path d="M210.2,418.74c-0.109,5.439 -4.607,9.761 -10.046,9.652c-5.44,-0.109 -9.762,-4.607 -9.653,-10.046c0.109,-5.439 4.607,-9.762 10.046,-9.653c5.44,0.109 9.762,4.607 9.653,10.047Z" style="fill:#fff;fill-rule:nonzero;"/><path d="M210.2,418.74c-0.109,5.439 -4.607,9.761 -10.046,9.652c-5.44,-0.109 -9.762,-4.607 -9.653,-10.046c0.109,-5.439 4.607,-9.762 10.046,-9.653c5.44,0.109 9.762,4.607 9.653,10.047Z" style="fill-opacity:0;fill-rule:nonzero;stroke:#fff;stroke-width:4.63px;"/></g></g></g></g></g></svg>