<?xml version="1.0" encoding="UTF-8" standalone="no"?><!DOCTYPE svg PUBLIC "-//W3C//DTD SVG 1.1//EN" "http://www.w3.org/Graphics/SVG/1.1/DTD/svg11.dtd"><svg width="100%" height="100%" viewBox="-320 -320 2774 2774" version="1.1" xmlns="http://www.w3.org/2000/svg" xmlns:xlink="http://www.w3.org/1999/xlink" xml:space="preserve" xmlns:serif="http://www.serif.com/" style="fill-rule:evenodd;clip-rule:evenodd;stroke-linejoin:round;stroke-miterlimit:2;"><rect id="Mesa-de-trabajo1" serif:id="Mesa de trabajo1" x="-320" y="-320" width="2774" height="2774" style="fill:#ffffff;"/><g id="Mesa-de-trabajo11" serif:id="Mesa de trabajo1"><g><g><g><path d="M1833.95,1020.62l-0,-15.677c-0,-321.781 -260.856,-582.637 -582.637,-582.637l-0.002,-0c-207.296,-0 -388.831,108.582 -492.103,271.648c-94.522,-93.944 -240.701,-124.828 -368.992,-66.044l-0.002,0c-161.476,73.981 -234.075,262.107 -166.715,424.855c-106.298,60.658 -178.106,174.821 -178.106,305.971c0,194.561 157.725,352.287 352.288,352.287l1337.97,0c194.567,0 352.292,-157.726 352.292,-352.287c-0,-160.412 -107.312,-295.531 -253.99,-338.116Z" style="fill:#f43f5e;fill-rule:nonzero;"/></g></g><g><path d="M789.036,940.735l-0,-105.98l-46.163,0c-27.959,0 -53.317,3.901 -76.073,12.355c-23.407,8.451 -43.563,19.505 -60.468,33.808c-16.904,14.954 -29.909,31.86 -39.011,52.015c-9.753,20.157 -14.305,42.913 -14.305,66.971l-0,211.311l120.285,-0l-0,-204.16c-0,-19.506 6.502,-35.759 19.506,-48.114c13.005,-12.354 29.909,-18.206 50.066,-18.206l46.163,0Z" style="fill:#fff;fill-rule:nonzero;"/><path d="M1066.67,940.735l-0,-105.98l-46.163,0c-27.959,0 -53.317,3.901 -76.073,12.355c-23.407,8.451 -43.563,19.505 -60.468,33.808c-16.904,14.954 -29.909,31.86 -39.011,52.015c-9.753,20.157 -14.305,42.913 -14.305,66.971l-0,211.311l120.287,-0l-0,-204.16c-0,-19.506 6.5,-35.759 19.505,-48.114c13.004,-12.354 29.908,-18.206 50.065,-18.206l46.163,0Z" style="fill:#fff;fill-rule:nonzero;"/></g></g></g></svg>