<?xml version="1.0" encoding="UTF-8" standalone="no"?><!DOCTYPE svg PUBLIC "-//W3C//DTD SVG 1.1//EN" "http://www.w3.org/Graphics/SVG/1.1/DTD/svg11.dtd"><svg width="100%" height="100%" viewBox="0 0 11647 1900" version="1.1" xmlns="http://www.w3.org/2000/svg" xmlns:xlink="http://www.w3.org/1999/xlink" xml:space="preserve" xmlns:serif="http://www.serif.com/" style="fill-rule:evenodd;clip-rule:evenodd;stroke-linejoin:round;stroke-miterlimit:2;"><rect id="Mesa-de-trabajo2" serif:id="Mesa de trabajo2" x="0" y="0" width="11646.6" height="1900" style="fill:none;"/><clipPath id="_clip1"><rect x="0" y="0" width="11646.6" height="1900"/></clipPath><g clip-path="url(#_clip1)"><rect id="Mesa-de-trabajo1" serif:id="Mesa de trabajo1" x="0" y="0" width="13062.5" height="1900" style="fill:none;"/><g><g><path d="M3919.21,1328.58l259.975,-0l-0,-393.132c-0,-49.459 -8.877,-96.381 -25.363,-138.231c-17.755,-41.849 -41.85,-77.358 -73.554,-107.794c-31.704,-30.436 -68.481,-54.531 -111.599,-71.018c-43.118,-16.486 -90.04,-25.363 -140.767,-25.363c-51.995,0 -100.185,8.877 -143.303,25.363c-43.118,17.755 -79.895,41.85 -111.599,72.286c-31.704,-30.436 -69.749,-54.531 -112.867,-72.286c-43.117,-16.486 -90.04,-25.363 -142.035,-25.363c-51.995,0 -98.917,8.877 -142.035,25.363c-43.117,16.487 -79.894,40.582 -111.598,71.018c-31.705,30.436 -55.8,65.945 -72.286,107.794c-17.754,41.85 -26.632,88.772 -26.632,138.231l0,393.132l259.975,-0l0,-391.864c0,-34.241 10.145,-62.141 31.704,-83.699c21.559,-21.559 48.191,-31.705 79.895,-31.705c31.704,0 58.336,10.146 79.895,31.705c20.29,21.558 30.436,49.458 30.436,83.699l-0,391.864l249.829,-0l-0,-391.864c-0,-34.241 10.145,-62.141 31.704,-83.699c21.559,-21.559 48.19,-31.705 79.895,-31.705c31.704,0 58.335,10.146 79.894,31.705c20.291,21.558 30.436,49.458 30.436,83.699l0,391.864Z" style="fill-rule:nonzero;"/><path d="M5026.33,1074.94l-246.025,0c-8.877,17.755 -25.363,31.704 -48.19,43.118c-22.827,11.413 -48.191,16.486 -77.359,16.486c-31.704,0 -58.335,-10.145 -79.894,-30.436c-21.559,-20.291 -36.777,-48.19 -45.654,-83.699l504.731,-0c-0,-63.409 -8.877,-121.744 -25.364,-173.739c-17.754,-51.995 -43.117,-97.649 -76.09,-135.694c-34.24,-36.777 -74.822,-65.945 -123.012,-87.504c-48.191,-20.291 -102.722,-30.436 -163.594,-30.436c-54.531,0 -105.258,8.877 -152.18,27.9c-46.922,19.022 -86.236,44.386 -119.208,77.358c-34.241,34.241 -59.604,73.554 -78.627,119.208c-19.022,45.654 -29.167,95.113 -29.167,149.644c-0,54.531 10.145,103.99 29.167,149.644c19.023,45.654 44.386,84.967 78.627,117.939c32.972,34.241 72.286,59.604 119.208,78.627c46.922,19.022 97.649,27.9 152.18,27.9c46.922,-0 91.308,-6.341 133.158,-20.291c41.849,-12.682 78.626,-30.436 112.867,-54.531c34.24,-22.827 62.14,-50.727 86.235,-83.699c22.827,-32.973 39.314,-68.482 48.191,-107.795Zm-247.293,-187.689l-244.757,0c10.146,-29.168 25.364,-51.995 46.922,-68.481c20.291,-16.486 44.386,-24.095 73.554,-24.095c29.168,-0 54.532,7.609 77.359,21.559c21.558,15.218 38.045,39.313 46.922,71.017Z" style="fill-rule:nonzero;"/><path d="M5513.3,1341.26l71.017,-0l0,-228.271l-71.017,0c-38.046,0 -69.75,-11.413 -93.845,-34.24c-24.095,-21.559 -36.777,-50.727 -36.777,-86.236l0,-171.203l183.885,0l-0,-215.588l-183.885,-0l0,-177.544l-259.974,0l-0,578.285c-0,49.459 10.145,93.845 29.167,134.426c19.023,41.85 46.923,77.358 81.163,106.526c34.241,29.168 76.09,51.995 124.281,68.481c46.922,16.486 98.917,25.364 155.985,25.364Z" style="fill-rule:nonzero;"/><path d="M5646.46,974.757c0,53.263 8.877,102.722 25.364,147.107c16.486,44.386 39.313,83.7 68.481,115.404c29.168,32.972 63.408,58.336 102.721,76.09c39.314,19.022 83.7,27.9 130.622,27.9c43.118,-0 82.431,-7.609 116.671,-22.827c34.241,-15.218 59.604,-35.509 76.09,-60.873l0,71.018l247.293,-0l0,-393.132c0,-49.459 -8.877,-96.381 -27.899,-138.231c-19.023,-41.849 -44.386,-77.358 -77.359,-107.794c-32.972,-30.436 -72.285,-54.531 -117.939,-71.018c-46.923,-16.486 -97.649,-25.363 -152.181,-25.363c-57.067,0 -109.062,8.877 -157.252,27.9c-48.191,19.022 -90.04,45.654 -124.281,79.894c-34.241,34.241 -62.14,73.554 -81.163,120.476c-19.022,46.923 -29.168,98.918 -29.168,153.449Zm259.975,-7.609c-0,-43.118 11.413,-78.627 35.509,-106.526c24.095,-26.632 53.263,-40.582 90.04,-40.582c36.776,0 65.944,13.95 90.04,40.582c22.827,27.899 34.24,63.408 34.24,106.526c0,43.118 -11.413,78.626 -34.24,105.258c-24.096,27.9 -53.264,41.849 -90.04,41.849c-36.777,0 -65.945,-13.949 -90.04,-41.849c-24.096,-26.632 -35.509,-62.14 -35.509,-105.258Z" style="fill-rule:nonzero;"/><path d="M6997.06,821.308l0,-228.27l-92.576,0c-54.532,0 -105.258,7.609 -152.181,24.095c-46.922,16.486 -86.235,38.045 -119.207,65.945c-34.241,29.168 -59.604,62.14 -78.627,101.454c-19.022,39.313 -27.9,83.699 -27.9,130.621l0,413.423l259.975,-0l0,-399.473c0,-31.704 11.414,-58.336 32.972,-78.627c21.559,-19.022 50.727,-29.168 84.968,-29.168l92.576,0Z" style="fill:#f43f5e;fill-rule:nonzero;"/><path d="M7548.71,821.308l0,-228.27l-92.576,0c-54.531,0 -105.258,7.609 -152.18,24.095c-46.922,16.486 -86.236,38.045 -119.208,65.945c-34.241,29.168 -59.604,62.14 -78.626,101.454c-19.023,39.313 -27.9,83.699 -27.9,130.621l-0,413.423l259.974,-0l0,-399.473c0,-31.704 11.414,-58.336 32.973,-78.627c21.559,-19.022 50.727,-29.168 84.967,-29.168l92.576,0Z" style="fill:#f43f5e;fill-rule:nonzero;"/><path d="M8383.17,1074.94l-246.025,0c-8.877,17.755 -25.364,31.704 -48.191,43.118c-22.827,11.413 -48.19,16.486 -77.358,16.486c-31.704,0 -58.336,-10.145 -79.895,-30.436c-21.558,-20.291 -36.776,-48.19 -45.654,-83.699l504.732,-0c-0,-63.409 -8.878,-121.744 -25.364,-173.739c-17.754,-51.995 -43.118,-97.649 -76.09,-135.694c-34.24,-36.777 -74.822,-65.945 -123.012,-87.504c-48.191,-20.291 -102.722,-30.436 -163.594,-30.436c-54.531,0 -105.258,8.877 -152.18,27.9c-46.923,19.022 -86.236,44.386 -119.208,77.358c-34.241,34.241 -59.604,73.554 -78.627,119.208c-19.022,45.654 -29.168,95.113 -29.168,149.644c0,54.531 10.146,103.99 29.168,149.644c19.023,45.654 44.386,84.967 78.627,117.939c32.972,34.241 72.285,59.604 119.208,78.627c46.922,19.022 97.649,27.9 152.18,27.9c46.922,-0 91.308,-6.341 133.158,-20.291c41.849,-12.682 78.626,-30.436 112.867,-54.531c34.24,-22.827 62.14,-50.727 86.235,-83.699c22.827,-32.973 39.313,-68.482 48.191,-107.795Zm-247.293,-187.689l-244.757,0c10.145,-29.168 25.363,-51.995 46.922,-68.481c20.291,-16.486 44.386,-24.095 73.554,-24.095c29.168,-0 54.531,7.609 77.358,21.559c21.559,15.218 38.045,39.313 46.923,71.017Z" style="fill-rule:nonzero;"/><rect x="8485.89" y="377.449" width="253.634" height="951.127" style="fill-rule:nonzero;"/><path d="M8833.37,974.757c0,53.263 8.878,102.722 25.364,147.107c16.486,44.386 39.313,83.7 68.481,115.404c29.168,32.972 63.408,58.336 102.722,76.09c39.313,19.022 83.699,27.9 130.621,27.9c43.118,-0 82.431,-7.609 116.672,-22.827c34.24,-15.218 59.604,-35.509 76.09,-60.873l-0,71.018l247.293,-0l-0,-393.132c-0,-49.459 -8.878,-96.381 -27.9,-138.231c-19.023,-41.849 -44.386,-77.358 -77.358,-107.794c-32.973,-30.436 -72.286,-54.531 -117.94,-71.018c-46.922,-16.486 -97.649,-25.363 -152.18,-25.363c-57.068,0 -109.063,8.877 -157.253,27.9c-48.191,19.022 -90.04,45.654 -124.281,79.894c-34.24,34.241 -62.14,73.554 -81.163,120.476c-19.022,46.923 -29.168,98.918 -29.168,153.449Zm259.975,-7.609c0,-43.118 11.414,-78.627 35.509,-106.526c24.095,-26.632 53.263,-40.582 90.04,-40.582c36.777,0 65.945,13.95 90.04,40.582c22.827,27.899 34.24,63.408 34.24,106.526c0,43.118 -11.413,78.626 -34.24,105.258c-24.095,27.9 -53.263,41.849 -90.04,41.849c-36.777,0 -65.945,-13.949 -90.04,-41.849c-24.095,-26.632 -35.509,-62.14 -35.509,-105.258Z" style="fill-rule:nonzero;"/><path d="M10097.7,1341.26l71.017,-0l0,-228.271l-71.017,0c-38.045,0 -69.749,-11.413 -93.845,-34.24c-24.095,-21.559 -36.777,-50.727 -36.777,-86.236l0,-171.203l183.885,0l-0,-215.588l-183.885,-0l0,-177.544l-259.974,0l-0,578.285c-0,49.459 10.145,93.845 29.168,134.426c19.022,41.85 46.922,77.358 81.162,106.526c34.241,29.168 76.091,51.995 124.281,68.481c46.922,16.486 98.917,25.364 155.985,25.364Z" style="fill-rule:nonzero;"/><path d="M10230.9,967.148c-0,54.531 10.145,103.99 29.167,149.644c19.023,45.654 46.923,84.967 81.163,117.939c34.241,34.241 76.09,59.604 124.281,78.627c46.922,19.022 100.185,27.9 157.253,27.9c57.067,-0 110.33,-8.878 158.521,-27.9c46.922,-19.023 88.772,-44.386 123.012,-78.627c34.241,-32.972 60.872,-72.285 79.895,-117.939c19.022,-45.654 29.168,-95.113 29.168,-149.644c-0,-54.531 -10.146,-103.99 -29.168,-149.644c-19.023,-45.654 -45.654,-84.967 -79.895,-119.208c-34.24,-32.972 -76.09,-58.336 -123.012,-77.358c-48.191,-19.023 -101.454,-27.9 -158.521,-27.9c-57.068,0 -110.331,8.877 -157.253,27.9c-48.191,19.022 -90.04,44.386 -124.281,77.358c-34.24,34.241 -62.14,73.554 -81.163,119.208c-19.022,45.654 -29.167,95.113 -29.167,149.644Zm259.974,-0c0,-21.559 3.805,-40.582 10.145,-59.604c6.341,-17.754 16.487,-32.973 27.9,-46.922c11.414,-12.682 25.364,-22.827 41.85,-30.436c16.486,-6.341 32.972,-10.146 51.995,-10.146c38.045,0 69.749,13.95 93.844,40.582c24.095,27.899 36.777,63.408 36.777,106.526c0,43.118 -12.682,78.626 -36.777,105.258c-24.095,27.9 -55.799,41.849 -93.844,41.849c-19.023,0 -35.509,-3.804 -51.995,-11.413c-16.486,-6.341 -30.436,-16.486 -41.85,-30.436c-11.413,-12.682 -21.559,-27.9 -27.9,-46.922c-6.34,-17.755 -10.145,-36.777 -10.145,-58.336Z" style="fill-rule:nonzero;"/></g><g><g><g><path d="M2237.86,813.378l-0,-15.653c-0,-321.294 -260.462,-581.756 -581.755,-581.756l-0.002,0c-206.983,0 -388.243,108.418 -491.359,271.238c-94.379,-93.802 -240.337,-124.639 -368.434,-65.944l-0.002,-0c-161.231,73.869 -233.721,261.71 -166.463,424.212c-106.137,60.566 -177.836,174.557 -177.836,305.508c0,194.266 157.486,351.754 351.755,351.754l1335.94,0c194.273,0 351.759,-157.488 351.759,-351.754c-0,-160.169 -107.15,-295.084 -253.606,-337.605Z" style="fill:#f43f5e;fill-rule:nonzero;"/></g></g><g><path d="M1194.52,733.613l0,-105.82l-46.093,-0c-27.917,-0 -53.236,3.895 -75.957,12.336c-23.372,8.438 -43.498,19.476 -60.377,33.757c-16.879,14.931 -29.864,31.812 -38.952,51.936c-9.738,20.126 -14.284,42.848 -14.284,66.869l0,210.992l120.103,0l0,-203.851c0,-19.476 6.493,-35.705 19.477,-48.041c12.985,-12.335 29.864,-18.178 49.99,-18.178l46.093,-0Z" style="fill:#fff;fill-rule:nonzero;"/><path d="M1471.73,733.613l0,-105.82l-46.093,-0c-27.916,-0 -53.236,3.895 -75.957,12.336c-23.372,8.438 -43.498,19.476 -60.377,33.757c-16.879,14.931 -29.864,31.812 -38.952,51.936c-9.738,20.126 -14.284,42.848 -14.284,66.869l0,210.992l120.105,0l0,-203.851c0,-19.476 6.491,-35.705 19.477,-48.041c12.983,-12.335 29.862,-18.178 49.988,-18.178l46.093,-0Z" style="fill:#fff;fill-rule:nonzero;"/></g></g></g></g></svg>