<?xml version="1.0" encoding="UTF-8" standalone="no"?><!DOCTYPE svg PUBLIC "-//W3C//DTD SVG 1.1//EN" "http://www.w3.org/Graphics/SVG/1.1/DTD/svg11.dtd"><svg width="100%" height="100%" viewBox="0 0 13063 1900" version="1.1" xmlns="http://www.w3.org/2000/svg" xmlns:xlink="http://www.w3.org/1999/xlink" xml:space="preserve" xmlns:serif="http://www.serif.com/" style="fill-rule:evenodd;clip-rule:evenodd;stroke-linejoin:round;stroke-miterlimit:2;"><rect id="Mesa-de-trabajo1" serif:id="Mesa de trabajo1" x="0" y="0" width="13062.5" height="1900" style="fill:none;"/><g><g><path d="M4205.51,1421.51l304.736,0l0,-460.821c0,-57.974 -10.405,-112.975 -29.73,-162.03c-20.811,-49.055 -49.055,-90.678 -86.218,-126.354c-37.163,-35.677 -80.272,-63.921 -130.814,-83.245c-50.542,-19.325 -105.543,-29.731 -165.003,-29.731c-60.948,0 -117.436,10.406 -167.977,29.731c-50.542,20.811 -93.651,49.055 -130.814,84.731c-37.163,-35.676 -81.758,-63.92 -132.3,-84.731c-50.542,-19.325 -105.543,-29.731 -166.49,-29.731c-60.947,0 -115.949,10.406 -166.49,29.731c-50.542,19.324 -93.651,47.568 -130.814,83.245c-37.163,35.676 -65.407,77.299 -84.732,126.354c-20.811,49.055 -31.216,104.056 -31.216,162.03l-0,460.821l304.736,0l-0,-459.334c-0,-40.136 11.892,-72.84 37.163,-98.11c25.271,-25.271 56.488,-37.163 93.651,-37.163c37.163,-0 68.38,11.892 93.65,37.163c23.785,25.27 35.677,57.974 35.677,98.11l-0,459.334l292.844,0l0,-459.334c0,-40.136 11.892,-72.84 37.163,-98.11c25.271,-25.271 56.488,-37.163 93.651,-37.163c37.163,-0 68.38,11.892 93.65,37.163c23.785,25.27 35.677,57.974 35.677,98.11l-0,459.334Z" style="fill-rule:nonzero;"/><path d="M5503.24,1124.2l-288.385,0c-10.405,20.812 -29.73,37.163 -56.487,50.542c-26.758,13.379 -56.488,19.325 -90.678,19.325c-37.163,-0 -68.38,-11.892 -93.651,-35.677c-25.271,-23.784 -43.109,-56.487 -53.514,-98.11l591.634,0c0,-74.326 -10.405,-142.706 -29.73,-203.653c-20.812,-60.947 -50.542,-114.462 -89.191,-159.057c-40.136,-43.11 -87.705,-77.299 -144.193,-102.57c-56.487,-23.785 -120.408,-35.677 -191.761,-35.677c-63.92,0 -123.381,10.406 -178.382,32.704c-55.001,22.297 -101.083,52.028 -139.733,90.677c-40.136,40.136 -69.866,86.218 -92.164,139.733c-22.298,53.515 -34.19,111.489 -34.19,175.409c0,63.921 11.892,121.895 34.19,175.41c22.298,53.514 52.028,99.596 92.164,138.246c38.65,40.136 84.732,69.866 139.733,92.164c55.001,22.298 114.462,32.703 178.382,32.703c55.002,0 107.03,-7.432 156.085,-23.784c49.055,-14.865 92.164,-35.676 132.3,-63.92c40.136,-26.757 72.839,-59.461 101.083,-98.11c26.758,-38.65 46.082,-80.272 56.488,-126.355Zm-289.871,-220.004l-286.898,-0c11.892,-34.19 29.73,-60.948 55.001,-80.272c23.784,-19.325 52.028,-28.244 86.218,-28.244c34.19,-0 63.92,8.919 90.678,25.271c25.27,17.838 44.595,46.082 55.001,83.245Z" style="fill-rule:nonzero;"/><path d="M6074.06,1436.37l83.245,0l0,-267.573l-83.245,0c-44.595,0 -81.758,-13.379 -110.002,-40.136c-28.244,-25.271 -43.109,-59.461 -43.109,-101.083l-0,-200.68l215.545,-0l0,-252.709l-215.545,0l-0,-208.112l-304.737,-0l0,677.852c0,57.975 11.893,110.003 34.19,157.571c22.298,49.056 55.002,90.678 95.138,124.868c40.136,34.19 89.191,60.947 145.678,80.272c55.002,19.325 115.949,29.73 182.842,29.73Z" style="fill-rule:nonzero;"/><path d="M6230.15,1006.77c-0,62.434 10.405,120.409 29.73,172.437c19.325,52.028 46.082,98.11 80.272,135.273c34.19,38.649 74.326,68.38 120.408,89.191c46.082,22.298 98.111,32.703 153.112,32.703c50.541,0 96.624,-8.919 136.76,-26.757c40.136,-17.838 69.866,-41.622 89.191,-71.353l-0,83.245l289.871,0l-0,-460.821c-0,-57.974 -10.406,-112.975 -32.704,-162.03c-22.297,-49.055 -52.028,-90.678 -90.677,-126.354c-38.65,-35.677 -84.732,-63.921 -138.246,-83.245c-55.002,-19.325 -114.462,-29.731 -178.383,-29.731c-66.893,0 -127.84,10.406 -184.328,32.704c-56.488,22.297 -105.543,53.514 -145.679,93.65c-40.136,40.136 -72.839,86.218 -95.137,141.22c-22.298,55.001 -34.19,115.948 -34.19,179.868Zm304.736,-8.919c0,-50.541 13.379,-92.164 41.623,-124.867c28.244,-31.217 62.434,-47.569 105.543,-47.569c43.109,0 77.299,16.352 105.542,47.569c26.758,32.703 40.137,74.326 40.137,124.867c-0,50.542 -13.379,92.165 -40.137,123.381c-28.243,32.704 -62.433,49.056 -105.542,49.056c-43.109,-0 -77.299,-16.352 -105.543,-49.056c-28.244,-31.216 -41.623,-72.839 -41.623,-123.381Z" style="fill-rule:nonzero;"/><path d="M7813.29,826.898l-0,-267.574l-108.516,0c-63.921,0 -123.381,8.919 -178.383,28.244c-55.001,19.325 -101.083,44.596 -139.732,77.299c-40.136,34.19 -69.867,72.84 -92.165,118.922c-22.297,46.082 -32.703,98.11 -32.703,153.111l0,484.605l304.736,0l0,-468.253c0,-37.163 13.379,-68.38 38.65,-92.164c25.271,-22.298 59.461,-34.19 99.597,-34.19l108.516,-0Z" style="fill:#f43f5e;fill-rule:nonzero;"/><path d="M8459.92,826.898l0,-267.574l-108.515,0c-63.921,0 -123.382,8.919 -178.383,28.244c-55.001,19.325 -101.083,44.596 -139.733,77.299c-40.136,34.19 -69.866,72.84 -92.164,118.922c-22.297,46.082 -32.703,98.11 -32.703,153.111l-0,484.605l304.736,0l0,-468.253c0,-37.163 13.379,-68.38 38.65,-92.164c25.271,-22.298 59.461,-34.19 99.597,-34.19l108.515,-0Z" style="fill:#f43f5e;fill-rule:nonzero;"/><path d="M9438.06,1124.2l-288.385,0c-10.405,20.812 -29.73,37.163 -56.487,50.542c-26.758,13.379 -56.488,19.325 -90.678,19.325c-37.163,-0 -68.38,-11.892 -93.651,-35.677c-25.271,-23.784 -43.109,-56.487 -53.514,-98.11l591.634,0c0,-74.326 -10.406,-142.706 -29.73,-203.653c-20.812,-60.947 -50.542,-114.462 -89.191,-159.057c-40.136,-43.11 -87.705,-77.299 -144.193,-102.57c-56.488,-23.785 -120.408,-35.677 -191.761,-35.677c-63.92,0 -123.381,10.406 -178.382,32.704c-55.001,22.297 -101.083,52.028 -139.733,90.677c-40.136,40.136 -69.866,86.218 -92.164,139.733c-22.298,53.515 -34.19,111.489 -34.19,175.409c0,63.921 11.892,121.895 34.19,175.41c22.298,53.514 52.028,99.596 92.164,138.246c38.65,40.136 84.732,69.866 139.733,92.164c55.001,22.298 114.462,32.703 178.382,32.703c55.001,0 107.03,-7.432 156.085,-23.784c49.055,-14.865 92.164,-35.676 132.3,-63.92c40.136,-26.757 72.839,-59.461 101.083,-98.11c26.758,-38.65 46.082,-80.272 56.488,-126.355Zm-289.871,-220.004l-286.898,-0c11.892,-34.19 29.73,-60.948 55.001,-80.272c23.784,-19.325 52.028,-28.244 86.218,-28.244c34.19,-0 63.92,8.919 90.678,25.271c25.27,17.838 44.595,46.082 55.001,83.245Z" style="fill-rule:nonzero;"/><rect x="9558.46" y="306.616" width="297.304" height="1114.89" style="fill-rule:nonzero;"/><path d="M9965.77,1006.77c0,62.434 10.406,120.409 29.731,172.437c19.324,52.028 46.082,98.11 80.272,135.273c34.19,38.649 74.326,68.38 120.408,89.191c46.082,22.298 98.11,32.703 153.111,32.703c50.542,0 96.624,-8.919 136.76,-26.757c40.136,-17.838 69.866,-41.622 89.191,-71.353l0,83.245l289.871,0l0,-460.821c0,-57.974 -10.405,-112.975 -32.703,-162.03c-22.298,-49.055 -52.028,-90.678 -90.678,-126.354c-38.649,-35.677 -84.731,-63.921 -138.246,-83.245c-55.001,-19.325 -114.462,-29.731 -178.382,-29.731c-66.894,0 -127.841,10.406 -184.329,32.704c-56.487,22.297 -105.543,53.514 -145.679,93.65c-40.136,40.136 -72.839,86.218 -95.137,141.22c-22.298,55.001 -34.19,115.948 -34.19,179.868Zm304.737,-8.919c-0,-50.541 13.378,-92.164 41.622,-124.867c28.244,-31.217 62.434,-47.569 105.543,-47.569c43.109,0 77.299,16.352 105.543,47.569c26.757,32.703 40.136,74.326 40.136,124.867c-0,50.542 -13.379,92.165 -40.136,123.381c-28.244,32.704 -62.434,49.056 -105.543,49.056c-43.109,-0 -77.299,-16.352 -105.543,-49.056c-28.244,-31.216 -41.622,-72.839 -41.622,-123.381Z" style="fill-rule:nonzero;"/><path d="M11447.8,1436.37l83.245,0l-0,-267.573l-83.245,0c-44.596,0 -81.759,-13.379 -110.003,-40.136c-28.244,-25.271 -43.109,-59.461 -43.109,-101.083l0,-200.68l215.546,-0l-0,-252.709l-215.546,0l0,-208.112l-304.736,-0l-0,677.852c-0,57.975 11.892,110.003 34.19,157.571c22.298,49.056 55.001,90.678 95.137,124.868c40.136,34.19 89.191,60.947 145.679,80.272c55.001,19.325 115.948,29.73 182.842,29.73Z" style="fill-rule:nonzero;"/><path d="M11603.9,997.847c0,63.921 11.892,121.895 34.19,175.41c22.298,53.514 55.001,99.596 95.137,138.246c40.136,40.136 89.192,69.866 145.679,92.164c55.001,22.298 117.435,32.703 184.329,32.703c66.893,0 129.327,-10.405 185.815,-32.703c55.001,-22.298 104.056,-52.028 144.192,-92.164c40.136,-38.65 71.353,-84.732 93.651,-138.246c22.297,-53.515 34.19,-111.489 34.19,-175.41c-0,-63.92 -11.893,-121.894 -34.19,-175.409c-22.298,-53.515 -53.515,-99.597 -93.651,-139.733c-40.136,-38.649 -89.191,-68.38 -144.192,-90.677c-56.488,-22.298 -118.922,-32.704 -185.815,-32.704c-66.894,0 -129.328,10.406 -184.329,32.704c-56.487,22.297 -105.543,52.028 -145.679,90.677c-40.136,40.136 -72.839,86.218 -95.137,139.733c-22.298,53.515 -34.19,111.489 -34.19,175.409Zm304.737,0c-0,-25.27 4.459,-47.568 11.892,-69.866c7.432,-20.811 19.325,-38.65 32.703,-55.001c13.379,-14.865 29.731,-26.758 49.055,-35.677c19.325,-7.432 38.65,-11.892 60.948,-11.892c44.595,0 81.758,16.352 110.002,47.569c28.244,32.703 43.109,74.326 43.109,124.867c0,50.542 -14.865,92.165 -43.109,123.381c-28.244,32.704 -65.407,49.056 -110.002,49.056c-22.298,-0 -41.623,-4.46 -60.948,-13.379c-19.324,-7.433 -35.676,-19.325 -49.055,-35.677c-13.378,-14.865 -25.271,-32.703 -32.703,-55.001c-7.433,-20.811 -11.892,-43.109 -11.892,-68.38Z" style="fill-rule:nonzero;"/></g><g><g><g><path d="M2234.76,904.025l0,-15.654c0,-321.294 -260.461,-581.755 -581.755,-581.755l-0.002,-0c-206.983,-0 -388.243,108.417 -491.359,271.237c-94.379,-93.801 -240.337,-124.639 -368.434,-65.944l-0.002,0c-161.231,73.869 -233.721,261.71 -166.462,424.212c-106.138,60.567 -177.837,174.557 -177.837,305.508c0,194.267 157.486,351.755 351.755,351.755l1335.94,0c194.273,0 351.759,-157.488 351.759,-351.755c-0,-160.169 -107.15,-295.083 -253.606,-337.604Z" style="fill:#f43f5e;fill-rule:nonzero;"/></g></g><g><path d="M1191.43,824.259l0,-105.82l-46.093,0c-27.916,0 -53.236,3.896 -75.957,12.336c-23.372,8.439 -43.498,19.476 -60.377,33.758c-16.879,14.931 -29.864,31.812 -38.952,51.936c-9.738,20.126 -14.283,42.848 -14.283,66.869l-0,210.992l120.103,-0l-0,-203.851c-0,-19.477 6.492,-35.706 19.476,-48.041c12.985,-12.336 29.864,-18.179 49.99,-18.179l46.093,0Z" style="fill:#fff;fill-rule:nonzero;"/><path d="M1468.64,824.259l0,-105.82l-46.093,0c-27.916,0 -53.236,3.896 -75.957,12.336c-23.372,8.439 -43.498,19.476 -60.377,33.758c-16.878,14.931 -29.864,31.812 -38.952,51.936c-9.738,20.126 -14.283,42.848 -14.283,66.869l-0,210.992l120.105,-0l-0,-203.851c-0,-19.477 6.49,-35.706 19.476,-48.041c12.983,-12.336 29.862,-18.179 49.988,-18.179l46.093,0Z" style="fill:#fff;fill-rule:nonzero;"/></g></g></g></svg>