<?xml version="1.0" encoding="UTF-8" standalone="no"?><!DOCTYPE svg PUBLIC "-//W3C//DTD SVG 1.1//EN" "http://www.w3.org/Graphics/SVG/1.1/DTD/svg11.dtd"><svg width="100%" height="100%" viewBox="0 0 3135 456" version="1.1" xmlns="http://www.w3.org/2000/svg" xmlns:xlink="http://www.w3.org/1999/xlink" xml:space="preserve" xmlns:serif="http://www.serif.com/" style="fill-rule:evenodd;clip-rule:evenodd;stroke-linejoin:round;stroke-miterlimit:2;"><rect id="Mesa-de-trabajo1" serif:id="Mesa de trabajo1" x="0" y="0" width="3135" height="456" style="fill:none;"/><g><path d="M44.5,383.54l92.64,0l0,-148.24c0,-19.095 13.47,-39.3 34.825,-39.3c19.095,0 32.565,15.725 32.565,34.245l0,153.295l92.085,0l0,-148.24c0,-19.095 14.045,-39.3 34.25,-39.3c19.095,0 32.565,15.725 32.565,34.245l0,153.295l92.64,0l0,-158.9c0,-67.94 -35.93,-107.24 -85.91,-107.24c-46.03,0 -75.805,22.465 -93.215,38.19c-14.045,-23.015 -36.505,-38.19 -66.255,-38.19c-25.275,0 -57.84,13.47 -73.55,38.19l0,-33.71l-92.64,0l0,261.66Z" style="fill-rule:nonzero;"/><path d="M492,252.73c0,92.085 75.23,134.755 155.53,134.755c47.72,0 96.01,-14.045 121.84,-40.43l-49.42,-57.84c-17.41,15.155 -44.35,25.275 -71.31,25.275c-28.065,0 -55.58,-12.915 -64.575,-38.745l185.285,0c5.05,-14.045 6.735,-28.065 6.735,-41.555c0.02,-73.565 -64.535,-116.79 -136.415,-116.79c-90.405,0 -147.67,51.66 -147.67,135.33l-0,-0Zm192.595,-29.215l-100.51,0c1.13,-23.02 25.275,-38.19 49.975,-38.19c26.385,0 50.535,12.915 50.535,38.19l0,-0Z" style="fill-rule:nonzero;"/><path d="M923.785,51.145l-45.48,0c-15.155,22.46 -31.435,48.845 -46.61,70.755l-29.195,0l0,71.86l29.195,0l0,98.825c0,58.39 32.565,94.325 92.09,94.325c24.145,0 49.975,-6.18 72.435,-14.6l-16.835,-72.99c-9.55,4.495 -21.335,8.99 -32.01,8.99c-15.155,0 -23.59,-7.865 -23.59,-23.59l0,-90.96l62.89,0l0,-71.88l-62.89,0l0,-70.735Z" style="fill-rule:nonzero;"/><path d="M1215.46,252.155c0,30.88 -23.015,52.79 -51.66,52.79c-29.75,0 -52.215,-21.91 -52.215,-52.79c0,-29.77 22.465,-51.66 52.215,-51.66c28.645,0 51.66,21.91 51.66,51.66l0,-0Zm-195.96,0c0,81.41 59.525,135.33 120.155,135.33c37.06,0 61.205,-14.6 75.805,-37.615l0,33.69l91.515,0l0,-261.68l-91.515,-0l0,33.69c-14.6,-23.57 -38.745,-38.17 -75.805,-38.17c-60.63,0 -120.155,55.03 -120.155,134.755l0,-0Z" style="fill-rule:nonzero;"/><path d="M1358,121.88l0,261.64l91.515,0l0,-118.47c0,-43.795 29.75,-53.895 63.44,-53.895c11.235,0 21.89,1.125 33.12,2.235l0,-95.99c-41.555,0 -78.04,17.965 -96.58,45.48l0,-41l-91.495,0Z" style="fill:#f43f5e;fill-rule:nonzero;"/><path d="M1581,121.88l0,261.64l91.515,0l0,-118.47c0,-43.795 29.75,-53.895 63.44,-53.895c11.235,0 21.89,1.125 33.12,2.235l0,-95.99c-41.555,0 -78.04,17.965 -96.58,45.48l0,-41l-91.495,0Z" style="fill:#f43f5e;fill-rule:nonzero;"/><path d="M1792,252.73c0,92.085 75.23,134.755 155.53,134.755c47.72,0 96.01,-14.045 121.84,-40.43l-49.42,-57.84c-17.41,15.155 -44.35,25.275 -71.31,25.275c-28.065,0 -55.58,-12.915 -64.575,-38.745l185.285,0c5.05,-14.045 6.735,-28.065 6.735,-41.555c0.02,-73.565 -64.535,-116.79 -136.415,-116.79c-90.405,0 -147.67,51.66 -147.67,135.33l-0,-0Zm192.595,-29.215l-100.51,0c1.13,-23.02 25.275,-38.19 49.975,-38.19c26.385,0 50.535,12.915 50.535,38.19l0,-0Z" style="fill-rule:nonzero;"/><rect x="2117" y="27" width="92.085" height="356.54" style="fill-rule:nonzero;"/><path d="M2444.96,252.155c0,30.88 -23.015,52.79 -51.66,52.79c-29.75,0 -52.215,-21.91 -52.215,-52.79c0,-29.77 22.465,-51.66 52.215,-51.66c28.645,0 51.66,21.91 51.66,51.66l0,-0Zm-195.96,0c0,81.41 59.525,135.33 120.155,135.33c37.06,0 61.205,-14.6 75.805,-37.615l0,33.69l91.515,0l0,-261.68l-91.515,-0l0,33.69c-14.6,-23.57 -38.745,-38.17 -75.805,-38.17c-60.63,0 -120.155,55.03 -120.155,134.755l0,-0Z" style="fill-rule:nonzero;"/><path d="M2694.285,51.145l-45.48,0c-15.155,22.46 -31.435,48.845 -46.61,70.755l-29.195,0l0,71.86l29.195,0l0,98.825c0,58.39 32.565,94.325 92.09,94.325c24.145,0 49.975,-6.18 72.435,-14.6l-16.835,-72.99c-9.55,4.495 -21.335,8.99 -32.01,8.99c-15.155,0 -23.59,-7.865 -23.59,-23.59l0,-90.96l62.89,0l0,-71.88l-62.89,0l0,-70.735Z" style="fill-rule:nonzero;"/><path d="M2984.405,252.155c0,30.88 -23.015,52.79 -51.66,52.79c-28.065,0 -52.215,-21.91 -52.215,-52.79c0,-29.77 23.02,-51.66 52.215,-51.66c29.2,0 51.66,21.91 51.66,51.66l0,-0Zm-195.405,0c0,79.17 65.13,135.33 143.745,135.33c78.045,0 143.745,-56.16 143.745,-135.33c0,-79.17 -61.76,-134.755 -143.745,-134.755c-81.985,-0 -143.745,55.585 -143.745,134.755l0,0Z" style="fill-rule:nonzero;"/></g></svg>