<?xml version="1.0" encoding="UTF-8" standalone="no"?><!DOCTYPE svg PUBLIC "-//W3C//DTD SVG 1.1//EN" "http://www.w3.org/Graphics/SVG/1.1/DTD/svg11.dtd"><svg width="100%" height="100%" viewBox="0 0 3135 456" version="1.1" xmlns="http://www.w3.org/2000/svg" xmlns:xlink="http://www.w3.org/1999/xlink" xml:space="preserve" xmlns:serif="http://www.serif.com/" style="fill-rule:evenodd;clip-rule:evenodd;stroke-linejoin:round;stroke-miterlimit:2;"><rect id="Mesa-de-trabajo1" serif:id="Mesa de trabajo1" x="0" y="0" width="3135" height="456" style="fill:none;"/><g><g><path d="M481.425,395.318l92.25,0l0,-139.5c0,-17.55 -3.15,-34.2 -9,-49.05c-6.3,-14.85 -14.85,-27.45 -26.1,-38.25c-11.25,-10.8 -24.3,-19.35 -39.6,-25.2c-15.3,-5.85 -31.95,-9 -49.95,-9c-18.45,0 -35.55,3.15 -50.85,9c-15.3,6.3 -28.35,14.85 -39.6,25.65c-11.25,-10.8 -24.75,-19.35 -40.05,-25.65c-15.3,-5.85 -31.95,-9 -50.4,-9c-18.45,0 -35.1,3.15 -50.4,9c-15.3,5.85 -28.35,14.4 -39.6,25.2c-11.25,10.8 -19.8,23.4 -25.65,38.25c-6.3,14.85 -9.45,31.5 -9.45,49.05l0,139.5l92.25,0l0,-139.05c0,-12.15 3.6,-22.05 11.25,-29.7c7.65,-7.65 17.1,-11.25 28.35,-11.25c11.25,0 20.7,3.6 28.35,11.25c7.2,7.65 10.8,17.55 10.8,29.7l0,139.05l88.65,0l0,-139.05c0,-12.15 3.6,-22.05 11.25,-29.7c7.65,-7.65 17.1,-11.25 28.35,-11.25c11.25,0 20.7,3.6 28.35,11.25c7.2,7.65 10.8,17.55 10.8,29.7l0,139.05Z" style="fill-rule:nonzero;"/><path d="M874.275,305.318l-87.3,0c-3.15,6.3 -9,11.25 -17.1,15.3c-8.1,4.05 -17.1,5.85 -27.45,5.85c-11.25,0 -20.7,-3.6 -28.35,-10.8c-7.65,-7.2 -13.05,-17.1 -16.2,-29.7l179.1,0c0,-22.5 -3.15,-43.2 -9,-61.65c-6.3,-18.45 -15.3,-34.65 -27,-48.15c-12.15,-13.05 -26.55,-23.4 -43.65,-31.05c-17.1,-7.2 -36.45,-10.8 -58.05,-10.8c-19.35,0 -37.35,3.15 -54,9.9c-16.65,6.75 -30.6,15.75 -42.3,27.45c-12.15,12.15 -21.15,26.1 -27.9,42.3c-6.75,16.2 -10.35,33.75 -10.35,53.1c0,19.35 3.6,36.9 10.35,53.1c6.75,16.2 15.75,30.15 27.9,41.85c11.7,12.15 25.65,21.15 42.3,27.9c16.65,6.75 34.65,9.9 54,9.9c16.65,0 32.4,-2.25 47.25,-7.2c14.85,-4.5 27.9,-10.8 40.05,-19.35c12.15,-8.1 22.05,-18 30.6,-29.7c8.1,-11.7 13.95,-24.3 17.1,-38.25Zm-87.75,-66.6l-86.85,0c3.6,-10.35 9,-18.45 16.65,-24.3c7.2,-5.85 15.75,-8.55 26.1,-8.55c10.35,0 19.35,2.7 27.45,7.65c7.65,5.4 13.5,13.95 16.65,25.2Z" style="fill-rule:nonzero;"/><path d="M1047.08,399.818l25.2,0l-0,-81l-25.2,0c-13.5,0 -24.75,-4.05 -33.3,-12.15c-8.55,-7.65 -13.05,-18 -13.05,-30.6l-0,-60.75l65.25,0l-0,-76.5l-65.25,0l-0,-63l-92.25,0l-0,205.2c-0,17.55 3.6,33.3 10.35,47.7c6.75,14.85 16.65,27.45 28.8,37.8c12.15,10.35 27,18.45 44.1,24.3c16.65,5.85 35.1,9 55.35,9Z" style="fill-rule:nonzero;"/><path d="M1094.33,269.768c0,18.9 3.15,36.45 9,52.2c5.85,15.75 13.95,29.7 24.3,40.95c10.35,11.7 22.5,20.7 36.45,27c13.95,6.75 29.7,9.9 46.35,9.9c15.3,0 29.25,-2.7 41.4,-8.1c12.15,-5.4 21.15,-12.6 27,-21.6l0,25.2l87.75,0l0,-139.5c0,-17.55 -3.15,-34.2 -9.9,-49.05c-6.75,-14.85 -15.75,-27.45 -27.45,-38.25c-11.7,-10.8 -25.65,-19.35 -41.85,-25.2c-16.65,-5.85 -34.65,-9 -54,-9c-20.25,0 -38.7,3.15 -55.8,9.9c-17.1,6.75 -31.95,16.2 -44.1,28.35c-12.15,12.15 -22.05,26.1 -28.8,42.75c-6.75,16.65 -10.35,35.1 -10.35,54.45Zm92.25,-2.7c-0,-15.3 4.05,-27.9 12.6,-37.8c8.55,-9.45 18.9,-14.4 31.95,-14.4c13.05,0 23.4,4.95 31.95,14.4c8.1,9.9 12.15,22.5 12.15,37.8c-0,15.3 -4.05,27.9 -12.15,37.35c-8.55,9.9 -18.9,14.85 -31.95,14.85c-13.05,0 -23.4,-4.95 -31.95,-14.85c-8.55,-9.45 -12.6,-22.05 -12.6,-37.35Z" style="fill-rule:nonzero;"/><path d="M1573.58,215.318l0,-81l-32.85,0c-19.35,0 -37.35,2.7 -54,8.55c-16.65,5.85 -30.6,13.5 -42.3,23.4c-12.15,10.35 -21.15,22.05 -27.9,36c-6.75,13.95 -9.9,29.7 -9.9,46.35l-0,146.7l92.25,0l0,-141.75c0,-11.25 4.05,-20.7 11.7,-27.9c7.65,-6.75 18,-10.35 30.15,-10.35l32.85,0Z" style="fill:#f43f5e;fill-rule:nonzero;"/><path d="M1769.33,215.318l0,-81l-32.85,0c-19.35,0 -37.35,2.7 -54,8.55c-16.65,5.85 -30.6,13.5 -42.3,23.4c-12.15,10.35 -21.15,22.05 -27.9,36c-6.75,13.95 -9.9,29.7 -9.9,46.35l0,146.7l92.25,0l0,-141.75c0,-11.25 4.05,-20.7 11.7,-27.9c7.65,-6.75 18,-10.35 30.15,-10.35l32.85,0Z" style="fill:#f43f5e;fill-rule:nonzero;"/><path d="M2065.43,305.318l-87.3,0c-3.15,6.3 -9,11.25 -17.1,15.3c-8.1,4.05 -17.1,5.85 -27.45,5.85c-11.25,0 -20.7,-3.6 -28.35,-10.8c-7.65,-7.2 -13.05,-17.1 -16.2,-29.7l179.1,0c0,-22.5 -3.15,-43.2 -9,-61.65c-6.3,-18.45 -15.3,-34.65 -27,-48.15c-12.15,-13.05 -26.55,-23.4 -43.65,-31.05c-17.1,-7.2 -36.45,-10.8 -58.05,-10.8c-19.35,0 -37.35,3.15 -54,9.9c-16.65,6.75 -30.6,15.75 -42.3,27.45c-12.15,12.15 -21.15,26.1 -27.9,42.3c-6.75,16.2 -10.35,33.75 -10.35,53.1c-0,19.35 3.6,36.9 10.35,53.1c6.75,16.2 15.75,30.15 27.9,41.85c11.7,12.15 25.65,21.15 42.3,27.9c16.65,6.75 34.65,9.9 54,9.9c16.65,0 32.4,-2.25 47.25,-7.2c14.85,-4.5 27.9,-10.8 40.05,-19.35c12.15,-8.1 22.05,-18 30.6,-29.7c8.1,-11.7 13.95,-24.3 17.1,-38.25Zm-87.75,-66.6l-86.85,0c3.6,-10.35 9,-18.45 16.65,-24.3c7.2,-5.85 15.75,-8.55 26.1,-8.55c10.35,0 19.35,2.7 27.45,7.65c7.65,5.4 13.5,13.95 16.65,25.2Z" style="fill-rule:nonzero;"/><rect x="2101.88" y="57.818" width="90" height="337.5" style="fill-rule:nonzero;"/><path d="M2225.18,269.768c0,18.9 3.15,36.45 9,52.2c5.85,15.75 13.95,29.7 24.3,40.95c10.35,11.7 22.5,20.7 36.45,27c13.95,6.75 29.7,9.9 46.35,9.9c15.3,0 29.25,-2.7 41.4,-8.1c12.15,-5.4 21.15,-12.6 27,-21.6l0,25.2l87.75,0l0,-139.5c0,-17.55 -3.15,-34.2 -9.9,-49.05c-6.75,-14.85 -15.75,-27.45 -27.45,-38.25c-11.7,-10.8 -25.65,-19.35 -41.85,-25.2c-16.65,-5.85 -34.65,-9 -54,-9c-20.25,0 -38.7,3.15 -55.8,9.9c-17.1,6.75 -31.95,16.2 -44.1,28.35c-12.15,12.15 -22.05,26.1 -28.8,42.75c-6.75,16.65 -10.35,35.1 -10.35,54.45Zm92.25,-2.7c0,-15.3 4.05,-27.9 12.6,-37.8c8.55,-9.45 18.9,-14.4 31.95,-14.4c13.05,0 23.4,4.95 31.95,14.4c8.1,9.9 12.15,22.5 12.15,37.8c0,15.3 -4.05,27.9 -12.15,37.35c-8.55,9.9 -18.9,14.85 -31.95,14.85c-13.05,0 -23.4,-4.95 -31.95,-14.85c-8.55,-9.45 -12.6,-22.05 -12.6,-37.35Z" style="fill-rule:nonzero;"/><path d="M2673.83,399.818l25.2,0l0,-81l-25.2,0c-13.5,0 -24.75,-4.05 -33.3,-12.15c-8.55,-7.65 -13.05,-18 -13.05,-30.6l0,-60.75l65.25,0l0,-76.5l-65.25,0l0,-63l-92.25,0l0,205.2c0,17.55 3.6,33.3 10.35,47.7c6.75,14.85 16.65,27.45 28.8,37.8c12.15,10.35 27,18.45 44.1,24.3c16.65,5.85 35.1,9 55.35,9Z" style="fill-rule:nonzero;"/><path d="M2721.08,267.068c0,19.35 3.6,36.9 10.35,53.1c6.75,16.2 16.65,30.15 28.8,41.85c12.15,12.15 27,21.15 44.1,27.9c16.65,6.75 35.55,9.9 55.8,9.9c20.25,0 39.15,-3.15 56.25,-9.9c16.65,-6.75 31.5,-15.75 43.65,-27.9c12.15,-11.7 21.6,-25.65 28.35,-41.85c6.75,-16.2 10.35,-33.75 10.35,-53.1c0,-19.35 -3.6,-36.9 -10.35,-53.1c-6.75,-16.2 -16.2,-30.15 -28.35,-42.3c-12.15,-11.7 -27,-20.7 -43.65,-27.45c-17.1,-6.75 -36,-9.9 -56.25,-9.9c-20.25,0 -39.15,3.15 -55.8,9.9c-17.1,6.75 -31.95,15.75 -44.1,27.45c-12.15,12.15 -22.05,26.1 -28.8,42.3c-6.75,16.2 -10.35,33.75 -10.35,53.1Zm92.25,0c0,-7.65 1.35,-14.4 3.6,-21.15c2.25,-6.3 5.85,-11.7 9.9,-16.65c4.05,-4.5 9,-8.1 14.85,-10.8c5.85,-2.25 11.7,-3.6 18.45,-3.6c13.5,0 24.75,4.95 33.3,14.4c8.55,9.9 13.05,22.5 13.05,37.8c0,15.3 -4.5,27.9 -13.05,37.35c-8.55,9.9 -19.8,14.85 -33.3,14.85c-6.75,0 -12.6,-1.35 -18.45,-4.05c-5.85,-2.25 -10.8,-5.85 -14.85,-10.8c-4.05,-4.5 -7.65,-9.9 -9.9,-16.65c-2.25,-6.3 -3.6,-13.05 -3.6,-20.7Z" style="fill-rule:nonzero;"/></g></g></svg>