<?xml version="1.0" encoding="UTF-8" standalone="no"?><!DOCTYPE svg PUBLIC "-//W3C//DTD SVG 1.1//EN" "http://www.w3.org/Graphics/SVG/1.1/DTD/svg11.dtd"><svg width="100%" height="100%" viewBox="0 0 6250 6250" version="1.1" xmlns="http://www.w3.org/2000/svg" xmlns:xlink="http://www.w3.org/1999/xlink" xml:space="preserve" xmlns:serif="http://www.serif.com/" style="fill-rule:evenodd;clip-rule:evenodd;stroke-linejoin:round;stroke-miterlimit:2;"><g><g><g id="Capa_1-i1"><g><g><path d="M3029.272,3512.358c1.372,0 2.744,0 4.117,1.365c-2.744,-1.365 -2.744,-1.365 -4.117,-1.365Z" style="fill:#f1e300;fill-rule:nonzero;"/><path d="M2196.35,2565.086c0,0 0,1.365 0,0c0,1.365 0,0 0,0Z" style="fill:#f1e300;fill-rule:nonzero;"/><path d="M2190.861,2480.459c-2.744,25.934 2.744,30.029 8.233,49.138c-2.744,-69.612 4.117,-171.983 -12.35,-148.779c-1.372,-64.152 35.677,-120.115 46.655,-166.523c23.327,-50.503 23.327,-80.532 34.305,-128.305c-10.978,-20.474 6.861,-90.086 2.744,-141.954c0,1.365 -1.372,5.46 -1.372,8.19c-10.978,-21.839 10.978,-103.736 -9.605,-75.072c1.372,-6.825 0,-36.854 4.117,-30.029c-5.489,-17.744 -15.094,-110.561 -17.839,-75.072c2.744,-75.072 -12.35,-124.21 -16.466,-193.822c15.094,8.19 1.372,-40.948 1.372,-12.285c0,-27.299 -2.744,-10.92 -2.744,5.46c-1.372,-25.934 0,-55.963 -2.744,-76.437c-5.489,-4.095 1.372,46.408 -4.117,20.474l5.489,30.029c-24.699,-32.759 -12.35,-158.334 19.211,-226.581l-8.233,8.19c9.605,-27.299 21.955,-30.029 35.677,-55.963c-43.91,36.854 75.471,-90.086 127.614,-90.086c27.444,-28.664 166.035,-27.299 208.573,-24.569c21.955,1.365 1.372,2.73 10.978,5.46c12.35,2.73 16.466,0 9.605,-2.73c39.794,8.19 107.031,32.759 146.825,43.678l-6.861,-4.095c30.188,10.92 28.816,20.474 59.004,31.394l-4.117,-2.73c152.313,73.707 249.739,161.064 363.631,263.435c-32.933,-19.109 43.91,43.678 39.794,34.124c0,-1.365 65.865,70.977 35.677,32.759c23.327,21.839 48.027,43.678 74.098,65.517l13.722,6.825l5.489,0l-13.722,-4.095c8.233,1.365 12.35,4.095 17.839,6.825l6.861,0l15.094,8.19c2.744,0 -6.861,-4.095 4.117,-1.365c6.861,4.095 -8.233,0 4.117,5.46c8.233,1.365 5.489,-1.365 15.094,2.73c1.372,0 0,-1.365 -4.117,-2.73c8.233,2.73 20.583,6.825 24.699,9.555c8.233,0 27.444,6.825 27.444,4.095c2.744,1.365 13.722,5.46 20.583,6.825c-12.35,-6.825 27.444,5.46 24.699,1.365c9.605,5.46 35.677,8.19 53.516,12.285c-1.372,0 -2.744,-1.365 -4.117,-1.365c9.605,1.365 13.722,0 19.211,0c1.372,2.73 16.466,5.46 24.699,8.19c12.35,-1.365 -6.861,-4.095 -2.744,-5.46c-1.372,2.73 21.955,4.095 16.466,5.46c9.605,-1.365 8.233,0 13.722,-1.365c1.372,4.095 8.233,1.365 16.466,4.095c13.722,-1.365 4.117,-2.73 19.211,-1.365c6.861,-1.365 -6.861,-2.73 -6.861,-2.73c15.094,0 6.861,2.73 10.978,4.095c19.211,1.365 8.233,-1.365 15.094,-2.73c10.978,1.365 20.583,4.095 28.816,4.095c0,0 2.744,0 0,-1.365c12.35,2.73 37.049,0 50.771,2.73l1.372,0c-2.744,1.365 -2.744,2.73 -2.744,4.095c6.861,0 12.35,1.365 15.094,0c-4.117,0 -4.117,-1.365 -6.861,-1.365l6.861,1.365c6.861,-2.73 -9.605,-1.365 -9.605,-2.73c13.722,1.365 31.56,4.095 42.538,4.095c2.744,-2.73 -26.072,-1.365 -10.978,-2.73l-16.466,0c13.722,-2.73 -10.978,0 1.372,-4.095c21.955,0 24.699,1.365 48.027,2.73c5.489,1.365 -1.372,1.365 2.744,4.095c31.56,5.46 26.072,-2.73 49.399,2.73c5.489,2.73 8.233,5.46 24.699,8.19l-5.489,-4.095c21.955,4.095 10.978,6.825 34.305,10.92c-4.117,-2.73 -16.466,-5.46 -13.722,-5.46c15.094,1.365 9.605,4.095 20.583,8.19l2.744,-1.365c21.955,8.19 45.282,20.474 67.237,34.124c-1.372,-1.365 -4.117,-4.095 1.372,-1.365c27.444,17.744 56.26,42.313 78.215,65.517l5.489,10.92c1.372,2.73 4.117,4.095 2.744,1.365c8.233,9.555 0,1.365 2.744,6.825c4.117,5.46 6.861,6.825 4.117,2.73c12.35,19.109 30.188,54.598 39.794,75.072l-1.372,-4.095c6.861,16.379 2.744,20.474 9.605,35.489l0,-2.73c12.35,36.854 12.35,80.532 13.722,109.196c-2.744,5.46 -1.372,38.218 -5.489,39.583c0,21.839 1.372,16.379 -1.372,46.408c-1.372,8.19 -4.117,12.285 -5.489,21.839l2.744,0l-4.117,13.649l1.372,6.825l-1.372,9.555c0,-4.095 0,-8.19 -1.372,-6.825c-2.744,15.014 -1.372,35.489 0,35.489c-1.372,10.92 -2.744,23.204 -2.744,34.124c1.372,-1.365 1.372,-6.825 2.744,-10.92c-2.744,17.744 1.372,2.73 0,20.474c0,-2.73 -1.372,1.365 -1.372,1.365c1.372,8.19 1.372,27.299 0,42.313l1.372,-2.73c0,25.934 0,54.598 1.372,83.262c-1.372,-10.92 -4.117,-8.19 -2.744,0l2.744,2.73c-1.372,5.46 -1.372,-8.19 -2.744,2.73c1.372,10.92 2.744,6.825 2.744,1.365l0,13.649c1.372,1.365 1.372,-2.73 1.372,-2.73c-1.372,5.46 4.117,23.204 1.372,30.029l1.372,1.365c1.372,28.664 2.744,42.313 2.744,65.517c-1.372,0 -1.372,9.555 -1.372,16.379c1.372,17.744 4.117,36.854 5.489,57.328c0,15.014 -1.372,4.095 -2.744,10.92c1.372,1.365 2.744,21.839 4.117,10.92c1.372,24.569 1.372,32.759 1.372,64.152c-1.372,-4.095 -1.372,-6.825 -1.372,-5.46c0,5.46 1.372,13.649 1.372,12.285l0,-1.365c-1.372,35.489 5.489,83.262 0,111.926l0,-1.365c-1.372,9.555 -2.744,19.109 -4.117,30.029c-1.372,13.649 2.744,-8.19 2.744,2.73c-5.489,31.394 -5.489,50.503 -12.35,76.437c1.372,21.839 -15.094,70.977 -17.839,96.911l-1.372,-1.365c-2.744,6.825 -1.372,8.19 -2.744,13.649c-1.372,-1.365 0,-8.19 -1.372,-4.095c-1.372,4.095 -1.372,5.46 -1.372,5.46l2.744,4.095l2.744,5.46c2.744,8.19 4.117,16.379 4.117,24.569c0,17.744 -5.489,34.124 -15.094,47.773c-9.605,13.649 -21.955,25.934 -38.421,34.124c-12.35,5.46 -24.699,9.555 -37.049,10.92c-4.117,23.204 -10.978,45.043 -17.839,65.517c4.117,-5.46 -2.744,16.379 1.372,9.555c-6.861,21.839 -15.094,39.583 -16.466,35.489c-119.381,278.449 -138.592,316.667 -351.282,320.762c0,0 5.489,1.365 10.978,1.365c-15.094,1.365 -31.56,-1.365 -12.35,-1.365c15.094,-4.095 -38.421,-8.19 -39.794,-9.555c16.466,8.19 -48.027,2.73 -21.955,12.285c-9.605,-1.365 -30.188,-5.46 -15.094,0c-24.699,0 -61.749,-6.825 -43.91,0c-16.466,-2.73 -31.56,-4.095 -57.632,-2.73c1.372,0 0,1.365 4.117,1.365c-43.91,0 -75.471,-5.46 -123.497,0c12.35,6.825 -39.794,9.555 -46.655,8.19l10.978,-2.73c-23.327,1.365 -43.91,-2.73 -64.493,0l17.839,1.365l-43.91,0l24.699,-2.73c-23.327,-2.73 2.744,-6.825 -28.816,-4.095c-34.305,-1.365 -97.426,10.92 -145.453,-4.095c10.978,6.825 -5.489,1.365 -6.861,0c-10.978,0 -12.35,0 -10.978,2.73c-32.933,-4.095 10.978,-4.095 -27.444,-8.19c-105.659,-23.204 -118.009,-24.569 -222.295,-92.816c26.072,8.19 -26.072,-16.379 -42.538,-31.394c-4.117,12.285 -59.004,-47.773 -87.82,-76.437l2.744,5.46c-12.35,-13.649 -63.121,-51.868 -59.004,-62.788c-53.516,-42.313 -79.587,-99.641 -124.87,-140.589c27.444,39.583 -52.143,-64.152 -10.978,-20.474c-2.744,-6.825 -9.605,-17.744 -17.839,-28.664c12.35,19.109 -4.117,2.73 -10.978,-4.095c-27.444,-55.963 -34.305,-51.868 -68.61,-103.736c4.117,8.19 10.978,17.744 15.094,25.934c-15.094,-13.649 -15.094,-16.379 -24.699,-28.664l1.372,1.365c0,0 -21.955,-27.299 -20.583,-27.299l5.489,6.825c-5.489,-27.299 -26.072,-45.043 -38.421,-77.802c17.839,40.948 -15.094,-8.19 -15.094,-2.73c-42.538,-73.707 -97.426,-219.756 -113.892,-286.639c1.372,2.73 1.372,4.095 5.489,4.095c-2.744,-6.825 -8.233,-36.854 -6.861,-17.744c0,5.46 1.372,9.555 1.372,12.285c0,-1.365 -1.372,-4.095 -1.372,-5.46c-9.605,4.095 -6.861,-61.423 -12.35,-20.474c-2.744,-13.649 -4.117,-85.992 -6.861,-36.854c0,-21.839 1.372,-87.357 5.489,-54.598Zm1812.668,-737.071c1.372,1.365 2.744,2.73 6.861,4.095c-2.744,-1.365 -5.489,-2.73 -6.861,-4.095Zm21.955,13.649c-1.372,0 -1.372,1.365 1.372,2.73c-1.372,-1.365 5.489,2.73 9.605,5.46c-4.117,-1.365 -6.861,-4.095 -10.978,-8.19Zm-1464.131,1441.383c1.372,0 2.744,0 2.744,-1.365c-9.605,-9.555 -19.211,-23.204 -2.744,1.365Zm-124.87,-2025.58c-2.744,0 9.605,-4.095 17.839,-6.825c-6.861,1.365 -15.094,2.73 -24.699,5.46c-1.372,1.365 1.372,2.73 6.861,1.365Zm-177.013,1560.133c0,0 2.744,2.73 5.489,5.46c-2.744,-6.825 -5.489,-13.649 -8.233,-20.474c-0,2.73 1.372,6.825 2.744,15.014Z" style="fill:#f1e300;fill-rule:nonzero;"/><path d="M3438.185,1627.368c0,0 0,-1.365 0,0Z" style="fill:#f1e300;fill-rule:nonzero;"/><path d="M3748.301,1657.396c-2.744,0 -4.117,1.365 -5.489,1.365c2.744,-1.365 -12.35,-1.365 5.489,-1.365Z" style="fill:#f1e300;fill-rule:nonzero;"/><path d="M4142.121,2122.843l0,-2.73l0,2.73Z" style="fill:#f1e300;fill-rule:nonzero;"/></g><g><path d="M3218.634,3243.464c0,0 0,1.365 0,0c0,1.365 0,1.365 0,0Z" style="fill:#1eb7ca;fill-rule:nonzero;"/><path d="M2926.357,3422.272c1.372,1.365 1.372,1.365 0,0Z" style="fill:#1eb7ca;fill-rule:nonzero;"/><path d="M2920.868,3429.096l1.372,0l-1.372,0Z" style="fill:#1eb7ca;fill-rule:nonzero;"/><path d="M4157.215,3130.173c-1.372,0 0,0 0,0Z" style="fill:#1eb7ca;fill-rule:nonzero;"/><path d="M4155.843,3130.173c1.372,0 1.372,0 0,0c1.372,0 0,0 0,0Z" style="fill:#1eb7ca;fill-rule:nonzero;"/><path d="M4155.843,3130.173l1.372,0l-1.372,0Z" style="fill:#1eb7ca;fill-rule:nonzero;"/><path d="M4100.955,2993.679c0,0 0,1.365 0,0c0,1.365 0,0 0,0Z" style="fill:#1eb7ca;fill-rule:nonzero;"/><path d="M4100.955,2995.044l1.372,0l-1.372,0Z" style="fill:#1eb7ca;fill-rule:nonzero;"/><path d="M2916.752,3433.191c0,0 1.372,1.365 0,0c1.372,1.365 1.372,1.365 0,0Z" style="fill:#1eb7ca;fill-rule:nonzero;"/><path d="M2767.183,4047.417c1.372,-6.825 0,-12.285 0,-10.92c1.372,-2.73 0,-10.92 2.744,-15.014c1.372,9.555 0,20.474 -2.744,32.759c0,2.73 1.372,0 1.372,0c-1.372,8.19 -4.117,17.744 -5.489,12.285c2.744,-8.19 1.372,-10.92 4.117,-19.109Z" style="fill:#1eb7ca;fill-rule:nonzero;"/><path d="M2793.254,4145.693c-1.372,-1.365 -4.117,-2.73 -5.489,-4.095c1.372,1.365 4.117,2.73 5.489,4.095Z" style="fill:#1eb7ca;fill-rule:nonzero;"/><path d="M2786.393,3838.58c0,1.365 0,1.365 0,0Z" style="fill:#1eb7ca;fill-rule:nonzero;"/><path d="M2797.371,4147.058c1.372,1.365 4.117,2.73 5.489,2.73c-2.744,0 -5.489,-1.365 -5.489,-2.73Z" style="fill:#1eb7ca;fill-rule:nonzero;"/><path d="M2889.308,3474.14c-1.372,2.73 -1.372,4.095 -1.372,5.46c0,-2.73 -10.978,13.649 1.372,-5.46Z" style="fill:#1eb7ca;fill-rule:nonzero;"/><path d="M2793.254,4144.328c0,1.365 1.372,1.365 2.744,2.73c0,0 -1.372,-1.365 -2.744,-2.73Z" style="fill:#1eb7ca;fill-rule:nonzero;"/><path d="M4131.143,3800.362l0,-19.109l0,19.109Z" style="fill:#1eb7ca;fill-rule:nonzero;"/><path d="M4132.515,3723.925l0,-10.92c0,-1.365 0,-1.365 1.372,-1.365c0,2.73 -1.372,6.825 -1.372,12.285Z" style="fill:#1eb7ca;fill-rule:nonzero;"/><path d="M4153.098,3034.627c0,0 -1.372,0 0,0Z" style="fill:#1eb7ca;fill-rule:nonzero;"/><path d="M4140.748,3633.838c0,-1.365 0,-2.73 1.372,-4.095c-1.372,2.73 -1.372,4.095 -1.372,4.095Z" style="fill:#1eb7ca;fill-rule:nonzero;"/><path d="M2964.779,3381.323c0,1.365 -1.372,1.365 0,0l0,-2.73l0,2.73Z" style="fill:#1eb7ca;fill-rule:nonzero;"/><path d="M4157.215,3404.527c1.372,0 1.372,0 0,0Z" style="fill:#1eb7ca;fill-rule:nonzero;"/><path d="M4155.843,3404.527c0,0 1.372,0 0,0l4.117,0l-4.117,0Z" style="fill:#1eb7ca;fill-rule:nonzero;"/><path d="M3270.778,3236.639c-1.372,0 -1.372,-1.365 0,0c-1.372,-1.365 1.372,-1.365 1.372,-1.365l-1.372,1.365c0,-1.365 0,0 0,0Z" style="fill:#1eb7ca;fill-rule:nonzero;"/><path d="M3272.15,3235.274l-1.372,0l1.372,0Z" style="fill:#1eb7ca;fill-rule:nonzero;"/><path d="M3523.261,3213.435l-5.489,0l5.489,0Z" style="fill:#1eb7ca;fill-rule:nonzero;"/><path d="M2767.183,4085.635c0,-5.46 -1.372,-2.73 -1.372,1.365c0,12.285 4.117,17.744 4.117,17.744c0,-2.73 -1.372,-5.46 -1.372,-9.555c2.744,4.095 4.117,13.649 8.233,23.204c4.117,9.555 10.978,19.109 19.211,24.569c-1.372,-1.365 -2.744,-4.095 -4.117,-5.46c-6.861,-5.46 -12.35,-12.285 -16.466,-21.839c-15.094,-32.759 -6.861,-76.437 -4.117,-110.561l0,-1.365c-1.372,1.365 -2.744,2.73 -2.744,2.73l0,5.46l-2.744,4.095l1.372,-10.92c-1.372,-1.365 -1.372,-6.825 -1.372,-20.474l4.117,-19.109l-1.372,-6.825l-2.744,16.379c0,-9.555 1.372,-15.014 4.117,-21.839c0,-1.365 -1.372,-4.095 0,-8.19l5.489,-19.109c-1.372,-2.73 -4.117,8.19 -2.744,-4.095c2.744,-9.555 1.372,9.555 4.117,-5.46c0,-9.555 -1.372,-6.825 1.372,-17.744c0,-1.365 -1.372,0 -2.744,5.46c2.744,-9.555 4.117,-25.934 6.861,-31.394c0,-9.555 5.489,-32.759 2.744,-32.759c1.372,-2.73 5.489,-16.379 6.861,-25.934c-6.861,16.379 5.489,-34.124 1.372,-30.029c5.489,-12.285 9.605,-43.678 16.466,-65.517c0,1.365 -1.372,4.095 -1.372,5.46c2.744,-12.285 2.744,-16.379 2.744,-23.204c2.744,-1.365 8.233,-19.109 10.978,-30.029c1.372,-15.014 -5.489,8.19 -6.861,2.73c1.372,1.365 8.233,-25.934 8.233,-20.474c1.372,-12.285 1.372,-9.555 0,-16.379c4.117,-1.365 2.744,-10.92 6.861,-19.109c2.744,-16.379 -2.744,-5.46 2.744,-23.204c1.372,-8.19 -4.117,6.825 -4.117,6.825c4.117,-19.109 4.117,-8.19 6.861,-10.92c6.861,-21.839 1.372,-10.92 1.372,-19.109c5.489,-13.649 10.978,-23.204 13.722,-32.759c0,-1.365 0,-2.73 -1.372,-1.365c6.861,-13.649 17.839,-40.948 30.188,-54.598c0,-1.365 0,-1.365 1.372,-2.73c0,2.73 0,4.095 1.372,4.095c4.117,-6.825 9.605,-12.285 10.978,-16.379c-2.744,4.095 -4.117,4.095 -5.489,5.46c1.372,-2.73 4.117,-4.095 5.489,-6.825c2.744,-8.19 -8.233,9.555 -9.605,8.19c2.744,-2.73 5.489,-6.825 8.233,-9.555l-30.188,19.109l37.049,-38.218l2.744,-2.73c2.744,-2.73 4.117,-5.46 6.861,-9.555l-1.372,-1.365c0,0 1.372,0 1.372,1.365l-1.372,0c1.372,1.365 1.372,0 1.372,0c0,0 -1.372,0 -1.372,-1.365l1.372,1.365l1.372,0c1.372,0 0,0 0,0l-1.372,-1.365l1.372,0c0,0 -1.372,0 -1.372,-1.365l1.372,1.365l-1.372,-1.365l1.372,1.365c0,0 1.372,0 1.372,1.365l-1.372,-1.365l1.372,0l-1.372,-1.365l1.372,1.365l-2.744,-2.73l1.372,1.365l-1.372,-1.365c1.372,0 1.372,0 1.372,1.365l-2.744,-2.73l4.117,4.095l-2.744,-1.365c0,0 -1.372,-1.365 0,0l-1.372,-1.365c0,0 -1.372,-1.365 1.372,1.365c-1.372,-1.365 0,0 1.372,0l-1.372,-1.365c1.372,1.365 2.744,1.365 2.744,2.73c0,0 -1.372,-1.365 -1.372,0l1.372,0l-1.372,-1.365l1.372,0l-1.372,-1.365c1.372,0 1.372,1.365 1.372,1.365c0,0 -1.372,0 -1.372,-1.365c-1.372,-1.365 -1.372,-1.365 -2.744,-2.73c1.372,1.365 2.744,2.73 2.744,2.73c-1.372,-1.365 0,0 0,0c1.372,1.365 1.372,1.365 2.744,2.73c1.372,0 1.372,1.365 0,0l1.372,1.365c-1.372,-1.365 -2.744,-2.73 -2.744,-2.73c1.372,0 0,0 2.744,2.73l-1.372,-1.365l1.372,1.365c-1.372,-1.365 0,0 1.372,1.365c0,0 1.372,1.365 1.372,0c0,0 -1.372,-1.365 -2.744,-2.73l1.372,1.365l-1.372,-1.365l1.372,1.365l-1.372,-1.365c1.372,1.365 -1.372,-1.365 1.372,1.365l-1.372,-1.365l1.372,1.365l0,-1.365l-1.372,-1.365l1.372,1.365l-1.372,-1.365c2.744,1.365 -1.372,-1.365 2.744,1.365c-1.372,-1.365 -1.372,-1.365 -2.744,-2.73c0,0 1.372,1.365 2.744,1.365l-1.372,-1.365l1.372,1.365l-1.372,-1.365c0,0 1.372,0 1.372,1.365c1.372,0 -1.372,-1.365 -1.372,-1.365c1.372,1.365 -1.372,-1.365 0,0l-1.372,-1.365l1.372,0l1.372,1.365l-1.372,-1.365l1.372,1.365l-1.372,-1.365c0,0 -1.372,0 -1.372,-1.365c1.372,1.365 -1.372,-1.365 0,0l1.372,0c1.372,1.365 1.372,1.365 2.744,1.365l-1.372,-1.365l1.372,1.365l-1.372,-1.365l1.372,1.365c0,0 0,-1.365 -1.372,-1.365l1.372,1.365l-1.372,-1.365c1.372,1.365 0,0 1.372,0c-2.744,-2.73 1.372,0 -1.372,-2.73l1.372,1.365c1.372,1.365 0,0 0,-1.365l1.372,1.365c1.372,1.365 -1.372,-1.365 -1.372,-2.73c0,0 4.117,4.095 2.744,2.73l-1.372,-1.365c1.372,1.365 0,0 2.744,1.365l-1.372,-1.365c-1.372,-1.365 0,0 1.372,1.365l-1.372,-1.365c0,-1.365 1.372,1.365 0,0l1.372,1.365c0,-1.365 1.372,0 0,0c1.372,1.365 0,-1.365 1.372,1.365c-1.372,-2.73 -1.372,-2.73 0,-1.365c0,-1.365 0,-1.365 -1.372,-1.365c0,0 1.372,0 1.372,1.365l0,-1.365c0,0 0,1.365 1.372,-1.365c2.744,0 4.117,1.365 5.489,2.73c1.372,-1.365 2.744,-2.73 2.744,-4.095c1.372,-1.365 1.372,-1.365 1.372,-2.73c2.744,-5.46 5.489,-10.92 13.722,-20.474l1.372,-1.365l-12.35,1.365l15.094,-10.92l1.372,-1.365l0,-1.365c0,-5.46 2.744,-8.19 2.744,-10.92c1.372,-2.73 2.744,-4.095 4.117,-4.095c2.744,-1.365 4.117,-2.73 5.489,-2.73l-4.117,0l9.605,-9.555c4.117,-4.095 8.233,-6.825 12.35,-10.92c6.861,-4.095 12.35,-5.46 17.839,-10.92c1.372,-1.365 5.489,-5.46 5.489,-5.46c1.372,0 1.372,-1.365 4.117,-1.365l1.372,0l0,2.73l0,-1.365c0,0 -1.372,0 0,1.365l0,4.095l0,-1.365c0,0 1.372,0 1.372,-1.365c2.744,-4.095 6.861,-6.825 9.605,-8.19l0,-2.73l6.861,-2.73c0,0 -2.744,1.365 -4.117,1.365c0,0 -1.372,0 0,0c0,0 2.744,-1.365 4.117,-2.73c13.722,-5.46 27.444,-16.379 42.538,-23.204c1.372,-1.365 4.117,-1.365 5.489,-2.73l2.744,-1.365c0,0 1.372,0 0,0l2.744,-2.73c1.372,-1.365 2.744,-1.365 4.117,-2.73c4.117,-2.73 8.233,-4.095 10.978,-5.46c1.372,-1.365 4.117,-1.365 5.489,-2.73c1.372,0 1.372,-1.365 1.372,-1.365l4.117,4.095l1.372,0l1.372,-9.555c5.489,0 12.35,-2.73 17.839,-4.095l13.722,-2.73c2.744,-1.365 5.489,-2.73 2.744,-1.365c13.722,-5.46 1.372,1.365 8.233,0l2.744,-1.365c1.372,0 0,-1.365 0,-1.365l2.744,-1.365c5.489,-2.73 10.978,-4.095 16.466,-4.095l16.466,0c4.117,-2.73 8.233,-5.46 13.722,-8.19l1.372,-1.365c0,0 -4.117,5.46 -1.372,2.73l1.372,-1.365c-1.372,2.73 0,0 0,2.73l1.372,-1.365c1.372,-1.365 0,0 0,1.365l1.372,-1.365c1.372,-1.365 -1.372,1.365 0,0l-1.372,1.365c1.372,0 0,1.365 0,0c-1.372,1.365 1.372,0 -1.372,1.365c1.372,-1.365 1.372,-1.365 2.744,-2.73l-1.372,1.365l10.978,0c0,0 5.489,-1.365 8.233,-2.73c4.117,-1.365 6.861,-2.73 10.978,-2.73l-5.489,0c10.978,-2.73 16.466,-2.73 21.955,-2.73l6.861,0l0,-1.365c0,0 -1.372,1.365 -1.372,0l-1.372,0l2.744,-4.095c13.722,0 19.211,0 28.816,-1.365c8.233,0 16.466,-1.365 24.699,-1.365c9.605,0 19.211,-1.365 28.816,-1.365l-4.117,-2.73l16.466,2.73l16.466,0c0,-1.365 1.372,-1.365 1.372,-1.365c1.372,-1.365 1.372,-1.365 2.744,-2.73c5.489,-2.73 6.861,-2.73 9.605,-2.73l6.861,0c4.117,0 8.233,1.365 15.094,1.365l0,-2.73l16.466,2.73l9.605,-2.73l10.978,1.365c-4.117,0 -9.605,0 -9.605,1.365c17.839,1.365 43.91,0 43.91,-1.365l15.094,0l0,1.365l1.372,-6.825l10.978,0c4.117,0 8.233,2.73 9.605,2.73c0,0 -1.372,-1.365 -4.117,-1.365c-1.372,0 -2.744,-1.365 -5.489,-1.365c4.117,0 5.489,1.365 6.861,1.365l9.605,0c-1.372,1.365 0,1.365 1.372,1.365l1.372,-1.365l1.372,0c1.372,0 1.372,-1.365 2.744,-1.365c1.372,0 4.117,-1.365 5.489,-1.365c4.117,-1.365 8.233,-1.365 12.35,-2.73c8.233,-1.365 17.839,-2.73 26.072,-4.095l-4.117,-1.365c30.188,-5.46 64.493,-10.92 97.426,-21.839c-10.978,4.095 -8.233,5.46 1.372,2.73l2.744,-2.73c6.861,-1.365 -9.605,4.095 4.117,1.365c12.35,-4.095 6.861,-5.46 0,-4.095c5.489,-1.365 9.605,-2.73 13.722,-5.46c0,-1.365 -2.744,0 -4.117,0c2.744,0 8.233,-4.095 13.722,-8.19l1.372,-1.365l2.744,-1.365c4.117,-2.73 2.744,-2.73 8.233,-4.095l4.117,0l0,-1.365c13.722,-4.095 24.699,-9.555 34.305,-15.014c6.861,-4.095 15.094,-9.555 21.955,-15.014l4.117,-4.095c1.372,-1.365 2.744,-1.365 4.117,-2.73l-1.372,-1.365c1.372,0 2.744,-1.365 4.117,-1.365l2.744,-1.365c1.372,0 1.372,-1.365 2.744,-1.365c1.372,-1.365 2.744,-1.365 4.117,-1.365l9.605,-9.555c9.605,-9.555 20.583,-20.474 31.56,-30.029c13.722,-10.92 5.489,-2.73 12.35,-6.825c0,-2.73 19.211,-19.109 8.233,-10.92c12.35,-9.555 19.211,-16.379 28.816,-21.839c9.605,-6.825 19.211,-12.285 37.049,-21.839c-4.117,2.73 -6.861,5.46 -5.489,4.095c6.861,-2.73 13.722,-8.19 12.35,-8.19l-1.372,1.365c13.722,-5.46 27.444,-12.285 42.538,-16.379c8.233,-2.73 15.094,-4.095 23.327,-5.46c4.117,0 8.233,-1.365 12.35,-1.365l15.094,0l0,2.73l6.861,0c6.861,0 13.722,1.365 19.211,1.365l-1.372,0l4.117,0c0,0 4.117,0 2.744,0l4.117,0c1.372,0 2.744,1.365 4.117,1.365l2.744,1.365l4.117,2.73l12.35,6.825l2.744,-4.095c0,0 1.372,-1.365 2.744,-2.73c0,0 -1.372,2.73 -2.744,2.73l1.372,-1.365c-1.372,1.365 0,1.365 0,1.365l1.372,-1.365l-1.372,1.365l0,2.73l-1.372,1.365c0,-1.365 0,0 0,0l0,-1.365l0,2.73c0,-1.365 0,-1.365 1.372,-1.365l-1.372,1.365c0,-1.365 1.372,-1.365 1.372,-1.365c0,1.365 0,1.365 -1.372,1.365l0,-1.365l0,1.365l1.372,-1.365c0,0 -1.372,1.365 -1.372,2.73l2.744,-2.73l-1.372,1.365c1.372,-1.365 -1.372,1.365 0,0l0,-1.365c0,1.365 0,1.365 -1.372,1.365l2.744,-2.73c0,0 -1.372,2.73 -2.744,4.095l1.372,-1.365c0,0 1.372,-1.365 0,0l1.372,-1.365c0,0 1.372,-1.365 -1.372,1.365c1.372,-1.365 0,0 0,0l1.372,-1.365c0,0 0,1.365 -1.372,1.365c0,-1.365 1.372,-1.365 1.372,-2.73c-1.372,1.365 -2.744,4.095 -1.372,2.73c0,1.365 -1.372,1.365 -1.372,1.365c0,0 0,-1.365 1.372,-1.365l0,1.365l1.372,0c2.744,-1.365 5.489,0 8.233,1.365c2.744,1.365 5.489,4.095 6.861,5.46l0,5.46l1.372,0c0,0 1.372,0 1.372,-1.365l1.372,1.365c1.372,1.365 2.744,1.365 4.117,2.73c2.744,1.365 6.861,4.095 9.605,5.46c5.489,4.095 13.722,8.19 17.839,17.744l0,1.365l-19.211,-20.474l23.327,38.218c-1.372,6.825 -2.744,16.379 -1.372,27.299c0,5.46 1.372,12.285 1.372,17.744c0,2.73 1.372,6.825 1.372,9.555l1.372,6.825l1.372,8.19l0,-4.095c0,2.73 1.372,5.46 1.372,9.555l-1.372,-1.365c1.372,8.19 1.372,12.285 2.744,16.379c0,1.365 1.372,4.095 1.372,5.46c0,1.365 1.372,2.73 1.372,4.095c0,0 -1.372,-2.73 -1.372,-4.095c0,-2.73 -1.372,-4.095 -1.372,0c9.605,72.342 9.605,150.144 5.489,225.216c0,2.73 0,5.46 -1.372,8.19c0,2.73 -1.372,6.825 -1.372,8.19c-1.372,5.46 -1.372,8.19 -2.744,10.92l0,5.46c-2.744,15.014 -2.744,32.759 -2.744,49.138c0,17.744 0,36.854 -4.117,55.963l-1.372,10.92l-1.372,12.285c-1.372,8.19 -2.744,16.379 -4.117,24.569c1.372,-2.73 1.372,-2.73 2.744,-8.19c0,10.92 -6.861,40.948 -8.233,40.948c-1.372,8.19 1.372,2.73 1.372,6.825c-1.372,10.92 -6.861,27.299 -5.489,34.124l0,-1.365c-1.372,9.555 -2.744,30.029 -4.117,23.204c0,9.555 -1.372,19.109 -1.372,28.664l0,25.934c-4.117,9.555 -2.744,32.759 -5.489,36.854c2.744,-1.365 1.372,34.124 1.372,47.773c1.372,-4.095 1.372,10.92 2.744,5.46c0,15.014 0,27.299 -1.372,25.934c4.117,25.934 -1.372,51.868 1.372,66.882l16.466,-28.664l-16.466,61.423c-1.372,5.46 -2.744,12.285 -2.744,17.744l0,13.649c1.372,0 4.117,4.095 5.489,5.46c2.744,2.73 4.117,6.825 4.117,9.555c1.372,5.46 2.744,10.92 4.117,17.744c1.372,-1.365 0,-6.825 -1.372,-15.014c0,-1.365 -1.372,-4.095 -1.372,-5.46c-1.372,-2.73 -1.372,-5.46 -2.744,-6.825c-1.372,-2.73 -2.744,-4.095 -5.489,-5.46l-1.372,-1.365c0,-1.365 0,-1.365 1.372,-1.365l0,1.365c-1.372,-1.365 5.489,4.095 6.861,9.555c2.744,5.46 2.744,9.555 4.117,12.285c1.372,6.825 2.744,13.649 4.117,20.474c1.372,13.649 4.117,28.664 4.117,46.408c0,9.555 1.372,-5.46 1.372,-9.555c0,19.109 -1.372,38.218 -8.233,55.963c-2.744,9.555 -8.233,17.744 -16.466,24.569c-6.861,6.825 -16.466,9.555 -26.072,10.92c0,0 4.117,0 8.233,-1.365c-6.861,2.73 -16.466,4.095 -15.094,2.73c2.744,0 4.117,0 6.861,-1.365c5.489,-2.73 -1.372,-1.365 -9.605,-1.365c-8.233,0 -17.839,-1.365 -17.839,-1.365c10.978,4.095 -32.933,0 -15.094,5.46c-4.117,0 -9.605,-1.365 -8.233,-2.73c-6.861,0 -8.233,0 -1.372,1.365c-23.327,-1.365 -15.094,-2.73 -35.677,-4.095c0,0 4.117,1.365 6.861,1.365c-10.978,-1.365 -20.583,-2.73 -38.421,-2.73c1.372,0 -1.372,1.365 4.117,1.365c-30.188,-1.365 -52.143,-4.095 -85.076,-2.73c9.605,2.73 -10.978,1.365 -13.722,4.095l-17.839,-1.365l6.861,-1.365c-15.094,0 -30.188,-1.365 -42.538,-1.365l12.35,1.365l-28.816,0l16.466,-1.365c-16.466,-1.365 1.372,-2.73 -19.211,-2.73c4.117,0 -15.094,0 -23.327,1.365c-8.233,-1.365 -16.466,-1.365 -27.444,0c-2.744,1.365 2.744,2.73 0,2.73c-8.233,-1.365 -37.049,0 -46.655,-1.365c2.744,0 4.117,1.365 2.744,2.73l-6.861,-1.365c-6.861,1.365 -8.233,1.365 -6.861,2.73c-21.955,1.365 6.861,-4.095 -19.211,-1.365l5.489,0c-26.072,1.365 -50.771,0 -74.098,2.73c-6.861,2.73 20.583,0 12.35,2.73c-34.305,0 -71.354,-1.365 -105.659,1.365l6.861,0c-4.117,-4.095 -24.699,2.73 -42.538,1.365c4.117,0 5.489,1.365 4.117,1.365c-23.327,1.365 -46.655,0 -82.332,0l4.117,1.365c-13.722,1.365 -35.677,1.365 -50.771,2.73c-4.117,-1.365 -12.35,0 -8.233,-1.365c-45.282,6.825 -86.448,0 -126.242,5.46c4.117,0 10.978,0 8.233,0l-34.305,0c2.744,-1.365 4.117,-1.365 10.978,-2.73c-4.117,-1.365 -13.722,-1.365 -21.955,-1.365c15.094,0 0,2.73 -6.861,4.095c1.372,0 -1.372,-1.365 0,-1.365c-17.839,4.095 -2.744,-2.73 -27.444,0l1.372,1.365c-9.605,0 -17.839,-1.365 -27.444,0c-4.117,1.365 9.605,0 10.978,1.365c-13.722,0 -27.444,-2.73 -39.794,0l20.583,0c-13.722,2.73 -15.094,2.73 -24.699,2.73l1.372,0l-23.327,1.365l5.489,-1.365c-17.839,-4.095 -35.677,0 -59.004,-1.365c23.327,2.73 4.117,1.365 5.489,4.095c-5.489,1.365 -15.094,1.365 -12.35,2.73c-10.978,-1.365 -17.839,1.365 -34.305,0c0,1.365 -12.35,0 -9.605,2.73c-13.722,0 2.744,-1.365 2.744,-2.73c-21.955,-1.365 -52.143,4.095 -83.704,2.73c-24.699,0 -31.56,-1.365 -50.771,-4.095c-2.744,0 -5.489,0 -8.233,-1.365c-5.489,0 8.233,2.73 8.233,2.73c-13.722,0 -24.699,-2.73 -37.049,-8.19c2.744,1.365 0,1.365 -4.117,0c-9.605,-6.825 -5.489,-5.46 -15.094,-15.014c1.372,2.73 1.372,5.46 5.489,9.555c-9.605,-9.555 -15.094,-21.839 -17.839,-34.124c-2.744,-2.73 0,8.19 1.372,12.285c-6.861,-13.649 -8.233,-38.218 -5.489,-42.313c12.35,-6.825 12.35,-4.095 12.35,-1.365Zm153.686,-653.809c0,0 -1.372,0 0,0c-1.372,0 -1.372,0 0,0Zm1241.835,-28.664c0,1.365 0,0 0,0Zm-61.749,-404.024c0,1.365 0,1.365 0,0Zm0,0c0,0 -1.372,0 0,0c-1.372,0 -1.372,0 0,0Zm-871.343,252.515c0,0 1.372,0 0,0c1.372,0 1.372,0 0,0Zm-20.583,-1.365l-1.372,0l1.372,0Zm0,0l1.372,0l-1.372,0c2.744,0 0,0 0,0Zm-215.434,434.053c-1.372,0 -1.372,0 0,0Zm216.807,-434.053l-1.372,0l1.372,0Zm-285.416,178.808c0,-1.365 0,-1.365 0,0Zm285.416,-178.808c0,0 1.372,0 0,0c-1.372,0 0,0 0,0Zm301.883,-25.934c1.372,0 1.372,0 0,0Zm587.299,-225.216c0,0 1.372,0 0,0c1.372,0 1.372,0 0,0Zm2.744,1.365c0,-1.365 0,-1.365 0,0Zm-1.372,-1.365c0,0 -1.372,0 0,0c-1.372,0 -1.372,0 0,0c-1.372,0 0,0 0,0Zm0,1.365c1.372,-1.365 0,-1.365 0,0c0,-1.365 0,-1.365 0,0Zm54.888,126.94c-1.372,1.365 0,0 0,0c1.372,0 1.372,0 0,0Zm-1.372,1.365c1.372,0 1.372,0 0,0Zm0,1.365c0,0 1.372,0 0,0c1.372,0 0,0 0,0Zm0,0c1.372,0 1.372,0 0,0Zm8.233,270.259c0,1.365 -1.372,-2.73 -1.372,-2.73l0,-1.365l0,5.46c0,0 1.372,0 1.372,1.365l1.372,0c-1.372,0 -1.372,-1.365 -1.372,-2.73c0,1.365 0,0 0,0Zm-2.744,-2.73c0,0 1.372,0 0,0Zm-1243.207,36.854c1.372,1.365 1.372,1.365 0,0Zm5.489,0c0,-1.365 0,-1.365 0,0Zm1.372,-1.365c1.372,0 1.372,0 0,0c1.372,0 0,0 0,0Zm0,-2.73c1.372,0 1.372,0 0,0Zm0,-1.365c0,1.365 1.372,1.365 0,0c1.372,1.365 0,1.365 0,0Zm42.538,-50.503c0,0 -1.372,0 0,0l-1.372,1.365l0,2.73l1.372,0l0,-4.095Zm21.955,-25.934c0,1.365 1.372,1.365 1.372,1.365l-1.372,-1.365c-1.372,0 -1.372,1.365 -1.372,1.365c1.372,0 1.372,0 1.372,-1.365l1.372,1.365l-1.372,1.365l0,1.365l1.372,-1.365c0,0 0,-1.365 1.372,-1.365c-1.372,-1.365 -2.744,-1.365 -2.744,-1.365Zm32.933,-19.109c0,1.365 0,1.365 0,0Zm9.605,-9.555l-1.372,1.365c-1.372,-1.365 2.744,1.365 2.744,1.365l-1.372,-2.73Zm9.605,-5.46l-6.861,2.73l0,1.365l0,-1.365l6.861,-2.73Zm17.839,-9.555c-1.372,1.365 1.372,1.365 4.117,-1.365c-1.372,1.365 5.489,-4.095 9.605,-8.19c-4.117,2.73 -8.233,5.46 -13.722,9.555Zm150.941,-58.693l-1.372,0l1.372,0Zm4.117,-2.73c0,-1.365 -1.372,-2.73 0,0c-1.372,1.365 -1.372,2.73 -1.372,1.365l0,1.365l0,-1.365c0,1.365 0,1.365 1.372,1.365l-1.372,-1.365c-1.372,-1.365 0,0 -1.372,0c-1.372,0 1.372,1.365 2.744,1.365l2.744,0c-2.744,-1.365 -2.744,-2.73 -2.744,-2.73Zm517.317,-85.992l2.744,0c-1.372,0 -2.744,1.365 -2.744,0Zm304.627,-170.618c1.372,-1.365 1.372,-1.365 0,0Zm2.744,-5.46c0,-1.365 0,-1.365 0,0Zm4.117,2.73l-2.744,0l0,1.365c0,1.365 5.489,-4.095 2.744,-1.365Zm57.632,9.555c0,0 0,1.365 0,0Zm0,1.365c0,0 1.372,-1.365 0,0c1.372,0 1.372,0 0,0Zm59.004,128.305l-2.744,0c1.372,1.365 -1.372,1.365 2.744,0c-2.744,1.365 -2.744,1.365 -4.117,2.73c1.372,-1.365 0,0 4.117,-2.73c-1.372,1.365 -2.744,2.73 -4.117,2.73l1.372,0c-1.372,0 0,0 0,0c1.372,0 0,0 0,0l2.744,0l1.372,1.365l-1.372,-4.095Zm4.117,279.814c-1.372,0 -1.372,1.365 -1.372,2.73l1.372,-2.73Zm-1.372,-1.365l2.744,0l-2.744,0c0,-1.365 -1.372,-1.365 -1.372,-1.365l-1.372,0l1.372,0l-5.489,0l2.744,0l4.117,1.365Zm-883.693,734.341c0,0 1.372,-1.365 0,-1.365l-12.35,0c1.372,1.365 4.117,1.365 12.35,1.365Zm-367.748,12.285l-15.094,0c1.372,0 4.117,1.365 9.605,1.365l5.489,-1.365Zm-102.915,-4.095l4.117,0c-5.489,-2.73 -10.978,-5.46 -16.466,-8.19c4.117,2.73 8.233,5.46 12.35,8.19Z" style="fill:#1eb7ca;fill-rule:nonzero;"/><path d="M3421.719,3217.53l-2.744,0l2.744,0Z" style="fill:#1eb7ca;fill-rule:nonzero;"/><path d="M3184.33,4145.693l-2.744,0l2.744,0Z" style="fill:#1eb7ca;fill-rule:nonzero;"/><path d="M3095.137,4149.788c-2.744,0 -6.861,0 -12.35,1.365l12.35,-1.365Z" style="fill:#1eb7ca;fill-rule:nonzero;"/><path d="M3027.899,4152.518c-1.372,0 -1.372,0 0,0Z" style="fill:#1eb7ca;fill-rule:nonzero;"/><path d="M4107.816,4129.314c1.372,0 1.372,0 2.744,-1.365c6.861,-2.73 2.744,0 -2.744,1.365Z" style="fill:#1eb7ca;fill-rule:nonzero;"/><path d="M3785.35,4125.219c2.744,0 6.861,0 10.978,1.365c-6.861,0 -10.978,0 -10.978,-1.365Z" style="fill:#1eb7ca;fill-rule:nonzero;"/><path d="M4131.143,3801.727l0,-2.73l0,2.73Z" style="fill:#1eb7ca;fill-rule:nonzero;"/><path d="M3810.05,4126.584l-15.094,0c5.489,0 10.978,-1.365 15.094,0Z" style="fill:#1eb7ca;fill-rule:nonzero;"/><path d="M2763.066,4087c0,0 0,-1.365 0,0l0,2.73l0,-2.73Z" style="fill:#1eb7ca;fill-rule:nonzero;"/><path d="M2763.066,4085.635l0,-4.095l0,4.095Z" style="fill:#1eb7ca;fill-rule:nonzero;"/><path d="M2763.066,4074.716l0,8.19l0,-8.19Z" style="fill:#1eb7ca;fill-rule:nonzero;"/><path d="M2850.886,4159.342c-6.861,0 -16.466,1.365 -26.072,-1.365l-1.372,-1.365c4.117,2.73 20.583,1.365 27.444,2.73Z" style="fill:#1eb7ca;fill-rule:nonzero;"/><path d="M3637.153,4133.408l-5.489,-1.365l13.722,0l-8.233,1.365Z" style="fill:#1eb7ca;fill-rule:nonzero;"/></g><path d="M3285.872,476.718c2.744,15.014 -9.605,13.649 -12.35,27.299c-4.117,0 -2.744,1.365 0,1.365c-4.117,4.095 2.744,20.474 -6.861,21.839c-9.605,5.46 -17.839,12.285 -32.933,17.744c0,-4.095 -1.372,-5.46 -1.372,0c0,-10.92 -16.466,2.73 -21.955,4.095c-2.744,-1.365 -6.861,-13.649 -4.117,-1.365c-13.722,-8.19 -27.444,9.555 -27.444,1.365c-4.117,0 -6.861,2.73 -9.605,-2.73c1.372,5.46 -2.744,5.46 -4.117,2.73c0,4.095 -1.372,5.46 -2.744,0c-13.722,6.825 -15.094,-1.365 -24.699,0c5.489,8.19 -10.978,1.365 -8.233,4.095c-1.372,1.365 -1.372,-9.555 -4.117,-12.285c1.372,8.19 -2.744,2.73 0,12.285c0,0 -1.372,-1.365 -1.372,-4.095c1.372,8.19 -6.861,-4.095 -2.744,2.73c-1.372,-2.73 -4.117,-6.825 -4.117,-2.73c-5.489,-4.095 -9.605,-6.825 -10.978,2.73c-1.372,0 -8.233,-12.285 -5.489,-2.73c-4.117,0 1.372,-15.014 -5.489,-5.46c-4.117,-8.19 -4.117,10.92 -8.233,-2.73c-1.372,10.92 -1.372,-5.46 -2.744,2.73c-1.372,0 1.372,-8.19 -1.372,-2.73c-13.722,-5.46 -9.605,4.095 -17.839,-12.285c8.233,-2.73 -2.744,0 -1.372,-4.095c-4.117,5.46 -5.489,-5.46 -2.744,-9.555c-2.744,4.095 -6.861,-6.825 0,-5.46c-10.978,-5.46 9.605,-13.649 -1.372,-16.379c2.744,-6.825 5.489,0 9.605,-1.365c-10.978,-5.46 1.372,-1.365 4.117,-6.825c-6.861,-4.095 1.372,0 1.372,-4.095c-6.861,0 -2.744,-5.46 -1.372,-8.19c4.117,8.19 5.489,0 9.605,4.095c-13.722,-10.92 9.605,-17.744 19.211,-5.46c-6.861,-12.285 9.605,-2.73 1.372,-12.285c8.233,8.19 1.372,-6.825 8.233,5.46c1.372,-4.095 -5.489,-6.825 -1.372,-1.365c1.372,8.19 -4.117,0 -5.489,1.365c0,8.19 9.605,0 15.094,1.365c0,-2.73 -1.372,-4.095 -1.372,-6.825l0,1.365l-1.372,-4.095c1.372,-1.365 4.117,-6.825 5.489,-9.555l2.744,5.46c0,-2.73 -1.372,-4.095 -1.372,-6.825c1.372,9.555 1.372,2.73 4.117,4.095c-1.372,-4.095 0,-2.73 2.744,0c0,-4.095 4.117,0 2.744,-5.46c2.744,6.825 5.489,1.365 5.489,-4.095c2.744,5.46 5.489,1.365 8.233,5.46c-2.744,-1.365 0,-4.095 0,-5.46c1.372,5.46 4.117,5.46 5.489,9.555c0,-5.46 -2.744,-5.46 -2.744,-10.92c1.372,4.095 4.117,4.095 4.117,6.825l0,-6.825c2.744,10.92 4.117,-4.095 2.744,-4.095c6.861,15.014 -1.372,-6.825 6.861,5.46l0,-2.73c2.744,4.095 4.117,-1.365 6.861,4.095l0,-1.365c-1.372,5.46 5.489,10.92 1.372,5.46c2.744,2.73 0,-1.365 -1.372,-2.73c6.861,5.46 5.489,2.73 2.744,-2.73l-1.372,2.73c-4.117,-9.555 5.489,-9.555 5.489,0c5.489,4.095 0,-12.285 4.117,-6.825c1.372,2.73 2.744,8.19 4.117,5.46c-5.489,-8.19 1.372,4.095 2.744,0c-5.489,-4.095 -1.372,-1.365 0,1.365c-4.117,-8.19 4.117,-1.365 8.233,-1.365c-2.744,-2.73 10.978,-12.285 12.35,-5.46c0,-4.095 0,-2.73 1.372,1.365c-1.372,-8.19 6.861,4.095 10.978,-2.73c-2.744,-6.825 2.744,5.46 4.117,1.365c13.722,-6.825 20.583,-2.73 34.305,-4.095c-1.372,9.555 4.117,2.73 4.117,10.92c2.744,-1.365 5.489,-4.095 4.117,0c-6.861,1.365 5.489,6.825 5.489,4.095c0,5.46 -1.372,12.285 2.744,4.095c-2.744,4.095 8.233,0 0,5.46c5.489,5.46 6.861,12.285 2.744,1.365c9.605,10.92 -5.489,16.379 1.372,15.014c-8.233,0 -4.117,4.095 1.372,0c-5.489,6.825 10.978,-4.095 4.117,4.095Zm-223.668,25.934c1.372,0 2.744,0 2.744,1.365c-0,-1.365 -0,-4.095 -2.744,-1.365Zm27.444,-28.664c0,1.365 1.372,4.095 2.744,2.73c-0,0 -1.372,-1.365 -2.744,-2.73Zm9.605,-2.73c0,1.365 0,4.095 2.744,4.095l-2.744,-4.095Zm101.542,-30.029c0,1.365 0,2.73 1.372,2.73c0,-1.365 0,-2.73 -1.372,-2.73Zm68.61,62.788c0,-1.365 -1.372,0 -1.372,-2.73c1.372,1.365 1.372,2.73 1.372,2.73Z" style="fill:#f1e300;fill-rule:nonzero;"/><path d="M3317.432,853.443c-5.489,9.555 -2.744,51.868 -12.35,79.167l2.744,-4.095c-8.233,46.408 -23.327,96.911 -41.166,146.049c8.233,-24.569 -8.233,-6.825 -4.117,5.46c-5.489,8.19 4.117,-15.014 -5.489,2.73c-6.861,17.744 -1.372,13.649 4.117,4.095c0,1.365 -16.466,32.759 -5.489,17.744c-65.865,152.874 -137.219,277.084 -157.802,425.863c-1.372,-32.759 -4.117,25.934 -1.372,9.555c-10.978,58.693 2.744,139.224 4.117,195.187l0,-2.73c6.861,106.466 39.794,237.501 15.094,371.265l-1.372,-2.73c-19.211,111.926 -139.964,247.055 -209.946,365.806l9.605,-10.92c-39.794,69.612 -64.493,150.144 -97.426,222.486c2.744,-4.095 4.117,-4.095 6.861,-10.92c-10.978,36.854 -52.143,111.926 -46.655,107.831c-5.489,9.555 -26.072,45.043 -21.955,34.124c-20.583,35.489 -57.632,85.992 -87.82,107.831c1.372,9.555 -46.655,42.313 -54.888,47.773c5.489,-2.73 -12.35,10.92 -5.489,8.19c-17.839,12.285 -34.305,23.204 -32.933,19.109c-256.6,162.429 -264.833,131.035 -411.658,279.814c0,0 4.117,-2.73 6.861,-6.825c-19.211,17.744 -9.605,2.73 -38.421,34.124c15.094,-6.825 -34.305,43.678 -5.489,23.204c-6.861,8.19 -19.211,9.555 -17.839,6.825c-6.861,1.365 -10.978,1.365 -9.605,1.365c0,0 -1.372,1.365 6.861,1.365c-42.538,9.555 -41.166,-46.408 -43.91,-31.394c1.372,-15.014 2.744,-31.394 1.372,-57.328c0,1.365 -1.372,0 -1.372,4.095c-1.372,-43.678 2.744,-75.072 -1.372,-122.845c-4.117,12.285 -5.489,-38.218 -5.489,-45.043l2.744,10.92c-1.372,-23.204 1.372,-43.678 -1.372,-64.152l-1.372,17.744l-1.372,-43.678l2.744,24.569c9.605,-47.773 -12.35,-111.926 -5.489,-171.983c-4.117,19.109 2.744,-23.204 -2.744,-16.379c-1.372,-32.759 5.489,9.555 1.372,-28.664c0,2.73 0,1.365 -1.372,8.19c-5.489,-111.926 -9.605,-117.385 -9.605,-244.325c9.605,28.664 -8.233,-45.043 6.861,-49.138c-8.233,-24.569 0,-75.072 -1.372,-113.291l-1.372,6.825c0,-19.109 -6.861,-77.802 0,-84.627c-9.605,-65.517 1.372,-126.94 -6.861,-185.633c-2.744,40.948 -1.372,-39.583 -1.372,-39.583c2.744,4.095 1.372,6.825 4.117,16.379c1.372,-6.825 1.372,-20.474 1.372,-32.759c-1.372,23.204 -4.117,0 -5.489,-9.555c2.744,-21.839 2.744,-6.825 4.117,-40.948l-1.372,1.365c0,-13.649 2.744,-60.058 -1.372,-24.569c0,-20.474 4.117,-39.583 1.372,-58.693c0,8.19 0,20.474 -1.372,30.029c-4.117,-20.474 -2.744,-21.839 -4.117,-36.854l0,1.365l0,-5.46l0,4.095c0,0 -1.372,-9.555 -1.372,-13.649l0,5.46c1.372,-8.19 -5.489,-36.854 -1.372,-15.014c4.117,-25.934 -4.117,-51.868 -1.372,-85.992c-4.117,43.678 -5.489,-15.014 -9.605,-9.555c-1.372,-15.014 2.744,-47.773 -2.744,-64.152c8.233,-2.73 -4.117,-96.911 9.605,-144.684c2.744,-10.92 4.117,-81.897 0,-47.773c-2.744,-20.474 -2.744,-35.489 -2.744,-54.598c-6.861,-4.095 1.372,-20.474 -1.372,-35.489c-1.372,4.095 -2.744,8.19 -4.117,15.014c0,-12.285 2.744,-83.262 -1.372,-36.854c0,-20.474 0,-54.598 2.744,-61.423l1.372,9.555c-6.861,1.365 -1.372,38.218 0,32.759l0,-13.649c0,1.365 1.372,2.73 1.372,5.46c-1.372,-21.839 -1.372,-42.313 -1.372,-64.152c-12.35,47.773 1.372,-25.934 -5.489,-30.029c1.372,-4.095 -1.372,-16.379 0,-21.839c8.233,80.532 1.372,23.204 2.744,-24.569c-6.861,2.73 -4.117,12.285 -8.233,19.109c-1.372,-24.569 -1.372,-55.963 -9.605,-81.897l4.117,24.569c-8.233,-32.759 -10.978,-124.21 -15.094,-107.831c0,-55.963 -10.978,-84.627 -8.233,-133.765c-4.117,24.569 -2.744,-50.503 -8.233,-43.678c4.117,-19.109 0,-66.882 2.744,-99.641c0,1.365 -1.372,5.46 -1.372,8.19c-8.233,-20.474 16.466,-110.561 -2.744,-75.072c2.744,1.365 4.117,-39.583 6.861,-31.394c-4.117,-35.489 1.372,-49.138 0,-88.721c0,-13.649 -4.117,10.92 -4.117,10.92c12.35,-40.948 2.744,-25.934 10.978,-55.963c-2.744,-12.285 5.489,-43.678 4.117,-45.043c20.583,-27.299 72.726,-12.285 100.17,-17.744c-13.722,9.555 23.327,5.46 23.327,4.095c-8.233,0 -8.233,0 -12.35,-1.365c26.072,0 10.978,-1.365 -4.117,-2.73c26.072,0 56.26,1.365 75.471,0c4.117,-4.095 -45.282,1.365 -19.211,-2.73l-30.188,2.73c38.421,-13.649 149.569,-8.19 226.412,-10.92l-10.978,-4.095c38.421,-2.73 21.955,4.095 63.121,0c-56.26,-1.365 111.148,-6.825 149.569,-6.825c32.933,-9.555 161.919,-8.19 204.457,-16.379c21.955,-2.73 1.372,1.365 12.35,2.73c12.35,0 16.466,-2.73 8.233,-2.73c38.421,0 108.403,0 149.569,-4.095l-8.233,-1.365c31.56,-1.365 35.677,5.46 64.493,2.73l-5.489,0c76.843,5.46 152.313,0 223.668,-5.46c63.121,35.489 90.565,120.115 107.031,191.092c-6.861,-19.109 17.839,94.181 8.233,116.02c1.372,-1.365 1.372,-5.46 1.372,-10.92c2.744,16.379 8.233,-0 4.117,25.934Zm-1270.651,1363.581l0,-17.744c-1.372,1.365 -2.744,10.92 0,17.744Zm-19.211,-548.708l2.744,8.19c0,-6.825 0,-15.014 1.372,-21.839c-1.372,1.365 -2.744,4.095 -4.117,13.649Zm2.744,-137.86c0,-6.825 -1.372,-12.285 -1.372,-19.109c0,4.095 -4.117,17.744 1.372,19.109Zm-4.117,-21.839c5.489,-13.649 0,-28.664 1.372,-42.313c-1.372,15.014 -1.372,30.029 -1.372,42.313Zm531.039,-955.462l-13.722,0c2.744,1.365 6.861,1.365 13.722,0Zm30.188,-1.365c-1.372,1.365 0,1.365 5.489,1.365c-2.744,0 9.605,-1.365 17.839,-2.73c-5.489,1.365 -13.722,1.365 -23.327,1.365Z" style="fill:#1eb7ca;fill-rule:nonzero;"/><path d="M3934.919,370.252c-1.372,1.365 -1.372,0 0,0c-1.372,0 0,0 0,0Z" style="fill:#1eb7ca;fill-rule:nonzero;"/><path d="M3926.686,368.887l1.372,-2.73l0,1.365l-1.372,1.365Z" style="fill:#1eb7ca;fill-rule:nonzero;"/><path d="M1939.75,843.889l1.372,-42.313c0,16.379 0,30.029 -1.372,42.313Z" style="fill:#314e9d;fill-rule:nonzero;"/><path d="M1931.517,602.293c-1.372,-21.839 -1.372,-42.313 10.978,-50.503c-8.233,9.555 -10.978,30.029 -10.978,50.503Z" style="fill:#314e9d;fill-rule:nonzero;"/><path d="M2334.942,5345.48l-26.072,96.911c4.117,-19.109 42.538,-174.713 26.072,-96.911Z" style="fill:#314e9d;fill-rule:nonzero;"/><path d="M3150.025,146.401c-1.372,0 -1.372,1.365 -2.744,1.365c1.372,1.365 2.744,1.365 4.117,1.365c0,0 0,-1.365 -1.372,-2.73Z" style="fill:#314e9d;fill-rule:nonzero;"/><path d="M3117.092,166.875l2.744,0l-2.744,0Z" style="fill:#314e9d;fill-rule:nonzero;"/><path d="M2063.247,5521.559c1.372,0 1.372,-2.73 2.744,-10.92c-1.372,4.095 -1.372,6.825 -2.744,10.92Z" style="fill:#314e9d;fill-rule:nonzero;"/><path d="M2269.076,5415.093c-1.372,2.73 -1.372,5.46 -2.744,8.19c0,-2.73 1.372,-4.095 2.744,-8.19Z" style="fill:#314e9d;fill-rule:nonzero;"/><path d="M3207.657,222.838c0,0 -1.372,1.365 -1.372,2.73l1.372,0l0,-2.73Z" style="fill:#314e9d;fill-rule:nonzero;"/><path d="M3080.043,315.655c0,0 -1.372,-2.73 0,-2.73c-1.372,0 0,2.73 0,2.73Z" style="fill:#314e9d;fill-rule:nonzero;"/><path d="M3853.96,1747.483l-1.372,1.365l1.372,-1.365Z" style="fill:#314e9d;fill-rule:nonzero;"/><path d="M3886.893,1968.604c0,1.365 -1.372,2.73 -1.372,2.73l1.372,0l0,-2.73Z" style="fill:#314e9d;fill-rule:nonzero;"/><path d="M3889.637,1989.078c-1.372,0 -2.744,2.73 0,4.095l0,-4.095Z" style="fill:#314e9d;fill-rule:nonzero;"/><path d="M3871.798,2163.791c0,0 1.372,1.365 1.372,2.73c0,-1.365 0,-1.365 -1.372,-2.73c1.372,-1.365 0,0 0,0Z" style="fill:#314e9d;fill-rule:nonzero;"/><path d="M3827.888,1776.147l0,-1.365l-1.372,0c1.372,0 1.372,0 1.372,1.365Z" style="fill:#314e9d;fill-rule:nonzero;"/><path d="M3838.866,1724.279c1.372,-1.365 -1.372,-2.73 -2.744,-4.095c0,1.365 0,2.73 -1.372,2.73c0,0 1.372,0 0,0c0,1.365 1.372,1.365 1.372,2.73c1.372,-1.365 2.744,0 2.744,-1.365Z" style="fill:#314e9d;fill-rule:nonzero;"/><path d="M3837.494,1707.899c0,1.365 -1.372,1.365 0,0c0,1.365 0,1.365 0,0Z" style="fill:#314e9d;fill-rule:nonzero;"/><path d="M3838.866,1710.629c0,0 -1.372,0 -1.372,1.365l1.372,0c-1.372,0 -2.744,1.365 -2.744,1.365c1.372,0 1.372,0 1.372,1.365c0,0 1.372,-1.365 1.372,-4.095c0,1.365 0,0 0,0Z" style="fill:#314e9d;fill-rule:nonzero;"/><path d="M3893.754,2069.61l1.372,0l0,-2.73c-1.372,0 -1.372,1.365 -1.372,2.73Z" style="fill:#314e9d;fill-rule:nonzero;"/><path d="M3840.238,1716.089l-1.372,1.365l1.372,-1.365c1.372,1.365 1.372,0 0,0Z" style="fill:#314e9d;fill-rule:nonzero;"/><path d="M4166.82,3355.389l0,2.73l1.372,0l-1.372,-2.73Z" style="fill:#314e9d;fill-rule:nonzero;"/><path d="M4194.264,3377.228l1.372,0c0,0 0,-1.365 -1.372,-2.73l0,2.73Z" style="fill:#314e9d;fill-rule:nonzero;"/><path d="M3151.397,157.321l1.372,-1.365c-1.372,0 -2.744,-1.365 -2.744,-1.365c0,1.365 1.372,2.73 1.372,2.73Z" style="fill:#314e9d;fill-rule:nonzero;"/><path d="M3166.491,162.781l0,2.73c0,0 1.372,0 1.372,-1.365c1.372,0 0,-1.365 -1.372,-1.365Z" style="fill:#314e9d;fill-rule:nonzero;"/><g><path d="M2507.838,4643.898c-12.35,43.678 -17.839,61.423 -20.583,69.612c9.605,-35.489 19.211,-70.977 28.816,-106.466c-4.117,20.474 -8.233,36.854 -8.233,36.854Z" style="fill:#314e9d;fill-rule:nonzero;"/><path d="M1930.145,5836.861c1.372,-36.854 57.632,-268.894 68.61,-339.872l-26.072,122.845c57.632,-277.084 75.471,-342.601 123.497,-576.007c0,-5.46 0,-4.095 -1.372,0c53.516,-242.96 85.076,-402.659 134.475,-625.145c-30.188,121.48 53.516,-251.15 42.538,-218.391c1.372,-5.46 4.117,-15.014 5.489,-21.839c-288.161,8.19 -205.829,-2.73 -248.367,-259.34c0,8.19 1.372,23.204 2.744,35.489c-17.839,-147.414 -19.211,-218.391 -21.955,-404.024c-4.117,-113.291 -1.372,68.247 -4.117,32.759c1.372,17.744 -1.372,-188.363 1.372,-158.334c-5.489,-174.713 0,-251.15 -4.117,-439.513c-1.372,-65.517 -1.372,57.328 -1.372,57.328c0,-405.389 -13.722,-595.116 -21.955,-966.382c1.372,20.474 2.744,24.569 4.117,19.109c-1.372,-62.788 -1.372,-116.02 -4.117,-140.589c1.372,38.218 0,42.313 0,60.058l-1.372,-65.517c-4.117,-46.408 1.372,80.532 0,91.451c-2.744,-128.305 -5.489,-277.084 -9.605,-375.36c-2.744,-20.474 5.489,229.311 0,98.276l5.489,151.509c-16.466,-191.092 -19.211,-747.99 -32.933,-1121.986l0,8.19c-1.372,-57.328 -10.978,-132.4 -9.605,-186.998c0,12.285 1.372,23.204 2.744,30.029c0,-10.92 -1.372,-23.204 -2.744,-35.489c1.372,-34.124 8.233,-58.693 24.699,-62.788l10.978,0c240.134,24.569 492.617,13.649 754.706,-6.825c-12.35,0 -52.143,2.73 1.372,-2.73c93.309,-6.825 189.363,-19.109 282.672,-23.204c-68.61,-305.748 145.453,-653.809 253.856,-200.647c10.978,53.233 9.605,54.598 8.233,49.138c-1.372,-5.46 -4.117,-17.744 0,8.19c5.489,38.218 8.233,60.058 8.233,61.423c1.372,20.474 2.744,43.678 5.489,64.152c203.085,-8.19 462.429,0 649.048,38.218l-38.421,-8.19c128.986,9.555 204.457,55.963 203.085,186.998c45.282,401.294 83.704,788.939 79.587,1192.963c-4.117,196.552 1.372,363.076 -9.605,547.343c0,17.744 1.372,34.124 1.372,49.138c-2.744,17.744 2.744,125.575 0,133.765c2.744,72.342 4.117,51.868 5.489,152.874c0,27.299 -2.744,40.948 -2.744,73.707l2.744,1.365l-1.372,45.043l2.744,24.569l0,31.394c0,-12.285 -1.372,-27.299 -1.372,-24.569c0,24.569 0,54.598 1.372,79.167c0,12.285 1.372,21.839 1.372,30.029c0,8.19 1.372,12.285 1.372,12.285l-1.372,116.02c0,-1.365 1.372,-12.285 1.372,-23.204c-1.372,39.583 2.744,2.73 0,54.598c0,-8.19 -1.372,4.095 -1.372,5.46c1.372,28.664 1.372,92.816 0,140.589l1.372,-9.555c0,85.992 -1.372,182.903 -2.744,279.814c0,-35.489 -2.744,-27.299 -4.117,1.365l2.744,10.92c-1.372,17.744 0,-30.029 -2.744,8.19c0,36.854 2.744,24.569 2.744,4.095l-1.372,43.678c0,2.73 1.372,-8.19 1.372,-10.92c-1.372,17.744 1.372,76.437 -1.372,102.371l0,2.73c-2.744,96.911 -2.744,140.589 -5.489,219.756c-1.372,1.365 -2.744,32.759 -4.117,55.963l0,57.328c-1.372,5.46 -2.744,9.555 -6.861,13.649c-2.744,4.095 -8.233,6.825 -13.722,9.555c-2.744,1.365 -5.489,1.365 -8.233,1.365l-5.489,0c-31.56,-2.73 -65.865,-4.095 -100.17,-5.46c-49.399,-2.73 -13.722,-2.73 -37.049,-4.095c-4.117,1.365 -74.098,1.365 -37.049,2.73l-87.82,0c-23.327,0 -49.399,1.365 -86.448,1.365c0,0 0,2.73 1.372,4.095c1.372,4.095 2.744,10.92 5.489,16.379c-2.744,-5.46 -4.117,-10.92 -5.489,-15.014c-1.372,-1.365 -1.372,-2.73 -1.372,-1.365c5.489,16.379 13.722,40.948 13.722,38.218l-1.372,-5.46c16.466,57.328 37.049,122.845 54.888,186.998c17.839,64.152 31.56,124.21 39.794,171.983l-1.372,-5.46c6.861,32.759 12.35,64.152 17.839,96.911c9.605,45.043 -4.117,-27.299 4.117,5.46c17.839,105.101 31.56,165.158 43.91,251.15c16.466,65.517 39.794,237.501 57.632,326.222l-2.744,-5.46c2.744,23.204 5.489,28.664 8.233,45.043c-1.372,-2.73 -5.489,-24.569 -4.117,-10.92c31.56,197.917 68.61,406.754 104.287,608.766c6.861,36.854 6.861,47.773 8.233,61.423c1.372,13.649 2.744,28.664 10.978,75.072l-1.372,-27.299c2.744,19.109 4.117,38.218 5.489,57.328c1.372,19.109 0,39.583 -5.489,60.058c-5.489,19.109 -15.094,39.583 -31.56,53.233c-15.094,15.014 -35.677,23.204 -56.26,25.934c-41.166,5.46 -83.704,-9.555 -113.892,-36.854c-30.188,-27.299 -46.655,-64.152 -59.004,-99.641c2.744,8.19 1.372,9.555 6.861,23.204c-6.861,-15.014 -16.466,-42.313 -21.955,-66.882c-2.744,-12.285 -5.489,-23.204 -8.233,-31.394c-1.372,-8.19 -2.744,-13.649 -2.744,-13.649c-5.489,-21.839 -2.744,-5.46 -6.861,-17.744c-9.605,-30.029 -17.839,-76.437 -24.699,-92.816c0,-1.365 0,2.73 1.372,8.19c-6.861,-25.934 -21.955,-84.627 -16.466,-66.882c-15.094,-53.233 -26.072,-103.736 -38.421,-146.049c-5.489,-28.664 -24.699,-91.451 -23.327,-102.371c-2.744,4.095 -26.072,-94.181 -32.933,-128.305c1.372,12.285 -8.233,-30.029 -6.861,-16.379c-9.605,-39.583 -17.839,-75.072 -15.094,-68.247c-20.583,-70.977 -31.56,-144.684 -46.655,-184.268c-26.072,-116.02 -49.399,-223.851 -71.354,-328.952c-2.744,4.095 26.072,116.02 21.955,111.926c-21.955,-99.641 -31.56,-156.969 -54.888,-255.245c-6.861,-25.934 1.372,15.014 4.117,23.204c-21.955,-99.641 -43.91,-191.092 -63.121,-279.814c0,0 0,2.73 1.372,6.825c1.372,4.095 1.372,8.19 2.744,12.285c-4.117,-17.744 -9.605,-40.948 -8.233,-38.218l4.117,16.379c8.233,27.299 -10.978,-69.612 -10.978,-73.707c2.744,30.029 -20.583,-87.357 -15.094,-39.583c-2.744,-10.92 -5.489,-25.934 -2.744,-23.204c-4.117,-16.379 -5.489,-21.839 -2.744,-4.095c-5.489,-28.664 -8.233,-39.583 -9.605,-47.773c-1.372,-4.095 -1.372,-8.19 -2.744,-13.649c-1.372,-4.095 -2.744,-15.014 -4.117,-17.744l-8.233,0l5.489,0l0,2.73l0,-2.73l-15.094,0c-6.861,0 -15.094,0 -23.327,1.365c-16.466,1.365 -35.677,1.365 -59.004,4.095c2.744,0 -1.372,1.365 6.861,0c-39.794,2.73 -74.098,4.095 -109.775,5.46c-37.049,1.365 -75.471,4.095 -120.753,5.46c13.722,1.365 5.489,1.365 -5.489,2.73l-10.978,0c-1.372,0 -1.372,0 -1.372,1.365l0,8.19l-2.744,49.138l0,-20.474c-1.372,43.678 -5.489,81.897 -6.861,118.75l2.744,-32.759l-5.489,80.532l1.372,-46.408c-4.117,43.678 -2.744,-5.46 -5.489,53.233c1.372,-12.285 -2.744,43.678 -2.744,65.517c-2.744,21.839 -4.117,43.678 -6.861,75.072c0,8.19 2.744,-6.825 4.117,-1.365c-4.117,20.474 -8.233,101.006 -12.35,128.305c1.372,-8.19 2.744,-9.555 2.744,-6.825l-2.744,17.744c-1.372,20.474 -1.372,23.204 0,20.474c-5.489,60.058 -1.372,-19.109 -6.861,51.868c0,-5.46 0,-2.73 1.372,-15.014c-6.861,72.342 -15.094,137.86 -21.955,204.742c0,19.109 6.861,-57.328 6.861,-35.489c-10.978,95.546 -23.327,196.552 -34.305,288.004l1.372,-17.744c-5.489,12.285 -6.861,68.247 -16.466,114.655c2.744,-10.92 4.117,-15.014 4.117,-10.92c-5.489,31.394 -10.978,64.152 -24.699,98.276c-6.861,16.379 -16.466,34.124 -28.816,51.868c-12.35,16.379 -30.188,32.759 -52.143,42.313c4.117,-1.365 8.233,-2.73 10.978,-5.46c-8.233,5.46 -17.839,10.92 -30.188,13.649c-12.35,2.73 -24.699,4.095 -38.421,1.365c-12.35,-2.73 -24.699,-9.555 -34.305,-19.109c-9.605,-9.555 -15.094,-19.109 -19.211,-28.664c-4.117,-12.285 -8.233,-35.489 -4.117,-21.839c-8.233,-31.394 -6.861,-61.423 -5.489,-91.451c1.372,-30.029 5.489,-58.693 8.233,-87.357c5.489,-57.328 9.605,-113.291 12.35,-167.888c-1.372,13.649 -2.744,31.394 -2.744,20.474l8.233,-92.816c1.372,8.19 0,12.285 0,32.759c1.372,-12.285 4.117,-38.218 6.861,-61.423c-4.117,42.313 -2.744,0 -1.372,-19.109c0,2.73 1.372,-2.73 1.372,-1.365c1.372,-49.138 4.117,-8.19 6.861,-75.072l-1.372,4.095c2.744,-24.569 5.489,-47.773 6.861,-75.072c-1.372,-10.92 -2.744,25.934 -4.117,28.664c2.744,-38.218 9.605,-73.707 10.978,-109.196c-1.372,16.379 -4.117,39.583 -5.489,54.598c1.372,-36.854 1.372,-42.313 4.117,-69.612l0,2.73l4.117,-64.152l-1.372,16.379c8.233,-45.043 9.605,-92.816 16.466,-151.509l0,-1.365c-6.861,51.868 -1.372,4.095 -4.117,8.19c1.372,-16.379 2.744,-40.948 1.372,-34.124c4.117,-30.029 2.744,-50.503 9.605,-92.816c0,-1.365 2.744,-32.759 0,-25.934c4.117,-39.583 0,9.555 1.372,5.46c4.117,-30.029 5.489,-65.517 8.233,-105.101c1.372,-19.109 2.744,-39.583 4.117,-60.058c0,-4.095 1.372,-8.19 1.372,-12.285l0,-2.73l-5.489,0c-10.978,0 -21.955,-1.365 -32.933,-1.365c-68.61,-2.73 -86.448,-5.46 -142.708,-8.19l-20.583,0c-10.978,1.365 24.699,2.73 24.699,2.73l-32.933,0c-1.372,0 -4.117,0 -2.744,1.365c0,4.095 -1.372,6.825 -1.372,10.92c-2.744,16.379 -6.861,31.394 -12.35,49.138c2.744,-6.825 1.372,0 -1.372,10.92c-4.117,13.649 -6.861,17.744 -9.605,23.204c-1.372,1.365 -1.372,2.73 -2.744,5.46c0,2.73 0,4.095 -1.372,6.825l0,1.365c1.372,-2.73 2.744,-5.46 4.117,-8.19c-1.372,4.095 -2.744,6.825 -5.489,10.92c-90.565,260.705 -177.013,618.321 -245.623,885.85c-5.489,28.664 16.466,-62.788 16.466,-62.788c-41.166,178.808 -57.632,251.15 -109.775,444.972c5.489,-16.379 12.35,-38.218 21.955,-73.707c-15.094,61.423 -120.753,404.024 -48.027,177.443c-23.327,77.802 -74.098,230.676 -98.798,292.098c1.372,-6.825 4.117,-15.014 8.233,-24.569c-20.583,57.328 -45.282,113.291 -74.098,166.523c-128.986,49.138 -171.524,-110.561 -153.686,-219.756c-5.489,46.408 -6.861,55.963 9.605,-31.394Zm842.527,-638.795c0,1.365 1.372,2.73 1.372,1.365c1.372,-10.92 1.372,-23.204 2.744,-34.124c-1.372,2.73 -2.744,10.92 -4.117,32.759Zm-790.383,707.042c0,5.46 -1.372,9.555 -1.372,15.014c0,-2.73 6.861,-15.014 1.372,-15.014Zm16.466,-83.262c-1.372,4.095 -1.372,8.19 -2.744,12.285c-0,0 4.117,-8.19 2.744,-12.285Zm323.838,-1688.438l-96.054,0l96.054,0Zm-223.668,-182.903c0,0 -1.372,-34.124 -4.117,-43.678c1.372,15.014 2.744,28.664 4.117,43.678Zm802.733,-3424.649c-9.605,1.365 1.372,1.365 28.816,-1.365c-10.978,1.365 20.583,-2.73 53.516,-5.46c-24.699,2.73 -52.143,4.095 -82.332,6.825Zm349.909,-39.583c-4.117,1.365 0,-10.92 -1.372,-5.46c1.372,-1.365 -1.372,-6.825 1.372,-5.46c0,-6.825 -2.744,-13.649 0,-19.109c-2.744,0 -2.744,-6.825 -1.372,-9.555c-1.372,1.365 -1.372,-2.73 -2.744,-1.365c0,-2.73 0,-5.46 1.372,-5.46c-4.117,-13.649 0,-24.569 -1.372,-38.218c-2.744,0 0,8.19 -2.744,8.19c0,-4.095 4.117,-20.474 0,-17.744c0,-6.825 -2.744,-13.649 -1.372,-19.109c0,-1.365 -1.372,-2.73 0,-2.73c0,5.46 4.117,-4.095 4.117,-4.095c-4.117,2.73 -1.372,-6.825 -6.861,-1.365c0,-1.365 0,-1.365 1.372,-1.365c0,-1.365 -1.372,-1.365 -1.372,0c0,-4.095 1.372,-2.73 1.372,-6.825l-1.372,1.365c1.372,-2.73 1.372,-4.095 1.372,-8.19c0,0 -1.372,0 -1.372,1.365c-1.372,-5.46 1.372,-10.92 0,-16.379c-2.744,2.73 -1.372,-1.365 -4.117,-1.365l0,-4.095l1.372,1.365c0,-2.73 1.372,-5.46 0,-8.19l0,-2.73l1.372,2.73c1.372,-2.73 2.744,0 1.372,-4.095c0,1.365 0,-2.73 -2.744,-4.095c1.372,-1.365 1.372,-8.19 -2.744,-4.095c1.372,-1.365 -1.372,-6.825 1.372,-9.555c-8.233,-5.46 1.372,-1.365 -1.372,-5.46l0,1.365c-4.117,-16.379 -5.489,-12.285 -8.233,-30.029c1.372,-1.365 -2.744,-4.095 -2.744,-8.19c-2.744,4.095 -2.744,-9.555 -4.117,-15.014l0,1.365c0,-2.73 -6.861,-10.92 -2.744,-12.285c-8.233,-6.825 -2.744,-16.379 -9.605,-21.839c0,5.46 -1.372,-5.46 -1.372,-5.46c1.372,0 1.372,0 2.744,1.365l0,-4.095c0,2.73 -2.744,1.365 -4.117,0c2.744,2.73 0,-17.744 -2.744,-9.555c-1.372,-2.73 0,-6.825 -2.744,-8.19c0,1.365 1.372,2.73 1.372,4.095c-4.117,-1.365 -4.117,-2.73 -6.861,-5.46c5.489,-1.365 -1.372,-8.19 -1.372,-10.92c-2.744,9.555 -6.861,-5.46 -10.978,-4.095c2.744,-5.46 -15.094,-12.285 -17.839,-20.474c-2.744,2.73 -1.372,4.095 -8.233,1.365c0,4.095 -8.233,-4.095 -4.117,2.73c-1.372,-1.365 -4.117,-2.73 -6.861,-2.73c0,1.365 1.372,1.365 2.744,2.73c-1.372,0 -2.744,0 -5.489,-1.365c-6.861,2.73 -13.722,5.46 -20.583,8.19c0,1.365 1.372,1.365 1.372,2.73c0,1.365 -1.372,4.095 -2.744,5.46c-1.372,2.73 -2.744,1.365 -4.117,1.365l0,2.73l-4.117,0c0,1.365 2.744,1.365 1.372,2.73c-2.744,0 0,-2.73 -2.744,-2.73c0,2.73 1.372,2.73 -1.372,2.73c-1.372,0 -2.744,2.73 -4.117,2.73c0,2.73 -4.117,4.095 -1.372,5.46c-1.372,0 -4.117,1.365 -4.117,2.73c4.117,0 -2.744,5.46 1.372,6.825c-4.117,0 -5.489,6.825 -8.233,9.555c0,0 1.372,0 1.372,-1.365l0,5.46c-2.744,0 -4.117,2.73 -6.861,4.095c1.372,4.095 4.117,-1.365 5.489,1.365c-2.744,-1.365 -2.744,4.095 -4.117,2.73c1.372,2.73 0,1.365 2.744,4.095c-2.744,0 -1.372,1.365 -4.117,2.73c2.744,5.46 1.372,5.46 4.117,2.73c0,4.095 -2.744,1.365 -4.117,1.365c2.744,8.19 2.744,2.73 -1.372,10.92l1.372,0c-4.117,4.095 -1.372,13.649 -8.233,9.555c0,1.365 -1.372,2.73 0,4.095c2.744,1.365 1.372,-2.73 2.744,-2.73c-1.372,2.73 -2.744,6.825 -2.744,9.555c2.744,0 1.372,-5.46 2.744,-2.73l0,-4.095c6.861,-2.73 4.117,9.555 0,12.285c-2.744,6.825 5.489,5.46 2.744,10.92c-1.372,1.365 -4.117,1.365 -2.744,5.46l2.744,-1.365c0,5.46 -4.117,2.73 -1.372,8.19c2.744,-5.46 2.744,0 0,2.73l2.744,0c0,5.46 -1.372,10.92 -1.372,17.744c5.489,-2.73 2.744,27.299 5.489,25.934c1.372,2.73 -1.372,0 -1.372,1.365c0,1.365 1.372,2.73 1.372,1.365c-1.372,5.46 -4.117,15.014 -1.372,20.474c0,2.73 -2.744,2.73 -2.744,5.46c1.372,9.555 -1.372,19.109 2.744,25.934c-2.744,1.365 1.372,9.555 -2.744,9.555c2.744,6.825 5.489,9.555 1.372,16.379l2.744,0l-2.744,2.73c1.372,0 2.744,1.365 2.744,4.095c-4.117,-4.095 0,8.19 1.372,6.825l-1.372,8.19l1.372,0c1.372,1.365 2.744,2.73 -1.372,2.73c1.372,1.365 1.372,6.825 1.372,9.555l1.372,0l0,20.474c-1.372,-2.73 -2.744,-1.365 -4.117,0l2.744,1.365c-1.372,1.365 -1.372,-2.73 -2.744,0c0,1.365 1.372,1.365 2.744,1.365l-1.372,1.365c0,0 1.372,0 1.372,-1.365c2.744,9.555 -4.117,21.839 -2.744,30.029c0,1.365 -1.372,1.365 -1.372,2.73c1.372,-1.365 2.744,-1.365 2.744,-2.73c2.744,0 4.117,0 9.605,1.365c-4.117,2.73 1.372,0 1.372,0c26.072,-2.73 45.282,-4.095 74.098,-8.19c10.978,5.46 39.794,-8.19 56.26,-1.365l-1.372,-2.73c6.861,1.365 12.35,0 19.211,0l2.744,-1.365c-2.744,1.365 -2.744,0 0,0Zm871.343,2851.372c0,5.46 -1.372,-19.109 -1.372,-34.124l0,43.678c0,5.46 1.372,1.365 1.372,-9.555Zm-274.439,2384.561c0,-1.365 2.744,5.46 4.117,10.92c-1.372,-4.095 -2.744,-8.19 -4.117,-13.649c-1.372,-2.73 -1.372,-1.365 0,2.73Zm-219.551,-877.66l-1.372,-16.379c-1.372,-2.73 -2.744,-4.095 -2.744,-1.365c1.372,5.46 2.744,10.92 4.117,17.744Zm-20.583,-91.451c0,0 1.372,-1.365 0,-9.555l-4.117,-5.46c1.372,4.095 2.744,9.555 4.117,15.014Zm-74.098,-323.492c1.372,0 1.372,-1.365 0,-10.92c-1.372,0 -1.372,0 -2.744,1.365c1.372,2.73 2.744,6.825 2.744,9.555Zm-56.26,-271.624l0,4.095c1.372,6.825 2.744,15.014 4.117,21.839c1.372,8.19 2.744,15.014 5.489,21.839l-1.372,-5.46c-2.744,5.46 6.861,21.839 8.233,36.854c0,-4.095 1.372,-5.46 1.372,-4.095c5.489,20.474 8.233,40.948 13.722,70.977l0,-4.095c4.117,10.92 6.861,31.394 10.978,43.678c0,4.095 1.372,10.92 0,6.825c13.722,38.218 13.722,75.072 26.072,109.196c-1.372,-4.095 -1.372,-9.555 -1.372,-6.825l5.489,30.029c-2.744,-1.365 -1.372,-4.095 -4.117,-9.555c0,4.095 1.372,12.285 2.744,19.109c-1.372,-13.649 2.744,0 4.117,5.46c-1.372,-1.365 -1.372,1.365 -1.372,1.365c6.861,15.014 -2.744,2.73 4.117,24.569l0,-1.365c1.372,8.19 1.372,15.014 4.117,24.569c2.744,2.73 -1.372,-8.19 0,-9.555c2.744,12.285 1.372,24.569 6.861,34.124c-1.372,-5.46 -2.744,-12.285 -2.744,-17.744c4.117,10.92 4.117,12.285 6.861,21.839l0,-1.365l5.489,20.474l-1.372,-5.46c-1.372,16.379 5.489,30.029 8.233,51.868c-1.372,-20.474 1.372,-4.095 2.744,-5.46c1.372,5.46 4.117,12.285 4.117,10.92c0,9.555 5.489,15.014 5.489,30.029c1.372,0 2.744,9.555 4.117,8.19c2.744,12.285 -1.372,-2.73 -2.744,-1.365c2.744,19.109 12.35,43.678 16.466,72.342c4.117,24.569 2.744,28.664 6.861,50.503c2.744,6.825 1.372,-6.825 1.372,-6.825c4.117,12.285 5.489,20.474 6.861,32.759c0,-2.73 1.372,0 2.744,2.73c1.372,9.555 -1.372,6.825 2.744,17.744c0,-2.73 1.372,-5.46 0,-9.555c1.372,10.92 2.744,21.839 5.489,32.759c1.372,2.73 0,-6.825 0,-10.92c2.744,12.285 6.861,32.759 5.489,36.854l-2.744,-8.19c1.372,4.095 2.744,1.365 1.372,-1.365c-1.372,-10.92 -4.117,-15.014 -5.489,-15.014l1.372,8.19c-5.489,-6.825 -6.861,-31.394 -10.978,-47.773l-1.372,6.825c9.605,39.583 17.839,79.167 27.444,120.115l0,1.365c1.372,-1.365 1.372,-2.73 2.744,-2.73c0,-1.365 -1.372,-2.73 -1.372,-4.095l1.372,-5.46l1.372,9.555c1.372,1.365 4.117,5.46 8.233,16.379l2.744,17.744l2.744,5.46l-4.117,-15.014c4.117,8.19 4.117,13.649 4.117,19.109c1.372,1.365 2.744,4.095 4.117,6.825l1.372,17.744c1.372,1.365 0,-8.19 4.117,2.73c0,8.19 -4.117,-6.825 -2.744,6.825c4.117,8.19 4.117,5.46 5.489,15.014c1.372,1.365 1.372,-1.365 0,-5.46c1.372,9.555 5.489,23.204 4.117,27.299c4.117,8.19 6.861,30.029 9.605,27.299c0,2.73 1.372,16.379 2.744,23.204c0,-15.014 8.233,30.029 10.978,24.569c0,10.92 8.233,39.583 10.978,58.693l0,-5.46c2.744,10.92 4.117,13.649 6.861,20.474c-2.744,1.365 1.372,19.109 1.372,28.664c5.489,12.285 1.372,-8.19 4.117,-5.46c-2.744,0 4.117,23.204 0,19.109c4.117,9.555 2.744,8.19 6.861,13.649c-2.744,2.73 1.372,9.555 1.372,17.744c5.489,13.649 4.117,2.73 6.861,19.109c2.744,6.825 0,-6.825 0,-6.825c4.117,16.379 0,8.19 -1.372,12.285c4.117,19.109 4.117,8.19 6.861,15.014c2.744,12.285 2.744,21.839 4.117,31.394c0,0 1.372,2.73 1.372,0c1.372,13.649 9.605,38.218 10.978,53.233c0,1.365 1.372,1.365 1.372,1.365c-1.372,-2.73 -2.744,-2.73 -4.117,-1.365c1.372,6.825 1.372,13.649 4.117,16.379c-1.372,-4.095 0,-5.46 0,-6.825l1.372,8.19c4.117,6.825 -1.372,-10.92 0,-10.92c2.744,15.014 5.489,32.759 8.233,45.043c2.744,1.365 -5.489,-27.299 0,-12.285l-5.489,-17.744c6.861,12.285 -2.744,-10.92 4.117,1.365c6.861,23.204 5.489,25.934 12.35,49.138c0,5.46 -2.744,-1.365 -2.744,4.095c5.489,34.124 12.35,24.569 15.094,49.138c0,6.825 -2.744,9.555 4.117,27.299l1.372,-6.825c5.489,23.204 0,13.649 6.861,36.854c0,-4.095 -4.117,-17.744 -2.744,-15.014c5.489,15.014 1.372,10.92 4.117,23.204l2.744,1.365c5.489,24.569 10.978,50.503 16.466,77.802c0,-1.365 0,-6.825 2.744,0c6.861,34.124 17.839,72.342 27.444,103.736l1.372,12.285c1.372,2.73 2.744,5.46 1.372,1.365c4.117,12.285 -1.372,1.365 0,6.825c1.372,6.825 4.117,9.555 2.744,4.095c4.117,23.204 13.722,64.152 21.955,87.357l0,-4.095c5.489,17.744 1.372,21.839 8.233,38.218l0,-2.73c10.978,39.583 21.955,83.262 41.166,106.466c0,2.73 5.489,10.92 12.35,17.744c6.861,6.825 13.722,12.285 12.35,13.649c9.605,5.46 13.722,6.825 17.839,8.19c5.489,1.365 10.978,4.095 26.072,5.46c8.233,0 12.35,4.095 21.955,2.73l0,-2.73c4.117,0 8.233,-1.365 12.35,-2.73c1.372,-1.365 2.744,-4.095 4.117,-5.46c2.744,-1.365 4.117,-2.73 6.861,-5.46c-2.744,2.73 -4.117,5.46 -4.117,5.46c5.489,-4.095 10.978,-10.92 13.722,-17.744c2.744,-6.825 2.744,-12.285 2.744,-12.285c4.117,-10.92 5.489,-23.204 5.489,-34.124c-1.372,1.365 -1.372,6.825 -1.372,10.92c2.744,-19.109 -1.372,-2.73 0,-20.474c0,2.73 1.372,-1.365 1.372,-1.365c-1.372,-8.19 -4.117,-28.664 -6.861,-43.678l-1.372,2.73c-5.489,-27.299 -9.605,-58.693 -13.722,-88.721c2.744,10.92 4.117,8.19 2.744,-1.365l-2.744,-2.73c0,-5.46 2.744,9.555 2.744,-2.73c-2.744,-10.92 -4.117,-6.825 -2.744,0l-1.372,-13.649c-1.372,-1.365 0,2.73 -1.372,4.095c0,-5.46 -6.861,-23.204 -5.489,-32.759l-1.372,-1.365c-4.117,-31.394 -6.861,-45.043 -10.978,-69.612c1.372,-1.365 0,-10.92 0,-17.744c-4.117,-17.744 -8.233,-38.218 -12.35,-61.423c-1.372,-16.379 1.372,-5.46 1.372,-12.285c-1.372,-1.365 -5.489,-23.204 -4.117,-10.92c-4.117,-27.299 -5.489,-34.124 -9.605,-68.247c1.372,4.095 2.744,8.19 2.744,5.46c-1.372,-6.825 -2.744,-13.649 -4.117,-12.285l0,1.365c-4.117,-38.218 -19.211,-87.357 -20.583,-117.385l0,1.365l-2.744,-31.394c-2.744,-15.014 0,8.19 -2.744,-1.365c-2.744,-34.124 -9.605,-53.233 -12.35,-81.897c-8.233,-20.474 -12.35,-76.437 -20.583,-105.101l1.372,1.365c0,-8.19 -2.744,-9.555 -2.744,-15.014c1.372,0 2.744,8.19 2.744,2.73c-9.605,-64.152 -23.327,-131.035 -35.677,-196.552c-4.117,-23.204 4.117,-15.014 -4.117,-43.678l-1.372,9.555c-5.489,-49.138 -16.466,-98.276 -21.955,-146.049l0,8.19c-2.744,-9.555 -6.861,-36.854 -5.489,-36.854c-1.372,-6.825 -1.372,-1.365 -2.744,-5.46c-2.744,-9.555 -2.744,-25.934 -5.489,-30.029c0,-1.365 0,2.73 0,4.095c0,-6.825 -5.489,-30.029 -2.744,-24.569c-4.117,-17.744 -5.489,-34.124 -9.605,-47.773c0,-9.555 -6.861,-30.029 -4.117,-34.124c-2.744,1.365 -8.233,-30.029 -9.605,-42.313c0,4.095 -2.744,-9.555 -2.744,-5.46c-2.744,-12.285 -4.117,-24.569 -2.744,-23.204c-8.233,-23.204 -6.861,-47.773 -13.722,-60.058c-6.861,-38.218 -12.35,-72.342 -20.583,-106.466c-2.744,1.365 8.233,36.854 4.117,36.854c-5.489,-32.759 -8.233,-51.868 -16.466,-83.262c-2.744,-8.19 0,5.46 0,8.19c-6.861,-32.759 -15.094,-61.423 -21.955,-90.086c0,0 0,2.73 1.372,6.825c-1.372,-5.46 -4.117,-12.285 -2.744,-12.285l1.372,5.46c4.117,8.19 -1.372,-23.204 -1.372,-24.569c-1.372,10.92 -8.233,-27.299 -9.605,-10.92c-1.372,-4.095 -1.372,-8.19 0,-8.19c-1.372,-5.46 -2.744,-6.825 -2.744,-1.365c-4.117,-20.474 -1.372,-13.649 -6.861,-31.394l0,5.46c-1.372,-9.555 -2.744,-19.109 -8.233,-34.124c0,1.365 -1.372,0 0,4.095c-8.233,-25.934 -10.978,-45.043 -20.583,-72.342c0,9.555 -4.117,-9.555 -6.861,-9.555c-1.372,-2.73 -1.372,-4.095 -1.372,-5.46l0,-1.365l-1.372,0c1.372,0 2.744,-1.365 2.744,0c0,-1.365 -1.372,-1.365 -1.372,-1.365l-12.35,0c-6.861,0 -12.35,0 -19.211,1.365l10.978,0l-26.072,1.365l15.094,-1.365c-13.722,0 1.372,-2.73 -17.839,-1.365c4.117,0 -13.722,1.365 -21.955,2.73c-6.861,0 -13.722,-1.365 -24.699,0c-2.744,1.365 2.744,2.73 0,2.73c-6.861,-1.365 -32.933,1.365 -41.166,0c2.744,0 2.744,1.365 2.744,1.365l-5.489,-1.365c-6.861,1.365 -6.861,1.365 -6.861,2.73c-19.211,1.365 5.489,-4.095 -16.466,-1.365l4.117,0c-23.327,2.73 -45.282,1.365 -65.865,4.095c-5.489,2.73 19.211,0 12.35,1.365c-8.233,0 -15.094,0 -23.327,1.365l-4.117,6.825Zm-658.653,989.586c0,4.095 0,6.825 -1.372,10.92l2.744,-9.555c0,-2.73 -1.372,-4.095 -1.372,-1.365Zm2.744,-47.773c0,0 1.372,0 2.744,-5.46l-2.744,-4.095c1.372,2.73 1.372,6.825 0,9.555Zm2.744,-23.204c0,-8.19 2.744,-17.744 1.372,-23.204c-1.372,8.19 -1.372,15.014 -1.372,23.204Zm15.094,-186.998c0,-1.365 1.372,-4.095 1.372,-6.825l-1.372,4.095l0,5.46c1.372,1.365 2.744,2.73 4.117,-5.46c-2.744,0 -4.117,0 -4.117,2.73Zm9.605,-73.707l1.372,-2.73c0,8.19 -1.372,19.109 -1.372,27.299c-1.372,2.73 -1.372,6.825 -2.744,4.095c2.744,25.934 -6.861,47.773 -4.117,69.612c0,-2.73 1.372,-6.825 1.372,-4.095l-2.744,19.109c-1.372,-1.365 -1.372,-2.73 -1.372,-6.825c-1.372,2.73 -2.744,8.19 -2.744,12.285c1.372,-8.19 2.744,0 2.744,4.095l-1.372,0c1.372,9.555 -2.744,1.365 -2.744,15.014l1.372,0c-1.372,5.46 -2.744,9.555 -2.744,15.014c1.372,2.73 1.372,-5.46 2.744,-5.46c-1.372,8.19 -4.117,15.014 -4.117,21.839c1.372,-2.73 1.372,-8.19 1.372,-10.92c1.372,8.19 1.372,8.19 1.372,13.649l0,12.285l0,-2.73c-5.489,9.555 -2.744,19.109 -6.861,31.394c4.117,-12.285 1.372,-1.365 4.117,-2.73c0,2.73 0,8.19 1.372,6.825c-2.744,5.46 0,9.555 -2.744,19.109c0,0 0,6.825 1.372,5.46c-1.372,8.19 -1.372,-1.365 -1.372,-1.365c-2.744,12.285 0,28.664 -4.117,46.408c-2.744,15.014 -5.489,17.744 -6.861,31.394c0,5.46 2.744,-4.095 2.744,-4.095c0,8.19 0,13.649 -1.372,20.474c1.372,-1.365 1.372,0 1.372,2.73c0,5.46 -2.744,4.095 -2.744,10.92c1.372,-1.365 2.744,-2.73 2.744,-5.46c-1.372,6.825 -2.744,13.649 -4.117,20.474c1.372,1.365 2.744,-4.095 2.744,-6.825c-1.372,8.19 -2.744,20.474 -4.117,23.204l0,-5.46c0,2.73 1.372,1.365 1.372,0c1.372,-6.825 0,-9.555 0,-10.92l-1.372,5.46c-4.117,-5.46 2.744,-20.474 2.744,-30.029l-2.744,4.095c-1.372,25.934 -4.117,50.503 -5.489,76.437l0,1.365c1.372,0 2.744,-1.365 2.744,-1.365l0,-2.73l2.744,-2.73l-1.372,5.46c1.372,1.365 2.744,4.095 2.744,10.92l-2.744,10.92l1.372,4.095l1.372,-9.555c1.372,5.46 0,8.19 -1.372,12.285c1.372,1.365 1.372,2.73 1.372,5.46l-4.117,10.92c1.372,1.365 2.744,-4.095 2.744,2.73c-1.372,5.46 -2.744,-5.46 -4.117,2.73c1.372,5.46 2.744,4.095 0,9.555c1.372,1.365 1.372,0 1.372,-2.73c-1.372,5.46 -1.372,15.014 -4.117,17.744c1.372,5.46 -1.372,19.109 1.372,17.744c-1.372,1.365 -2.744,9.555 -2.744,15.014c4.117,-9.555 0,19.109 4.117,16.379c-2.744,6.825 -1.372,24.569 0,35.489l0,-2.73c1.372,6.825 2.744,8.19 4.117,10.92c-2.744,1.365 0,10.92 2.744,15.014c6.861,4.095 0,-5.46 2.744,-5.46c-1.372,0 0,2.73 1.372,5.46c1.372,2.73 2.744,4.095 1.372,4.095c5.489,1.365 4.117,1.365 6.861,0c0,4.095 4.117,1.365 8.233,4.095c6.861,-2.73 1.372,-2.73 9.605,-4.095c2.744,-2.73 -4.117,-1.365 -4.117,-1.365c8.233,-2.73 4.117,1.365 6.861,1.365c9.605,-4.095 4.117,-4.095 5.489,-6.825c5.489,-2.73 12.35,-5.46 16.466,-9.555l0,-1.365c6.861,-4.095 15.094,-17.744 21.955,-23.204l0,-1.365c0,1.365 1.372,2.73 2.744,2.73c2.744,-4.095 5.489,-6.825 5.489,-9.555c-1.372,2.73 -1.372,2.73 -2.744,2.73l2.744,-4.095c0,-5.46 -4.117,5.46 -5.489,4.095c5.489,-6.825 12.35,-16.379 13.722,-23.204c-1.372,-2.73 -8.233,15.014 -5.489,5.46c-1.372,4.095 -2.744,6.825 -4.117,10.92c0,-9.555 -2.744,5.46 -2.744,-2.73c5.489,-13.649 8.233,-13.649 12.35,-27.299c2.744,-2.73 1.372,1.365 4.117,-1.365c8.233,-19.109 -1.372,-17.744 5.489,-31.394c2.744,-4.095 5.489,-4.095 6.861,-15.014l-2.744,2.73c2.744,-13.649 5.489,-6.825 6.861,-23.204c-1.372,2.73 -2.744,10.92 -2.744,8.19c0,-9.555 2.744,-6.825 4.117,-13.649l-1.372,-1.365c2.744,-15.014 6.861,-31.394 9.605,-47.773c-1.372,1.365 -1.372,4.095 -2.744,0c4.117,-20.474 5.489,-45.043 6.861,-66.882l2.744,-8.19c0,-1.365 0,-4.095 -1.372,-1.365c0,-8.19 1.372,0 2.744,-4.095c0,-4.095 0,-6.825 -1.372,-2.73c2.744,-13.649 8.233,-39.583 8.233,-55.963l-1.372,2.73c0,-12.285 5.489,-12.285 5.489,-23.204l0,1.365c2.744,-25.934 6.861,-53.233 5.489,-72.342c2.744,-2.73 1.372,-24.569 5.489,-25.934c0,-15.014 -1.372,-10.92 -1.372,-31.394c0,-5.46 2.744,-8.19 4.117,-15.014l-2.744,0l2.744,-9.555l-1.372,-5.46l1.372,-6.825c0,2.73 0,5.46 1.372,5.46c1.372,-9.555 1.372,-24.569 0,-24.569l4.117,-23.204c-1.372,0 -1.372,4.095 -2.744,6.825c4.117,-12.285 -1.372,-2.73 1.372,-13.649c0,1.365 1.372,-1.365 1.372,-1.365c0,-5.46 1.372,-19.109 2.744,-28.664l-1.372,1.365c1.372,-17.744 4.117,-36.854 6.861,-55.963c0,6.825 2.744,5.46 4.117,0l-1.372,-2.73c1.372,-4.095 0,5.46 2.744,-1.365c0,-6.825 -2.744,-5.46 -2.744,-1.365l1.372,-8.19c0,0 -1.372,1.365 -2.744,1.365c1.372,-4.095 -1.372,-15.014 1.372,-20.474c1.372,-19.109 2.744,-28.664 4.117,-43.678c1.372,0 2.744,-6.825 4.117,-10.92c0,-12.285 0,-24.569 1.372,-38.218c1.372,-9.555 1.372,-2.73 2.744,-6.825c-1.372,-1.365 0,-15.014 -2.744,-8.19c1.372,-16.379 2.744,-21.839 5.489,-42.313c0,2.73 0,5.46 1.372,4.095c0,-4.095 0,-8.19 -1.372,-8.19l0,1.365c4.117,-23.204 -1.372,-55.963 4.117,-73.707l0,1.365l2.744,-19.109c0,-9.555 -1.372,5.46 -2.744,-1.365c4.117,-20.474 1.372,-34.124 5.489,-50.503c-4.117,-13.649 2.744,-47.773 1.372,-66.882l1.372,1.365c1.372,-4.095 0,-5.46 0,-9.555c1.372,0 1.372,5.46 1.372,2.73c4.117,-39.583 2.744,-83.262 4.117,-124.21c0,-15.014 6.861,-8.19 4.117,-27.299l-2.744,5.46c1.372,-10.92 2.744,-25.934 2.744,-24.569l-20.583,0c-9.605,0 -19.211,0 -28.816,-1.365c1.372,0 1.372,1.365 4.117,1.365c-6.861,1.365 -23.327,0 -23.327,-1.365c-4.117,0 -1.372,1.365 -4.117,1.365c-6.861,1.365 -16.466,-2.73 -19.211,0l2.744,0c-4.117,-1.365 -19.211,0 -15.094,-1.365l-20.583,0c0,0 -1.372,0 -1.372,1.365l0,4.095c0,4.095 0,8.19 -1.372,8.19c2.744,0 1.372,19.109 -1.372,27.299c1.372,-2.73 0,6.825 1.372,4.095c-1.372,8.19 -1.372,15.014 -2.744,13.649c2.744,15.014 -5.489,30.029 -1.372,38.218c-4.117,23.204 -6.861,46.408 -9.605,66.882c2.744,0 2.744,-23.204 5.489,-23.204c-2.744,20.474 -6.861,31.394 -6.861,51.868c0,5.46 1.372,-2.73 2.744,-4.095c-2.744,20.474 -2.744,39.583 -5.489,57.328c0,0 1.372,-1.365 1.372,-4.095c0,4.095 0,8.19 -1.372,8.19l0,-4.095c-1.372,-5.46 -5.489,13.649 -6.861,15.014c4.117,-5.46 0,17.744 5.489,8.19c0,2.73 -1.372,5.46 -2.744,4.095c0,4.095 0,4.095 1.372,1.365c-1.372,12.285 -2.744,8.19 -4.117,19.109c0,0 1.372,-2.73 1.372,-4.095c-1.372,5.46 -4.117,10.92 -4.117,21.839c0,0 1.372,0 1.372,-2.73c-1.372,16.379 -5.489,28.664 -5.489,46.408c2.744,-5.46 0,6.825 2.744,8.19l-1.372,9.555l-1.372,-4.095c0,8.19 -2.744,16.379 -2.744,23.204l1.372,-6.825l-1.372,16.379l0,-9.555c-1.372,8.19 -2.744,-1.365 -2.744,10.92c0,-2.73 0,8.19 0,13.649c-1.372,4.095 -2.744,8.19 -2.744,15.014c0,1.365 2.744,-1.365 2.744,0c-2.744,4.095 -2.744,20.474 -5.489,25.934c0,-1.365 1.372,-1.365 2.744,-1.365l-1.372,4.095c0,4.095 0,4.095 1.372,4.095c0,12.285 -2.744,-4.095 -2.744,10.92c0,-1.365 0,0 1.372,-2.73c0,15.014 -2.744,27.299 -4.117,40.948c2.744,4.095 1.372,-10.92 2.744,-6.825c-1.372,19.109 -6.861,39.583 -6.861,57.328l0,-4.095c-4.117,2.73 0,13.649 -1.372,23.204c0,-2.73 2.744,-2.73 1.372,-2.73c1.372,20.474 -1.372,32.759 -4.117,51.868Zm-23.327,-638.795c1.372,0 4.117,0 8.233,1.365c4.117,0 9.605,0 17.839,1.365l4.117,0l0,8.19c0,-2.73 0,-6.825 1.372,-9.555c-10.978,-1.365 -20.583,-1.365 -31.56,-1.365Zm-200.34,46.408c1.372,-6.825 1.372,-12.285 0,-8.19c-4.117,15.014 -8.233,31.394 -13.722,46.408c5.489,-12.285 9.605,-24.569 13.722,-38.218Zm-15.094,49.138c2.744,-6.825 5.489,-12.285 6.861,-19.109c-2.744,4.095 -4.117,9.555 -6.861,13.649c0,2.73 0,5.46 -1.372,8.19c1.372,-1.365 1.372,-2.73 1.372,-2.73Zm-12.35,-148.779l56.26,0l16.466,1.365c6.861,-1.365 -24.699,-2.73 12.35,-2.73c26.072,1.365 -24.699,2.73 17.839,4.095c26.072,-1.365 19.211,-2.73 50.771,0c4.117,-1.365 -2.744,-1.365 -15.094,-1.365c27.444,1.365 74.098,2.73 87.82,4.095l46.655,0c0,0 2.744,-1.365 5.489,-1.365l6.861,0c2.744,0 4.117,0 6.861,1.365c1.372,0 1.372,0 2.744,1.365l16.466,0c4.117,0 6.861,-1.365 5.489,-1.365c8.233,0 49.399,1.365 74.098,1.365c-46.655,-2.73 96.054,-1.365 83.704,-5.46c34.305,4.095 124.87,-2.73 186.618,-4.095l-15.094,0c34.305,-2.73 43.91,-4.095 65.865,-6.825c4.117,2.73 57.632,-1.365 87.82,-1.365c42.538,-5.46 -26.072,-1.365 -12.35,-4.095c-1.372,2.73 74.098,-4.095 59.004,0c31.56,-4.095 27.444,-2.73 43.91,-6.825c5.489,2.73 30.188,-1.365 57.632,-1.365c46.655,-5.46 12.35,-4.095 63.121,-6.825c24.699,-2.73 -21.955,-1.365 -21.955,-1.365c52.143,-4.095 24.699,1.365 35.677,1.365c63.121,-2.73 28.816,-4.095 49.399,-6.825c38.421,-1.365 68.61,-1.365 98.798,-2.73c2.744,0 8.233,-1.365 1.372,-1.365c41.166,0 122.125,-4.095 171.524,-1.365l6.861,0c-8.233,1.365 -9.605,2.73 -6.861,2.73c23.327,0 43.91,2.73 52.143,1.365c-13.722,0 -15.094,-1.365 -21.955,-1.365l24.699,1.365c21.955,-1.365 -32.933,-1.365 -32.933,-2.73c48.027,1.365 104.287,5.46 141.336,8.19c8.233,-2.73 -86.448,-5.46 -37.049,-5.46c-19.211,-1.365 -38.421,-1.365 -57.632,-1.365c43.91,-2.73 -34.305,-1.365 5.489,-4.095c24.699,0 42.538,1.365 57.632,2.73c8.233,0 15.094,1.365 21.955,1.365c4.117,0 6.861,0 10.978,1.365l2.744,0l0,-46.408c1.372,-16.379 1.372,5.46 4.117,-10.92c4.117,-105.101 -4.117,-83.262 0,-161.064c1.372,-20.474 5.489,-27.299 4.117,-83.262l-2.744,19.109c1.372,-72.342 4.117,-40.948 4.117,-116.02c-1.372,13.649 -1.372,55.963 -1.372,45.043c-1.372,-49.138 1.372,-34.124 2.744,-72.342l-2.744,-8.19c1.372,-76.437 4.117,-161.064 4.117,-245.69c-1.372,4.095 -1.372,19.109 -2.744,0c1.372,-105.101 13.722,-1020.98 15.094,-1020.98c8.233,-241.595 9.605,-443.607 -2.744,-731.611l1.372,5.46c0,-208.837 -32.933,-544.613 -59.004,-816.238l1.372,27.299c-15.094,-208.837 -5.489,-286.639 -244.25,-298.923c4.117,0 6.861,1.365 9.605,1.365c-82.332,-10.92 -242.878,-20.474 -285.416,-23.204c-87.82,-1.365 -192.107,0 -264.833,2.73c4.117,2.73 -101.542,8.19 -137.219,9.555c12.35,0 -31.56,2.73 -17.839,4.095c-41.166,2.73 -79.587,5.46 -72.726,2.73c-203.085,19.109 -362.259,34.124 -547.505,40.948c257.972,-9.555 -56.26,4.095 -153.686,5.46c-27.444,1.365 15.094,1.365 24.699,1.365c-105.659,1.365 -205.829,1.365 -299.138,-6.825c6.861,-2.73 -59.004,-8.19 -75.471,-10.92c4.117,1.365 0,1.365 -5.489,0c0,1.365 1.372,70.977 4.117,32.759c0,12.285 0,27.299 -1.372,24.569c1.372,17.744 1.372,23.204 1.372,5.46c1.372,65.517 -1.372,42.313 1.372,102.371c0,0 0,-12.285 1.372,-19.109c0,30.029 -1.372,61.423 1.372,111.926c0,-2.73 1.372,1.365 1.372,-6.825c2.744,84.627 1.372,144.684 5.489,238.866c2.744,-23.204 5.489,77.802 5.489,88.721l-1.372,-20.474c1.372,45.043 1.372,84.627 2.744,122.845l0,-32.759l1.372,84.627l-2.744,-47.773c0,45.043 -2.744,-4.095 -1.372,54.598c0,-12.285 1.372,45.043 4.117,68.247c-1.372,61.423 8.233,135.13 5.489,208.837c2.744,-31.394 -1.372,46.408 2.744,32.759c2.744,62.788 -4.117,-19.109 0,54.598l0,-15.014c5.489,218.391 8.233,232.041 13.722,476.366l-1.372,-17.744c-2.744,13.649 4.117,70.977 4.117,120.115c5.489,-6.825 4.117,141.954 6.861,221.121l0,-12.285c5.489,131.035 8.233,260.705 10.978,384.915l0,12.285c1.372,42.313 2.744,84.627 4.117,126.94c0,-81.897 1.372,73.707 1.372,75.072c-1.372,-8.19 -1.372,-12.285 -2.744,-32.759c-1.372,12.285 -1.372,39.583 -1.372,64.152c0,-43.678 2.744,0 4.117,19.109c0,-2.73 -1.372,2.73 -1.372,1.365c2.744,50.503 -2.744,8.19 0,77.802l1.372,-4.095c0,23.204 -4.117,121.48 1.372,47.773c0,39.583 -2.744,77.802 -1.372,113.291c0,-16.379 0,-40.948 1.372,-57.328c2.744,38.218 1.372,43.678 2.744,72.342l0,-2.73l1.372,54.598c-2.744,40.948 -1.372,83.262 -1.372,135.13c1.372,-15.014 1.372,15.014 2.744,12.285c1.372,16.379 2.744,42.313 2.744,35.489c0,120.115 6.861,316.667 37.049,521.409c5.489,4.095 -2.744,-24.569 -1.372,-24.569c12.35,27.299 41.166,27.299 75.471,23.204c12.35,0 24.699,1.365 37.049,1.365c-1.372,0 -13.722,-1.365 -26.072,-1.365c13.722,-1.365 26.072,-2.73 39.794,-2.73l-1.372,0l9.605,0c38.421,1.365 145.453,0 63.121,-1.365c41.166,0 105.659,-2.73 119.381,-1.365c-19.211,0 -128.986,4.095 -56.26,4.095c-4.117,1.365 -8.233,1.365 -13.722,1.365c23.327,-1.365 46.655,-2.73 71.354,-4.095c4.117,-2.73 9.605,-4.095 15.094,-4.095c5.489,-1.365 19.211,-1.365 54.888,-1.365l2.744,0c23.327,-2.73 80.959,-1.365 82.332,2.73c-1.372,0 0,0 0,0Zm-155.058,2.73c4.117,0 8.233,0 12.35,-1.365c-1.372,0 -2.744,-1.365 -2.744,-1.365c-2.744,0 -6.861,1.365 -9.605,2.73Zm-142.708,1296.699c-35.677,111.926 -64.493,230.676 -98.798,346.696c27.444,-84.627 72.726,-236.136 98.798,-346.696Zm-24.699,-39.583c-1.372,1.365 -5.489,20.474 0,10.92c-1.372,1.365 0,-5.46 0,-10.92Zm-65.865,364.441c-1.372,6.825 -9.605,31.394 -15.094,47.773c-6.861,23.204 -13.722,46.408 -21.955,69.612c17.839,-50.503 37.049,-103.736 37.049,-117.385Zm-201.712,286.639c1.372,0 1.372,-1.365 1.372,-2.73c4.117,-1.365 26.072,17.744 34.305,15.014c0,0 -12.35,-4.095 -12.35,-5.46c12.35,4.095 21.955,9.555 35.677,5.46c-1.372,0 -5.489,-1.365 1.372,-4.095l0,2.73c2.744,0 6.861,-16.379 5.489,-16.379c12.35,-24.569 13.722,-45.043 28.816,-69.612c-8.233,12.285 9.605,-28.664 5.489,-25.934c6.861,-9.555 15.094,-35.489 21.955,-53.233c0,1.365 -1.372,2.73 -2.744,4.095c-2.744,-12.285 32.933,-60.058 13.722,-45.043c2.744,-4.095 8.233,-19.109 8.233,-15.014c2.744,-19.109 9.605,-28.664 13.722,-49.138l0,-2.73c5.489,-10.92 6.861,-9.555 4.117,-17.744c2.744,-8.19 15.094,-27.299 10.978,-28.664c5.489,-13.649 13.722,-38.218 17.839,-53.233c2.744,10.92 8.233,-15.014 6.861,-12.285c-1.372,4.095 -1.372,4.095 -2.744,6.825c5.489,-13.649 0,-4.095 -2.744,2.73c5.489,-13.649 10.978,-30.029 13.722,-40.948c-1.372,-2.73 -8.233,25.934 -5.489,10.92l-4.117,17.744c-1.372,-23.204 24.699,-84.627 35.677,-126.94l-4.117,5.46c5.489,-21.839 6.861,-10.92 10.978,-34.124c17.839,-65.517 39.794,-162.429 53.516,-211.567c6.861,-21.839 17.839,-61.423 21.955,-84.627l-1.372,4.095c2.744,-17.744 8.233,-19.109 10.978,-35.489l-1.372,2.73c21.955,-91.451 37.049,-165.158 57.632,-251.15c0,2.73 0,5.46 1.372,5.46c6.861,-32.759 8.233,-47.773 17.839,-73.707c-1.372,0 -2.744,6.825 -4.117,10.92c6.861,-24.569 8.233,-35.489 16.466,-65.517l-2.744,2.73c6.861,-25.934 15.094,-54.598 21.955,-84.627c-4.117,16.379 6.861,2.73 2.744,-4.095c2.744,-5.46 -1.372,9.555 2.744,-1.365c2.744,-10.92 0,-8.19 -2.744,-1.365c0,-1.365 8.233,-20.474 1.372,-10.92c16.466,-62.788 34.305,-125.575 56.26,-184.268c-1.372,-1.365 5.489,-23.204 0,-12.285c8.233,-24.569 9.605,-32.759 20.583,-64.152c-1.372,19.109 4.117,-15.014 2.744,-5.46c13.722,-35.489 21.955,-83.262 34.305,-110.561l-1.372,1.365c4.117,-9.555 39.794,-141.954 38.421,-144.684c1.372,-4.095 2.744,-8.19 2.744,-12.285c-28.816,0 -59.004,-1.365 -87.82,-1.365c-2.744,0 -5.489,0 -8.233,1.365c8.233,0 16.466,1.365 24.699,1.365c6.861,0 0,-1.365 -1.372,-1.365c23.327,1.365 49.399,4.095 34.305,5.46c-23.327,-2.73 -28.816,-1.365 -53.516,-5.46l-9.605,0c-45.282,4.095 -94.681,8.19 -134.475,6.825c0,0 2.744,2.73 4.117,2.73l-4.117,0c-8.233,39.583 -16.466,84.627 -27.444,122.845c1.372,-2.73 1.372,-2.73 2.744,-6.825c0,9.555 -6.861,35.489 -8.233,35.489c1.372,5.46 -6.861,34.124 -6.861,34.124c-2.744,8.19 -4.117,25.934 -5.489,20.474c-5.489,25.934 -10.978,57.328 -17.839,77.802c2.744,0 -4.117,30.029 -8.233,40.948c1.372,-4.095 -1.372,9.555 1.372,5.46c-2.744,12.285 -5.489,23.204 -6.861,20.474c-9.605,60.058 -23.327,107.831 -37.049,161.064c27.444,-91.451 -16.466,65.517 -6.861,38.218c-8.233,31.394 -12.35,60.058 -20.583,87.357c0,0 1.372,-2.73 2.744,-5.46c-1.372,5.46 -2.744,12.285 -4.117,12.285c5.489,-23.204 -6.861,12.285 -8.233,16.379c5.489,-8.19 -5.489,27.299 2.744,13.649c-1.372,4.095 -2.744,8.19 -2.744,6.825c-1.372,5.46 -1.372,6.825 1.372,1.365c-5.489,19.109 -5.489,12.285 -8.233,30.029c0,0 1.372,-4.095 2.744,-5.46c-2.744,8.19 -6.861,17.744 -9.605,32.759c-5.489,24.569 -12.35,40.948 -16.466,66.882c4.117,-6.825 0,23.204 -2.744,27.299l0,-6.825c-2.744,13.649 -6.861,24.569 -8.233,36.854l2.744,-9.555l-5.489,24.569l1.372,-13.649c-10.978,25.934 -9.605,65.517 -21.955,98.276c6.861,-9.555 -5.489,13.649 0,10.92c-4.117,19.109 -1.372,-5.46 -5.489,15.014c0,0 0,-1.365 1.372,-2.73c-13.722,64.152 -12.35,66.882 -28.816,135.13c-4.117,2.73 -2.744,21.839 -6.861,35.489c6.861,-1.365 -9.605,42.313 -13.722,65.517l1.372,-4.095c-2.744,9.555 -5.489,47.773 -12.35,47.773c-2.744,39.583 -17.839,72.342 -20.583,106.466c8.233,-24.569 -4.117,21.839 -4.117,21.839c-1.372,-2.73 0,-4.095 0,-10.92c-1.372,4.095 -4.117,10.92 -5.489,19.109c4.117,-12.285 2.744,0 2.744,6.825c0,-1.365 -1.372,1.365 -1.372,0c0,15.014 -4.117,1.365 -5.489,23.204l1.372,-1.365c-1.372,8.19 -9.605,35.489 -1.372,15.014c-2.744,12.285 -8.233,21.839 -8.233,32.759c1.372,-5.46 2.744,-12.285 4.117,-16.379c0,12.285 -1.372,13.649 -2.744,21.839l0,-1.365l-2.744,20.474l0,-5.46c-8.233,13.649 -6.861,30.029 -13.722,47.773c6.861,-19.109 2.744,-2.73 4.117,-4.095c0,5.46 -1.372,12.285 0,10.92c-5.489,27.299 -30.188,121.48 -35.677,144.684c-1.372,12.285 -2.744,20.474 -5.489,31.394c5.489,1.365 -2.744,10.92 -1.372,21.839c1.372,-1.365 2.744,-4.095 4.117,-8.19c-1.372,8.19 -6.861,47.773 -1.372,20.474c-2.744,12.285 2.744,46.408 -2.744,30.029l0,-4.095c0,-10.92 -1.372,-15.014 -2.744,-15.014l0,8.19c-4.117,-8.19 1.372,-31.394 2.744,-46.408c-9.605,39.583 -6.861,91.451 26.072,117.385Z" style="fill:#314e9d;fill-rule:nonzero;"/><path d="M3600.104,4716.24l0,-1.365c-1.372,-2.73 -1.372,-5.46 -2.744,-8.19c1.372,4.095 1.372,6.825 2.744,9.555Z" style="fill:#314e9d;fill-rule:nonzero;"/><path d="M3590.499,4678.022l0,-5.46l-1.372,-1.365c1.372,2.73 1.372,4.095 1.372,6.825Z" style="fill:#314e9d;fill-rule:nonzero;"/><path d="M3844.355,5700.366c-1.372,-2.73 -1.372,-5.46 -1.372,-8.19c0,1.365 0,4.095 1.372,8.19Z" style="fill:#314e9d;fill-rule:nonzero;"/><path d="M2863.236,4596.125c0,-1.365 1.372,-2.73 1.372,-5.46l0,-5.46c-1.372,2.73 -1.372,6.825 -1.372,10.92Z" style="fill:#314e9d;fill-rule:nonzero;"/><path d="M2948.312,5204.891c0,1.365 0,-4.095 0,-6.825c0,2.73 -1.372,5.46 -1.372,8.19c0,1.365 1.372,1.365 1.372,-1.365Z" style="fill:#314e9d;fill-rule:nonzero;"/><path d="M2945.568,5218.541c0,2.73 0,4.095 -1.372,5.46c0,-1.365 0,-2.73 1.372,-5.46Z" style="fill:#314e9d;fill-rule:nonzero;"/><path d="M2826.187,5052.017c0,1.365 0,1.365 1.372,-2.73c0,0 0,-1.365 -1.372,-1.365l0,4.095Z" style="fill:#314e9d;fill-rule:nonzero;"/><path d="M2827.559,5039.733c0,-2.73 1.372,-5.46 1.372,-9.555c-1.372,2.73 -1.372,5.46 -1.372,9.555Z" style="fill:#314e9d;fill-rule:nonzero;"/><path d="M2838.537,4884.129c0,0 1.372,-1.365 1.372,-2.73c0,0 -1.372,1.365 -1.372,2.73Z" style="fill:#314e9d;fill-rule:nonzero;"/><path d="M2845.398,4806.327c0,4.095 0,8.19 -1.372,12.285c1.372,-4.095 1.372,-8.19 1.372,-12.285Z" style="fill:#314e9d;fill-rule:nonzero;"/><path d="M2850.886,4746.269l0,-4.095c0,2.73 0,5.46 -1.372,9.555c0,-2.73 1.372,-4.095 1.372,-5.46Z" style="fill:#314e9d;fill-rule:nonzero;"/><path d="M4120.166,3405.892l0,24.569l0,-24.569Z" style="fill:#314e9d;fill-rule:nonzero;"/><path d="M2816.582,5207.621c0,-1.365 -1.372,0 -1.372,0c1.372,-4.095 4.117,-9.555 5.489,-6.825c-2.744,4.095 -1.372,5.46 -4.117,10.92c0,4.095 0,6.825 1.372,6.825c-1.372,1.365 0,6.825 -1.372,8.19c-2.744,-5.46 -2.744,-12.285 -0,-19.109Z" style="fill:#314e9d;fill-rule:nonzero;"/><path d="M2824.815,5155.753c0,1.365 0,2.73 -1.372,4.095l1.372,-4.095Z" style="fill:#314e9d;fill-rule:nonzero;"/><path d="M2813.837,5329.101c0,-1.365 0,-1.365 0,0Z" style="fill:#314e9d;fill-rule:nonzero;"/><path d="M2900.285,5380.969c0,-1.365 -6.861,6.825 0,-4.095l0,4.095Z" style="fill:#314e9d;fill-rule:nonzero;"/><path d="M2823.443,5155.753l1.372,-1.365l-1.372,1.365Z" style="fill:#314e9d;fill-rule:nonzero;"/><path d="M2904.402,4230.32l0,-10.92l0,10.92Z" style="fill:#314e9d;fill-rule:nonzero;"/><path d="M2908.519,4188.006l-1.372,-1.365c-0,1.365 -0,1.365 1.372,1.365Z" style="fill:#314e9d;fill-rule:nonzero;"/><path d="M2975.756,4915.523l1.372,0l-1.372,1.365l0,-1.365Z" style="fill:#314e9d;fill-rule:nonzero;"/><path d="M2839.909,4940.092l0,1.365c1.372,0 0,-1.365 0,-1.365Z" style="fill:#314e9d;fill-rule:nonzero;"/><path d="M2837.165,4989.23l0,6.825l0,-6.825Z" style="fill:#314e9d;fill-rule:nonzero;"/><path d="M2834.42,5026.083c0,0 0,1.365 0,0Z" style="fill:#314e9d;fill-rule:nonzero;"/><path d="M2885.191,4429.602l0,-1.365c1.372,-4.095 1.372,-1.365 0,1.365Z" style="fill:#314e9d;fill-rule:nonzero;"/><path d="M2867.353,4607.045c0,-1.365 1.372,-4.095 1.372,-5.46c0,2.73 -1.372,5.46 -1.372,5.46Z" style="fill:#314e9d;fill-rule:nonzero;"/><path d="M2904.402,4231.685l0,-1.365l0,1.365Z" style="fill:#314e9d;fill-rule:nonzero;"/><path d="M2868.725,4601.585l0,-8.19l0,8.19Z" style="fill:#314e9d;fill-rule:nonzero;"/><path d="M2822.07,5191.242l0,-1.365l0,1.365Z" style="fill:#314e9d;fill-rule:nonzero;"/><path d="M2822.07,5192.607l0,-1.365l0,1.365Z" style="fill:#314e9d;fill-rule:nonzero;"/><path d="M2822.07,5192.607c0,1.365 0,2.73 -1.372,4.095l1.372,-4.095Z" style="fill:#314e9d;fill-rule:nonzero;"/><path d="M2826.187,5124.359c0,4.095 1.372,9.555 0,13.649c1.372,-1.365 -1.372,-10.92 0,-13.649Z" style="fill:#314e9d;fill-rule:nonzero;"/><path d="M2861.864,4683.482l1.372,5.46l-2.744,2.73l1.372,-8.19Z" style="fill:#314e9d;fill-rule:nonzero;"/><path d="M3650.875,4910.063c0,8.19 1.372,9.555 0,17.744c1.372,6.825 2.744,10.92 4.117,9.555c0,2.73 2.744,9.555 1.372,13.649c-4.117,-8.19 -5.489,-17.744 -6.861,-28.664c-1.372,-2.73 -1.372,0 -1.372,1.365c-1.372,-9.555 -1.372,-17.744 2.744,-13.649Z" style="fill:#314e9d;fill-rule:nonzero;"/><path d="M3634.409,4837.721l0,5.46l0,-5.46Z" style="fill:#314e9d;fill-rule:nonzero;"/><path d="M3701.646,5107.98c0,-1.365 0,-1.365 0,0Z" style="fill:#314e9d;fill-rule:nonzero;"/><path d="M3633.037,4834.991l-1.372,-5.46c1.372,2.73 1.372,4.095 1.372,5.46Z" style="fill:#314e9d;fill-rule:nonzero;"/><path d="M3781.234,5435.567c-1.372,-2.73 -1.372,-4.095 -2.744,-4.095c2.744,1.365 -1.372,-15.014 2.744,4.095Z" style="fill:#314e9d;fill-rule:nonzero;"/><path d="M3633.037,4837.721l0,-2.73c0,1.365 1.372,1.365 0,2.73c1.372,1.365 0,1.365 0,0Z" style="fill:#314e9d;fill-rule:nonzero;"/><path d="M3851.216,4652.088l4.117,17.744c-2.744,-5.46 -4.117,-12.285 -4.117,-17.744Z" style="fill:#314e9d;fill-rule:nonzero;"/><path d="M3863.565,4720.335c1.372,2.73 2.744,6.825 2.744,9.555l0,2.73l-2.744,-12.285Z" style="fill:#314e9d;fill-rule:nonzero;"/><path d="M4040.578,6098.931l-2.744,0l2.744,0Z" style="fill:#314e9d;fill-rule:nonzero;"/><path d="M3554.822,4499.214c0,0 0,1.365 1.372,2.73c0,0 0,-1.365 -1.372,-2.73Z" style="fill:#314e9d;fill-rule:nonzero;"/><path d="M3572.66,4577.016c1.372,2.73 1.372,5.46 2.744,10.92l-2.744,-10.92Z" style="fill:#314e9d;fill-rule:nonzero;"/><path d="M3587.754,4635.709c0,0 -1.372,0 0,0Z" style="fill:#314e9d;fill-rule:nonzero;"/><path d="M3782.606,4339.515l0,2.73c1.372,4.095 0,1.365 0,-2.73Z" style="fill:#314e9d;fill-rule:nonzero;"/><path d="M3652.248,4144.328l9.605,0c-5.489,0 -9.605,1.365 -9.605,0Z" style="fill:#314e9d;fill-rule:nonzero;"/><path d="M3849.843,4650.723l0,1.365l0,-1.365Z" style="fill:#314e9d;fill-rule:nonzero;"/><path d="M3661.853,4144.328c4.117,0 9.605,-1.365 13.722,-1.365c-5.489,1.365 -9.605,1.365 -13.722,1.365Z" style="fill:#314e9d;fill-rule:nonzero;"/><path d="M3646.759,4893.683l0,-2.73l0,2.73c0,-1.365 0,0 0,0Z" style="fill:#314e9d;fill-rule:nonzero;"/><path d="M3646.759,4893.683l0,2.73l0,-2.73Z" style="fill:#314e9d;fill-rule:nonzero;"/><path d="M3646.759,4896.413c0,2.73 1.372,5.46 1.372,6.825l-1.372,-6.825Z" style="fill:#314e9d;fill-rule:nonzero;"/><path d="M3622.059,4788.583c1.372,5.46 4.117,13.649 5.489,21.839l0,1.365c1.372,-4.095 -5.489,-17.744 -5.489,-23.204Z" style="fill:#314e9d;fill-rule:nonzero;"/><path d="M3516.4,4153.883l12.35,0l-8.233,1.365l-4.117,-1.365Z" style="fill:#314e9d;fill-rule:nonzero;"/><path d="M2620.358,4258.983c-2.744,6.825 -4.117,10.92 -6.861,16.379c1.372,-5.46 4.117,-10.92 6.861,-16.379c-1.372,0 -1.372,0 0,0Z" style="fill:#314e9d;fill-rule:nonzero;"/><path d="M2915.38,4127.949c0,1.365 -1.372,1.365 0,0c-2.744,1.365 -4.117,0 0,0Z" style="fill:#314e9d;fill-rule:nonzero;"/><path d="M2623.102,4248.064c1.372,-5.46 2.744,-10.92 5.489,-16.379c-2.744,8.19 -4.117,13.649 -5.489,16.379Z" style="fill:#314e9d;fill-rule:nonzero;"/><path d="M3965.108,4081.541c-8.233,0 -12.35,1.365 -16.466,1.365c5.489,-1.365 -45.282,-1.365 16.466,-1.365Z" style="fill:#314e9d;fill-rule:nonzero;"/><path d="M2618.986,4257.619c1.372,-1.365 2.744,-4.095 4.117,-9.555c-1.372,4.095 -2.744,6.825 -4.117,9.555c0,2.73 -1.372,2.73 0,0Z" style="fill:#314e9d;fill-rule:nonzero;"/><path d="M3703.019,5374.144l13.722,53.233c-4.117,-15.014 -9.605,-34.124 -13.722,-53.233Z" style="fill:#314e9d;fill-rule:nonzero;"/><path d="M4175.053,2978.664l0,-12.285l0,12.285Z" style="fill:#314e9d;fill-rule:nonzero;"/><path d="M3755.162,5584.346c2.744,9.555 5.489,19.109 8.233,30.029c0,2.73 1.372,4.095 1.372,6.825l-9.605,-36.854Z" style="fill:#314e9d;fill-rule:nonzero;"/><path d="M3336.643,4168.897l5.489,0l-5.489,0Z" style="fill:#314e9d;fill-rule:nonzero;"/><path d="M4176.425,3154.742l0,-13.649l0,13.649Z" style="fill:#314e9d;fill-rule:nonzero;"/><path d="M3818.283,5827.306c0,2.73 1.372,4.095 1.372,6.825c0,-1.365 0,-4.095 -1.372,-6.825Z" style="fill:#314e9d;fill-rule:nonzero;"/><path d="M4175.053,2864.009l0,-9.555l0,9.555Z" style="fill:#314e9d;fill-rule:nonzero;"/><path d="M2790.51,4933.267l0,6.825c-1.372,-1.365 -1.372,-2.73 0,-6.825Z" style="fill:#314e9d;fill-rule:nonzero;"/><path d="M2811.093,4676.657l1.372,-12.285c-1.372,4.095 -1.372,8.19 -1.372,12.285Z" style="fill:#314e9d;fill-rule:nonzero;"/><path d="M2809.721,4697.131c0,-5.46 1.372,-12.285 1.372,-21.839l-1.372,21.839Z" style="fill:#314e9d;fill-rule:nonzero;"/><path d="M2823.443,4511.498c0,-2.73 1.372,-2.73 1.372,-4.095l-1.372,4.095Z" style="fill:#314e9d;fill-rule:nonzero;"/><path d="M3479.351,4405.033c0,2.73 1.372,5.46 1.372,6.825c4.117,16.379 1.372,5.46 -1.372,-6.825Z" style="fill:#314e9d;fill-rule:nonzero;"/><path d="M3069.065,4460.995c1.372,-9.555 1.372,-19.109 2.744,-28.664c0,16.379 -1.372,28.664 -2.744,28.664Z" style="fill:#314e9d;fill-rule:nonzero;"/><path d="M3701.646,5368.685c0,1.365 1.372,4.095 1.372,5.46l-1.372,-5.46Z" style="fill:#314e9d;fill-rule:nonzero;"/><path d="M3071.81,4432.332c1.372,-12.285 1.372,-28.664 2.744,-40.948c0,15.014 -1.372,28.664 -2.744,40.948Z" style="fill:#314e9d;fill-rule:nonzero;"/><path d="M2640.941,4178.452l64.493,0l-64.493,0Z" style="fill:#314e9d;fill-rule:nonzero;"/><path d="M3036.133,4869.114l-2.744,12.285l4.117,-38.218l-1.372,25.934Z" style="fill:#314e9d;fill-rule:nonzero;"/></g></g></g></g></g></svg>