<?xml version="1.0" encoding="UTF-8" standalone="no"?><!DOCTYPE svg PUBLIC "-//W3C//DTD SVG 1.1//EN" "http://www.w3.org/Graphics/SVG/1.1/DTD/svg11.dtd"><svg width="100%" height="100%" viewBox="0 0 2134 2134" version="1.1" xmlns="http://www.w3.org/2000/svg" xmlns:xlink="http://www.w3.org/1999/xlink" xml:space="preserve" xmlns:serif="http://www.serif.com/" style="fill-rule:evenodd;clip-rule:evenodd;stroke-linejoin:round;stroke-miterlimit:2;"><rect id="Mesa-de-trabajo1" serif:id="Mesa de trabajo1" x="0" y="0" width="2133.333" height="2133.333" style="fill:none;"/><g id="Mesa-de-trabajo11" serif:id="Mesa de trabajo1"><g><path d="M1833.95,1020.622c146.678,42.585 253.99,177.704 253.99,338.116c0,194.561 -157.725,352.288 -352.292,352.288l-1337.967,0c-194.563,0 -352.288,-157.727 -352.288,-352.288c0,-131.149 71.808,-245.312 178.106,-305.971c-67.361,-162.749 5.24,-350.874 166.715,-424.855c128.291,-58.784 274.471,-27.9 368.993,66.044c103.272,-163.066 284.808,-271.648 492.104,-271.648c321.781,0 582.638,260.856 582.638,582.637l0,15.677Zm-1044.914,-79.886l0,-105.98l-46.163,0c-27.959,0 -53.316,3.901 -76.073,12.354c-23.407,8.451 -43.564,19.506 -60.468,33.809c-16.904,14.954 -29.909,31.86 -39.012,52.015c-9.753,20.157 -14.305,42.913 -14.305,66.97l0,211.311l120.285,0l0,-204.16c0,-19.506 6.503,-35.759 19.506,-48.114c13.005,-12.354 29.909,-18.206 50.066,-18.206l46.163,0Zm277.631,0l0,-105.98l-46.163,0c-27.959,0 -53.316,3.901 -76.073,12.354c-23.407,8.451 -43.564,19.506 -60.468,33.809c-16.904,14.954 -29.909,31.86 -39.012,52.015c-9.753,20.157 -14.305,42.913 -14.305,66.97l0,211.311l120.287,0l0,-204.16c0,-19.506 6.501,-35.759 19.506,-48.114c13.003,-12.354 29.908,-18.206 50.064,-18.206l46.163,0Z" style="fill:#cf0;"/></g></g></svg>