<svg xmlns="http://www.w3.org/2000/svg" viewBox="0 0 20 20" shape-rendering="crispEdges"><rect width="20" height="20" fill="#150e33"/><rect x="11" y="4" width="5" height="1" fill="#f43f5e"/><rect x="10" y="5" width="7" height="1" fill="#f43f5e"/><rect x="3" y="6" width="3" height="1" fill="#f43f5e"/><rect x="9" y="6" width="9" height="1" fill="#f43f5e"/><rect x="2" y="7" width="16" height="1" fill="#f43f5e"/><rect x="1" y="8" width="18" height="1" fill="#f43f5e"/><rect x="0" y="9" width="20" height="1" fill="#f43f5e"/><rect x="0" y="10" width="20" height="1" fill="#f43f5e"/><rect x="0" y="11" width="20" height="1" fill="#f43f5e"/><rect x="0" y="12" width="20" height="1" fill="#f43f5e"/><rect x="0" y="13" width="20" height="1" fill="#f43f5e"/><rect x="1" y="14" width="18" height="1" fill="#f43f5e"/><rect x="2" y="15" width="16" height="1" fill="#c9284d"/><rect x="3" y="9" width="2" height="1" fill="#ffffff"/><rect x="7" y="9" width="2" height="1" fill="#ffffff"/><rect x="3" y="10" width="1" height="1" fill="#ffffff"/><rect x="7" y="10" width="1" height="1" fill="#ffffff"/></svg>
