<?xml version="1.0" encoding="UTF-8" standalone="no"?>
<!DOCTYPE svg PUBLIC "-//W3C//DTD SVG 1.1//EN" "http://www.w3.org/Graphics/SVG/1.1/DTD/svg11.dtd">
<svg width="100%" height="100%" viewBox="0 0 800 800" version="1.1" xmlns="http://www.w3.org/2000/svg" xmlns:xlink="http://www.w3.org/1999/xlink" xml:space="preserve" xmlns:serif="http://www.serif.com/" style="fill-rule:evenodd;clip-rule:evenodd;stroke-linejoin:round;stroke-miterlimit:2;">
    <rect id="Mesa-de-trabajo1" serif:id="Mesa de trabajo1" x="0" y="0" width="800" height="800" style="fill:none;"/>
    <g id="Mesa-de-trabajo11" serif:id="Mesa de trabajo1">
        <g transform="matrix(1.82128,0,0,1.82128,-285.31,-568.394)">
            <path d="M439.187,519.454L435.877,546.03C435.32,550.475 431.558,553.812 427.1,553.812L384.051,553.812L384.051,664.94C379.507,665.351 374.909,665.557 370.259,665.557C359.863,665.557 349.706,664.516 339.895,662.539L339.895,553.812L306.784,553.812C303.745,553.812 301.264,551.318 301.264,548.273L301.264,515.016C301.264,511.971 303.745,509.476 306.784,509.476L339.895,509.476L339.895,459.595C339.895,428.985 364.607,404.173 395.09,404.173L433.721,404.173C436.759,404.173 439.24,406.668 439.24,409.713L439.24,442.969C439.24,446.015 436.759,448.509 433.721,448.509L406.123,448.509C393.936,448.509 384.051,458.434 384.051,470.68L384.051,509.476L430.41,509.476C435.731,509.476 439.844,514.16 439.187,519.454Z" style="fill:rgb(0,2,11);fill-rule:nonzero;"/>
            <path d="M566.229,692.18C566.229,707.944 553.4,720.772 537.636,720.772L223.01,720.772C207.246,720.772 194.417,707.944 194.417,692.18L194.417,377.553C194.417,361.789 207.246,348.961 223.01,348.961L537.636,348.961C553.4,348.961 566.229,361.789 566.229,377.553L566.229,692.18ZM537.636,329.899L223.01,329.899C196.695,329.899 175.355,351.239 175.355,377.553L175.355,692.18C175.355,718.495 196.695,739.834 223.01,739.834L537.636,739.834C563.951,739.834 585.291,718.495 585.291,692.18L585.291,377.553C585.291,351.239 563.951,329.899 537.636,329.899Z" style="fill:rgb(0,2,11);fill-rule:nonzero;"/>
        </g>
    </g>
</svg>
