<?xml version="1.0" encoding="UTF-8" standalone="no"?>
<!DOCTYPE svg PUBLIC "-//W3C//DTD SVG 1.1//EN" "http://www.w3.org/Graphics/SVG/1.1/DTD/svg11.dtd">
<svg width="100%" height="100%" viewBox="0 0 800 800" version="1.1" xmlns="http://www.w3.org/2000/svg" xmlns:xlink="http://www.w3.org/1999/xlink" xml:space="preserve" xmlns:serif="http://www.serif.com/" style="fill-rule:evenodd;clip-rule:evenodd;stroke-linejoin:round;stroke-miterlimit:2;">
    <rect id="Mesa-de-trabajo1" serif:id="Mesa de trabajo1" x="0" y="0" width="800" height="800" style="fill:none;"/>
    <g id="Mesa-de-trabajo11" serif:id="Mesa de trabajo1">
        <g transform="matrix(1.81119,0,0,1.81119,-2022.75,-565.067)">
            <path d="M1426.14,585.175C1426.14,605.011 1410.04,621.111 1390.2,621.111L1289.58,621.111C1269.75,621.111 1253.65,605.011 1253.65,585.175L1253.65,484.555C1253.65,464.719 1269.75,448.62 1289.58,448.62L1390.2,448.62C1410.04,448.62 1426.14,464.719 1426.14,484.555L1426.14,585.175ZM1393.8,430.652L1285.99,430.652C1258.21,430.652 1235.68,453.183 1235.68,480.962L1235.68,588.769C1235.68,616.547 1258.21,639.078 1285.99,639.078L1393.8,639.078C1421.57,639.078 1444.11,616.547 1444.11,588.769L1444.11,480.962C1444.11,453.183 1421.57,430.652 1393.8,430.652Z" style="fill:rgb(0,2,11);fill-rule:nonzero;"/>
        </g>
        <g transform="matrix(1.81119,0,0,1.81119,-2022.75,-565.067)">
            <path d="M1339.89,570.801C1320.09,570.801 1303.96,554.666 1303.96,534.865C1303.96,515.065 1320.09,498.93 1339.89,498.93C1359.69,498.93 1375.83,515.065 1375.83,534.865C1375.83,554.666 1359.69,570.801 1339.89,570.801ZM1339.89,480.962C1310.14,480.962 1285.99,505.11 1285.99,534.865C1285.99,564.62 1310.14,588.769 1339.89,588.769C1369.65,588.769 1393.8,564.62 1393.8,534.865C1393.8,505.11 1369.65,480.962 1339.89,480.962Z" style="fill:rgb(0,2,11);fill-rule:nonzero;"/>
        </g>
        <g transform="matrix(1.81119,0,0,1.81119,-2022.75,-565.067)">
            <path d="M1397.39,488.149C1391.44,488.149 1386.61,483.313 1386.61,477.368C1386.61,471.424 1391.44,466.588 1397.39,466.588C1403.33,466.588 1408.17,471.424 1408.17,477.368C1408.17,483.313 1403.33,488.149 1397.39,488.149Z" style="fill:rgb(0,2,11);fill-rule:nonzero;"/>
        </g>
        <g transform="matrix(1.81119,0,0,1.81119,-2022.75,-565.067)">
            <path d="M1525.59,692.18C1525.59,707.944 1512.77,720.772 1497,720.772L1182.38,720.772C1166.61,720.772 1153.78,707.944 1153.78,692.18L1153.78,377.553C1153.78,361.789 1166.61,348.961 1182.38,348.961L1497,348.961C1512.77,348.961 1525.59,361.789 1525.59,377.553L1525.59,692.18ZM1497,329.899L1182.38,329.899C1156.06,329.899 1134.72,351.239 1134.72,377.553L1134.72,692.18C1134.72,718.495 1156.06,739.834 1182.38,739.834L1497,739.834C1523.32,739.834 1544.66,718.495 1544.66,692.18L1544.66,377.553C1544.66,351.239 1523.32,329.899 1497,329.899Z" style="fill:rgb(0,2,11);fill-rule:nonzero;"/>
        </g>
    </g>
</svg>
