<?xml version="1.0" encoding="UTF-8" standalone="no"?>
<!DOCTYPE svg PUBLIC "-//W3C//DTD SVG 1.1//EN" "http://www.w3.org/Graphics/SVG/1.1/DTD/svg11.dtd">
<svg width="100%" height="100%" viewBox="0 0 800 800" version="1.1" xmlns="http://www.w3.org/2000/svg" xmlns:xlink="http://www.w3.org/1999/xlink" xml:space="preserve" xmlns:serif="http://www.serif.com/" style="fill-rule:evenodd;clip-rule:evenodd;stroke-linejoin:round;stroke-miterlimit:2;">
    <rect id="Mesa-de-trabajo1" serif:id="Mesa de trabajo1" x="0" y="0" width="800" height="800" style="fill:none;"/>
    <g id="Mesa-de-trabajo11" serif:id="Mesa de trabajo1">
        <g transform="matrix(1.82126,0,0,1.82126,-2032.56,-1597.65)">
            <path d="M1295.11,1027.5C1295.11,1041.63 1283.66,1053.09 1269.52,1053.09C1255.39,1053.09 1243.93,1041.63 1243.93,1027.5C1243.93,1013.37 1255.39,1001.91 1269.52,1001.91C1283.66,1001.91 1295.11,1013.37 1295.11,1027.5Z" style="fill:rgb(0,2,11);fill-rule:nonzero;"/>
            <path d="M1288.94,1198.09L1250.1,1198.09C1249.05,1198.09 1248.2,1197.24 1248.2,1196.18L1248.2,1072.05C1248.2,1071 1249.05,1070.15 1250.1,1070.15L1288.94,1070.15C1289.99,1070.15 1290.85,1071 1290.85,1072.05L1290.85,1196.18C1290.85,1197.24 1289.99,1198.09 1288.94,1198.09Z" style="fill:rgb(0,2,11);fill-rule:nonzero;"/>
            <path d="M1435.85,1117.06L1435.85,1189.56C1435.85,1194.25 1432.01,1198.09 1427.32,1198.09L1401.73,1198.09C1397.04,1198.09 1393.2,1194.25 1393.2,1189.56L1393.2,1129.85C1393.2,1118.08 1383.65,1108.53 1371.88,1108.53C1360.11,1108.53 1350.55,1118.08 1350.55,1129.85L1350.55,1189.56C1350.55,1194.25 1346.72,1198.09 1342.02,1198.09L1316.44,1198.09C1311.74,1198.09 1307.91,1194.25 1307.91,1189.56L1307.91,1078.68C1307.91,1073.98 1311.74,1070.15 1316.44,1070.15L1342.02,1070.15C1346.72,1070.15 1350.55,1073.98 1350.55,1078.68L1350.55,1084.13C1359.08,1073.09 1373.2,1065.88 1388.94,1065.88C1412.48,1065.88 1435.85,1082.94 1435.85,1117.06Z" style="fill:rgb(0,2,11);fill-rule:nonzero;"/>
            <path d="M1525.59,1257.31C1525.59,1273.08 1512.77,1285.91 1497,1285.91L1182.38,1285.91C1166.61,1285.91 1153.78,1273.08 1153.78,1257.31L1153.78,942.687C1153.78,926.923 1166.61,914.094 1182.38,914.094L1497,914.094C1512.77,914.094 1525.59,926.923 1525.59,942.687L1525.59,1257.31ZM1497,895.032L1182.38,895.032C1156.06,895.032 1134.72,916.372 1134.72,942.687L1134.72,1257.31C1134.72,1283.63 1156.06,1304.97 1182.38,1304.97L1497,1304.97C1523.32,1304.97 1544.66,1283.63 1544.66,1257.31L1544.66,942.687C1544.66,916.372 1523.32,895.032 1497,895.032Z" style="fill:rgb(0,2,11);fill-rule:nonzero;"/>
        </g>
    </g>
</svg>
