<svg xmlns="http://www.w3.org/2000/svg" viewBox="0 0 1152 738" role="img" aria-label="Nube pixelada de metarrelato entre piezas de tetris de colores"><defs><linearGradient id="mtbg" x1="0" y1="0" x2="0" y2="1"><stop offset="0" stop-color="#1d1545"/><stop offset="1" stop-color="#0d0a24"/></linearGradient></defs><rect width="1152" height="738" fill="url(#mtbg)"/><rect x="90" y="80" width="8" height="8" fill="#ffffff" opacity="0.35"/><rect x="300" y="40" width="8" height="8" fill="#ffffff" opacity="0.35"/><rect x="520" y="120" width="8" height="8" fill="#ffffff" opacity="0.35"/><rect x="700" y="60" width="8" height="8" fill="#ffffff" opacity="0.35"/><rect x="980" y="90" width="8" height="8" fill="#ffffff" opacity="0.35"/><rect x="1080" y="200" width="8" height="8" fill="#ffffff" opacity="0.35"/><rect x="160" y="240" width="8" height="8" fill="#ffffff" opacity="0.35"/><rect x="420" y="210" width="8" height="8" fill="#ffffff" opacity="0.35"/><rect x="860" y="170" width="8" height="8" fill="#ffffff" opacity="0.35"/><rect x="60" y="420" width="8" height="8" fill="#ffffff" opacity="0.35"/><rect x="1010" y="380" width="8" height="8" fill="#ffffff" opacity="0.35"/><rect x="250" y="100" width="8" height="8" fill="#ffffff" opacity="0.35"/><rect x="0" y="702" width="36" height="36" fill="#ff5c3c"/><rect x="0" y="702" width="36" height="6" fill="#ff9d85"/><rect x="0" y="702" width="6" height="36" fill="#ff9d85"/><rect x="0" y="732" width="36" height="6" fill="#b02c14"/><rect x="30" y="702" width="6" height="36" fill="#b02c14"/><rect x="0" y="666" width="36" height="36" fill="#ff5c3c"/><rect x="0" y="666" width="36" height="6" fill="#ff9d85"/><rect x="0" y="666" width="6" height="36" fill="#ff9d85"/><rect x="0" y="696" width="36" height="6" fill="#b02c14"/><rect x="30" y="666" width="6" height="36" fill="#b02c14"/><rect x="0" y="630" width="36" height="36" fill="#43d34f"/><rect x="0" y="630" width="36" height="6" fill="#93eb9b"/><rect x="0" y="630" width="6" height="36" fill="#93eb9b"/><rect x="0" y="660" width="36" height="6" fill="#1f8a2a"/><rect x="30" y="630" width="6" height="36" fill="#1f8a2a"/><rect x="36" y="702" width="36" height="36" fill="#ff5c3c"/><rect x="36" y="702" width="36" height="6" fill="#ff9d85"/><rect x="36" y="702" width="6" height="36" fill="#ff9d85"/><rect x="36" y="732" width="36" height="6" fill="#b02c14"/><rect x="66" y="702" width="6" height="36" fill="#b02c14"/><rect x="36" y="666" width="36" height="36" fill="#43d34f"/><rect x="36" y="666" width="36" height="6" fill="#93eb9b"/><rect x="36" y="666" width="6" height="36" fill="#93eb9b"/><rect x="36" y="696" width="36" height="6" fill="#1f8a2a"/><rect x="66" y="666" width="6" height="36" fill="#1f8a2a"/><rect x="36" y="630" width="36" height="36" fill="#43d34f"/><rect x="36" y="630" width="36" height="6" fill="#93eb9b"/><rect x="36" y="630" width="6" height="36" fill="#93eb9b"/><rect x="36" y="660" width="36" height="6" fill="#1f8a2a"/><rect x="66" y="630" width="6" height="36" fill="#1f8a2a"/><rect x="72" y="702" width="36" height="36" fill="#3f7bf6"/><rect x="72" y="702" width="36" height="6" fill="#92b4ff"/><rect x="72" y="702" width="6" height="36" fill="#92b4ff"/><rect x="72" y="732" width="36" height="6" fill="#1f47a8"/><rect x="102" y="702" width="6" height="36" fill="#1f47a8"/><rect x="72" y="666" width="36" height="36" fill="#3f7bf6"/><rect x="72" y="666" width="36" height="6" fill="#92b4ff"/><rect x="72" y="666" width="6" height="36" fill="#92b4ff"/><rect x="72" y="696" width="36" height="6" fill="#1f47a8"/><rect x="102" y="666" width="6" height="36" fill="#1f47a8"/><rect x="108" y="702" width="36" height="36" fill="#3f7bf6"/><rect x="108" y="702" width="36" height="6" fill="#92b4ff"/><rect x="108" y="702" width="6" height="36" fill="#92b4ff"/><rect x="108" y="732" width="36" height="6" fill="#1f47a8"/><rect x="138" y="702" width="6" height="36" fill="#1f47a8"/><rect x="108" y="666" width="36" height="36" fill="#ffcf35"/><rect x="108" y="666" width="36" height="6" fill="#ffe98c"/><rect x="108" y="666" width="6" height="36" fill="#ffe98c"/><rect x="108" y="696" width="36" height="6" fill="#b8860e"/><rect x="138" y="666" width="6" height="36" fill="#b8860e"/><rect x="108" y="630" width="36" height="36" fill="#ffcf35"/><rect x="108" y="630" width="36" height="6" fill="#ffe98c"/><rect x="108" y="630" width="6" height="36" fill="#ffe98c"/><rect x="108" y="660" width="36" height="6" fill="#b8860e"/><rect x="138" y="630" width="6" height="36" fill="#b8860e"/><rect x="144" y="702" width="36" height="36" fill="#3f7bf6"/><rect x="144" y="702" width="36" height="6" fill="#92b4ff"/><rect x="144" y="702" width="6" height="36" fill="#92b4ff"/><rect x="144" y="732" width="36" height="6" fill="#1f47a8"/><rect x="174" y="702" width="6" height="36" fill="#1f47a8"/><rect x="144" y="666" width="36" height="36" fill="#ffcf35"/><rect x="144" y="666" width="36" height="6" fill="#ffe98c"/><rect x="144" y="666" width="6" height="36" fill="#ffe98c"/><rect x="144" y="696" width="36" height="6" fill="#b8860e"/><rect x="174" y="666" width="6" height="36" fill="#b8860e"/><rect x="144" y="630" width="36" height="36" fill="#ffcf35"/><rect x="144" y="630" width="36" height="6" fill="#ffe98c"/><rect x="144" y="630" width="6" height="36" fill="#ffe98c"/><rect x="144" y="660" width="36" height="6" fill="#b8860e"/><rect x="174" y="630" width="6" height="36" fill="#b8860e"/><rect x="144" y="594" width="36" height="36" fill="#9d5cf0"/><rect x="144" y="594" width="36" height="6" fill="#c9a0ff"/><rect x="144" y="594" width="6" height="36" fill="#c9a0ff"/><rect x="144" y="624" width="36" height="6" fill="#5f2e9e"/><rect x="174" y="594" width="6" height="36" fill="#5f2e9e"/><rect x="180" y="702" width="36" height="36" fill="#ff9426"/><rect x="180" y="702" width="36" height="6" fill="#ffc275"/><rect x="180" y="702" width="6" height="36" fill="#ffc275"/><rect x="180" y="732" width="36" height="6" fill="#b55c0a"/><rect x="210" y="702" width="6" height="36" fill="#b55c0a"/><rect x="180" y="666" width="36" height="36" fill="#ff9426"/><rect x="180" y="666" width="36" height="6" fill="#ffc275"/><rect x="180" y="666" width="6" height="36" fill="#ffc275"/><rect x="180" y="696" width="36" height="6" fill="#b55c0a"/><rect x="210" y="666" width="6" height="36" fill="#b55c0a"/><rect x="180" y="630" width="36" height="36" fill="#9d5cf0"/><rect x="180" y="630" width="36" height="6" fill="#c9a0ff"/><rect x="180" y="630" width="6" height="36" fill="#c9a0ff"/><rect x="180" y="660" width="36" height="6" fill="#5f2e9e"/><rect x="210" y="630" width="6" height="36" fill="#5f2e9e"/><rect x="180" y="594" width="36" height="36" fill="#9d5cf0"/><rect x="180" y="594" width="36" height="6" fill="#c9a0ff"/><rect x="180" y="594" width="6" height="36" fill="#c9a0ff"/><rect x="180" y="624" width="36" height="6" fill="#5f2e9e"/><rect x="210" y="594" width="6" height="36" fill="#5f2e9e"/><rect x="216" y="702" width="36" height="36" fill="#ff9426"/><rect x="216" y="702" width="36" height="6" fill="#ffc275"/><rect x="216" y="702" width="6" height="36" fill="#ffc275"/><rect x="216" y="732" width="36" height="6" fill="#b55c0a"/><rect x="246" y="702" width="6" height="36" fill="#b55c0a"/><rect x="216" y="666" width="36" height="36" fill="#2fd4e6"/><rect x="216" y="666" width="36" height="6" fill="#8ff0fa"/><rect x="216" y="666" width="6" height="36" fill="#8ff0fa"/><rect x="216" y="696" width="36" height="6" fill="#17808f"/><rect x="246" y="666" width="6" height="36" fill="#17808f"/><rect x="216" y="630" width="36" height="36" fill="#9d5cf0"/><rect x="216" y="630" width="36" height="6" fill="#c9a0ff"/><rect x="216" y="630" width="6" height="36" fill="#c9a0ff"/><rect x="216" y="660" width="36" height="6" fill="#5f2e9e"/><rect x="246" y="630" width="6" height="36" fill="#5f2e9e"/><rect x="252" y="702" width="36" height="36" fill="#ff9426"/><rect x="252" y="702" width="36" height="6" fill="#ffc275"/><rect x="252" y="702" width="6" height="36" fill="#ffc275"/><rect x="252" y="732" width="36" height="6" fill="#b55c0a"/><rect x="282" y="702" width="6" height="36" fill="#b55c0a"/><rect x="252" y="666" width="36" height="36" fill="#2fd4e6"/><rect x="252" y="666" width="36" height="6" fill="#8ff0fa"/><rect x="252" y="666" width="6" height="36" fill="#8ff0fa"/><rect x="252" y="696" width="36" height="6" fill="#17808f"/><rect x="282" y="666" width="6" height="36" fill="#17808f"/><rect x="288" y="702" width="36" height="36" fill="#2fd4e6"/><rect x="288" y="702" width="36" height="6" fill="#8ff0fa"/><rect x="288" y="702" width="6" height="36" fill="#8ff0fa"/><rect x="288" y="732" width="36" height="6" fill="#17808f"/><rect x="318" y="702" width="6" height="36" fill="#17808f"/><rect x="288" y="666" width="36" height="36" fill="#2fd4e6"/><rect x="288" y="666" width="36" height="6" fill="#8ff0fa"/><rect x="288" y="666" width="6" height="36" fill="#8ff0fa"/><rect x="288" y="696" width="36" height="6" fill="#17808f"/><rect x="318" y="666" width="6" height="36" fill="#17808f"/><rect x="324" y="702" width="36" height="36" fill="#2fd4e6"/><rect x="324" y="702" width="36" height="6" fill="#8ff0fa"/><rect x="324" y="702" width="6" height="36" fill="#8ff0fa"/><rect x="324" y="732" width="36" height="6" fill="#17808f"/><rect x="354" y="702" width="6" height="36" fill="#17808f"/><rect x="360" y="702" width="36" height="36" fill="#ffcf35"/><rect x="360" y="702" width="36" height="6" fill="#ffe98c"/><rect x="360" y="702" width="6" height="36" fill="#ffe98c"/><rect x="360" y="732" width="36" height="6" fill="#b8860e"/><rect x="390" y="702" width="6" height="36" fill="#b8860e"/><rect x="360" y="666" width="36" height="36" fill="#ffcf35"/><rect x="360" y="666" width="36" height="6" fill="#ffe98c"/><rect x="360" y="666" width="6" height="36" fill="#ffe98c"/><rect x="360" y="696" width="36" height="6" fill="#b8860e"/><rect x="390" y="666" width="6" height="36" fill="#b8860e"/><rect x="396" y="702" width="36" height="36" fill="#ffcf35"/><rect x="396" y="702" width="36" height="6" fill="#ffe98c"/><rect x="396" y="702" width="6" height="36" fill="#ffe98c"/><rect x="396" y="732" width="36" height="6" fill="#b8860e"/><rect x="426" y="702" width="6" height="36" fill="#b8860e"/><rect x="396" y="666" width="36" height="36" fill="#ffcf35"/><rect x="396" y="666" width="36" height="6" fill="#ffe98c"/><rect x="396" y="666" width="6" height="36" fill="#ffe98c"/><rect x="396" y="696" width="36" height="6" fill="#b8860e"/><rect x="426" y="666" width="6" height="36" fill="#b8860e"/><rect x="396" y="630" width="36" height="36" fill="#ff5c3c"/><rect x="396" y="630" width="36" height="6" fill="#ff9d85"/><rect x="396" y="630" width="6" height="36" fill="#ff9d85"/><rect x="396" y="660" width="36" height="6" fill="#b02c14"/><rect x="426" y="630" width="6" height="36" fill="#b02c14"/><rect x="432" y="702" width="36" height="36" fill="#43d34f"/><rect x="432" y="702" width="36" height="6" fill="#93eb9b"/><rect x="432" y="702" width="6" height="36" fill="#93eb9b"/><rect x="432" y="732" width="36" height="6" fill="#1f8a2a"/><rect x="462" y="702" width="6" height="36" fill="#1f8a2a"/><rect x="432" y="666" width="36" height="36" fill="#ff5c3c"/><rect x="432" y="666" width="36" height="6" fill="#ff9d85"/><rect x="432" y="666" width="6" height="36" fill="#ff9d85"/><rect x="432" y="696" width="36" height="6" fill="#b02c14"/><rect x="462" y="666" width="6" height="36" fill="#b02c14"/><rect x="432" y="630" width="36" height="36" fill="#ff5c3c"/><rect x="432" y="630" width="36" height="6" fill="#ff9d85"/><rect x="432" y="630" width="6" height="36" fill="#ff9d85"/><rect x="432" y="660" width="36" height="6" fill="#b02c14"/><rect x="462" y="630" width="6" height="36" fill="#b02c14"/><rect x="468" y="702" width="36" height="36" fill="#43d34f"/><rect x="468" y="702" width="36" height="6" fill="#93eb9b"/><rect x="468" y="702" width="6" height="36" fill="#93eb9b"/><rect x="468" y="732" width="36" height="6" fill="#1f8a2a"/><rect x="498" y="702" width="6" height="36" fill="#1f8a2a"/><rect x="468" y="666" width="36" height="36" fill="#43d34f"/><rect x="468" y="666" width="36" height="6" fill="#93eb9b"/><rect x="468" y="666" width="6" height="36" fill="#93eb9b"/><rect x="468" y="696" width="36" height="6" fill="#1f8a2a"/><rect x="498" y="666" width="6" height="36" fill="#1f8a2a"/><rect x="504" y="702" width="36" height="36" fill="#9d5cf0"/><rect x="504" y="702" width="36" height="6" fill="#c9a0ff"/><rect x="504" y="702" width="6" height="36" fill="#c9a0ff"/><rect x="504" y="732" width="36" height="6" fill="#5f2e9e"/><rect x="534" y="702" width="6" height="36" fill="#5f2e9e"/><rect x="504" y="666" width="36" height="36" fill="#43d34f"/><rect x="504" y="666" width="36" height="6" fill="#93eb9b"/><rect x="504" y="666" width="6" height="36" fill="#93eb9b"/><rect x="504" y="696" width="36" height="6" fill="#1f8a2a"/><rect x="534" y="666" width="6" height="36" fill="#1f8a2a"/><rect x="540" y="702" width="36" height="36" fill="#9d5cf0"/><rect x="540" y="702" width="36" height="6" fill="#c9a0ff"/><rect x="540" y="702" width="6" height="36" fill="#c9a0ff"/><rect x="540" y="732" width="36" height="6" fill="#5f2e9e"/><rect x="570" y="702" width="6" height="36" fill="#5f2e9e"/><rect x="540" y="666" width="36" height="36" fill="#9d5cf0"/><rect x="540" y="666" width="36" height="6" fill="#c9a0ff"/><rect x="540" y="666" width="6" height="36" fill="#c9a0ff"/><rect x="540" y="696" width="36" height="6" fill="#5f2e9e"/><rect x="570" y="666" width="6" height="36" fill="#5f2e9e"/><rect x="540" y="630" width="36" height="36" fill="#3f7bf6"/><rect x="540" y="630" width="36" height="6" fill="#92b4ff"/><rect x="540" y="630" width="6" height="36" fill="#92b4ff"/><rect x="540" y="660" width="36" height="6" fill="#1f47a8"/><rect x="570" y="630" width="6" height="36" fill="#1f47a8"/><rect x="576" y="702" width="36" height="36" fill="#9d5cf0"/><rect x="576" y="702" width="36" height="6" fill="#c9a0ff"/><rect x="576" y="702" width="6" height="36" fill="#c9a0ff"/><rect x="576" y="732" width="36" height="6" fill="#5f2e9e"/><rect x="606" y="702" width="6" height="36" fill="#5f2e9e"/><rect x="576" y="666" width="36" height="36" fill="#3f7bf6"/><rect x="576" y="666" width="36" height="6" fill="#92b4ff"/><rect x="576" y="666" width="6" height="36" fill="#92b4ff"/><rect x="576" y="696" width="36" height="6" fill="#1f47a8"/><rect x="606" y="666" width="6" height="36" fill="#1f47a8"/><rect x="576" y="630" width="36" height="36" fill="#3f7bf6"/><rect x="576" y="630" width="36" height="6" fill="#92b4ff"/><rect x="576" y="630" width="6" height="36" fill="#92b4ff"/><rect x="576" y="660" width="36" height="6" fill="#1f47a8"/><rect x="606" y="630" width="6" height="36" fill="#1f47a8"/><rect x="612" y="702" width="36" height="36" fill="#ff5c3c"/><rect x="612" y="702" width="36" height="6" fill="#ff9d85"/><rect x="612" y="702" width="6" height="36" fill="#ff9d85"/><rect x="612" y="732" width="36" height="6" fill="#b02c14"/><rect x="642" y="702" width="6" height="36" fill="#b02c14"/><rect x="612" y="666" width="36" height="36" fill="#3f7bf6"/><rect x="612" y="666" width="36" height="6" fill="#92b4ff"/><rect x="612" y="666" width="6" height="36" fill="#92b4ff"/><rect x="612" y="696" width="36" height="6" fill="#1f47a8"/><rect x="642" y="666" width="6" height="36" fill="#1f47a8"/><rect x="648" y="702" width="36" height="36" fill="#ff5c3c"/><rect x="648" y="702" width="36" height="6" fill="#ff9d85"/><rect x="648" y="702" width="6" height="36" fill="#ff9d85"/><rect x="648" y="732" width="36" height="6" fill="#b02c14"/><rect x="678" y="702" width="6" height="36" fill="#b02c14"/><rect x="648" y="666" width="36" height="36" fill="#ff5c3c"/><rect x="648" y="666" width="36" height="6" fill="#ff9d85"/><rect x="648" y="666" width="6" height="36" fill="#ff9d85"/><rect x="648" y="696" width="36" height="6" fill="#b02c14"/><rect x="678" y="666" width="6" height="36" fill="#b02c14"/><rect x="684" y="702" width="36" height="36" fill="#2fd4e6"/><rect x="684" y="702" width="36" height="6" fill="#8ff0fa"/><rect x="684" y="702" width="6" height="36" fill="#8ff0fa"/><rect x="684" y="732" width="36" height="6" fill="#17808f"/><rect x="714" y="702" width="6" height="36" fill="#17808f"/><rect x="684" y="666" width="36" height="36" fill="#ff5c3c"/><rect x="684" y="666" width="36" height="6" fill="#ff9d85"/><rect x="684" y="666" width="6" height="36" fill="#ff9d85"/><rect x="684" y="696" width="36" height="6" fill="#b02c14"/><rect x="714" y="666" width="6" height="36" fill="#b02c14"/><rect x="720" y="702" width="36" height="36" fill="#2fd4e6"/><rect x="720" y="702" width="36" height="6" fill="#8ff0fa"/><rect x="720" y="702" width="6" height="36" fill="#8ff0fa"/><rect x="720" y="732" width="36" height="6" fill="#17808f"/><rect x="750" y="702" width="6" height="36" fill="#17808f"/><rect x="720" y="666" width="36" height="36" fill="#ff9426"/><rect x="720" y="666" width="36" height="6" fill="#ffc275"/><rect x="720" y="666" width="6" height="36" fill="#ffc275"/><rect x="720" y="696" width="36" height="6" fill="#b55c0a"/><rect x="750" y="666" width="6" height="36" fill="#b55c0a"/><rect x="720" y="630" width="36" height="36" fill="#ff9426"/><rect x="720" y="630" width="36" height="6" fill="#ffc275"/><rect x="720" y="630" width="6" height="36" fill="#ffc275"/><rect x="720" y="660" width="36" height="6" fill="#b55c0a"/><rect x="750" y="630" width="6" height="36" fill="#b55c0a"/><rect x="756" y="702" width="36" height="36" fill="#2fd4e6"/><rect x="756" y="702" width="36" height="6" fill="#8ff0fa"/><rect x="756" y="702" width="6" height="36" fill="#8ff0fa"/><rect x="756" y="732" width="36" height="6" fill="#17808f"/><rect x="786" y="702" width="6" height="36" fill="#17808f"/><rect x="756" y="666" width="36" height="36" fill="#ff9426"/><rect x="756" y="666" width="36" height="6" fill="#ffc275"/><rect x="756" y="666" width="6" height="36" fill="#ffc275"/><rect x="756" y="696" width="36" height="6" fill="#b55c0a"/><rect x="786" y="666" width="6" height="36" fill="#b55c0a"/><rect x="792" y="702" width="36" height="36" fill="#2fd4e6"/><rect x="792" y="702" width="36" height="6" fill="#8ff0fa"/><rect x="792" y="702" width="6" height="36" fill="#8ff0fa"/><rect x="792" y="732" width="36" height="6" fill="#17808f"/><rect x="822" y="702" width="6" height="36" fill="#17808f"/><rect x="792" y="666" width="36" height="36" fill="#ff9426"/><rect x="792" y="666" width="36" height="6" fill="#ffc275"/><rect x="792" y="666" width="6" height="36" fill="#ffc275"/><rect x="792" y="696" width="36" height="6" fill="#b55c0a"/><rect x="822" y="666" width="6" height="36" fill="#b55c0a"/><rect x="792" y="630" width="36" height="36" fill="#ffcf35"/><rect x="792" y="630" width="36" height="6" fill="#ffe98c"/><rect x="792" y="630" width="6" height="36" fill="#ffe98c"/><rect x="792" y="660" width="36" height="6" fill="#b8860e"/><rect x="822" y="630" width="6" height="36" fill="#b8860e"/><rect x="828" y="702" width="36" height="36" fill="#3f7bf6"/><rect x="828" y="702" width="36" height="6" fill="#92b4ff"/><rect x="828" y="702" width="6" height="36" fill="#92b4ff"/><rect x="828" y="732" width="36" height="6" fill="#1f47a8"/><rect x="858" y="702" width="6" height="36" fill="#1f47a8"/><rect x="828" y="666" width="36" height="36" fill="#ffcf35"/><rect x="828" y="666" width="36" height="6" fill="#ffe98c"/><rect x="828" y="666" width="6" height="36" fill="#ffe98c"/><rect x="828" y="696" width="36" height="6" fill="#b8860e"/><rect x="858" y="666" width="6" height="36" fill="#b8860e"/><rect x="828" y="630" width="36" height="36" fill="#ffcf35"/><rect x="828" y="630" width="36" height="6" fill="#ffe98c"/><rect x="828" y="630" width="6" height="36" fill="#ffe98c"/><rect x="828" y="660" width="36" height="6" fill="#b8860e"/><rect x="858" y="630" width="6" height="36" fill="#b8860e"/><rect x="864" y="702" width="36" height="36" fill="#3f7bf6"/><rect x="864" y="702" width="36" height="6" fill="#92b4ff"/><rect x="864" y="702" width="6" height="36" fill="#92b4ff"/><rect x="864" y="732" width="36" height="6" fill="#1f47a8"/><rect x="894" y="702" width="6" height="36" fill="#1f47a8"/><rect x="864" y="666" width="36" height="36" fill="#3f7bf6"/><rect x="864" y="666" width="36" height="6" fill="#92b4ff"/><rect x="864" y="666" width="6" height="36" fill="#92b4ff"/><rect x="864" y="696" width="36" height="6" fill="#1f47a8"/><rect x="894" y="666" width="6" height="36" fill="#1f47a8"/><rect x="864" y="630" width="36" height="36" fill="#ffcf35"/><rect x="864" y="630" width="36" height="6" fill="#ffe98c"/><rect x="864" y="630" width="6" height="36" fill="#ffe98c"/><rect x="864" y="660" width="36" height="6" fill="#b8860e"/><rect x="894" y="630" width="6" height="36" fill="#b8860e"/><rect x="864" y="594" width="36" height="36" fill="#43d34f"/><rect x="864" y="594" width="36" height="6" fill="#93eb9b"/><rect x="864" y="594" width="6" height="36" fill="#93eb9b"/><rect x="864" y="624" width="36" height="6" fill="#1f8a2a"/><rect x="894" y="594" width="6" height="36" fill="#1f8a2a"/><rect x="900" y="702" width="36" height="36" fill="#43d34f"/><rect x="900" y="702" width="36" height="6" fill="#93eb9b"/><rect x="900" y="702" width="6" height="36" fill="#93eb9b"/><rect x="900" y="732" width="36" height="6" fill="#1f8a2a"/><rect x="930" y="702" width="6" height="36" fill="#1f8a2a"/><rect x="900" y="666" width="36" height="36" fill="#3f7bf6"/><rect x="900" y="666" width="36" height="6" fill="#92b4ff"/><rect x="900" y="666" width="6" height="36" fill="#92b4ff"/><rect x="900" y="696" width="36" height="6" fill="#1f47a8"/><rect x="930" y="666" width="6" height="36" fill="#1f47a8"/><rect x="900" y="630" width="36" height="36" fill="#43d34f"/><rect x="900" y="630" width="36" height="6" fill="#93eb9b"/><rect x="900" y="630" width="6" height="36" fill="#93eb9b"/><rect x="900" y="660" width="36" height="6" fill="#1f8a2a"/><rect x="930" y="630" width="6" height="36" fill="#1f8a2a"/><rect x="900" y="594" width="36" height="36" fill="#43d34f"/><rect x="900" y="594" width="36" height="6" fill="#93eb9b"/><rect x="900" y="594" width="6" height="36" fill="#93eb9b"/><rect x="900" y="624" width="36" height="6" fill="#1f8a2a"/><rect x="930" y="594" width="6" height="36" fill="#1f8a2a"/><rect x="936" y="702" width="36" height="36" fill="#43d34f"/><rect x="936" y="702" width="36" height="6" fill="#93eb9b"/><rect x="936" y="702" width="6" height="36" fill="#93eb9b"/><rect x="936" y="732" width="36" height="6" fill="#1f8a2a"/><rect x="966" y="702" width="6" height="36" fill="#1f8a2a"/><rect x="936" y="666" width="36" height="36" fill="#9d5cf0"/><rect x="936" y="666" width="36" height="6" fill="#c9a0ff"/><rect x="936" y="666" width="6" height="36" fill="#c9a0ff"/><rect x="936" y="696" width="36" height="6" fill="#5f2e9e"/><rect x="966" y="666" width="6" height="36" fill="#5f2e9e"/><rect x="972" y="702" width="36" height="36" fill="#ffcf35"/><rect x="972" y="702" width="36" height="6" fill="#ffe98c"/><rect x="972" y="702" width="6" height="36" fill="#ffe98c"/><rect x="972" y="732" width="36" height="6" fill="#b8860e"/><rect x="1002" y="702" width="6" height="36" fill="#b8860e"/><rect x="972" y="666" width="36" height="36" fill="#9d5cf0"/><rect x="972" y="666" width="36" height="6" fill="#c9a0ff"/><rect x="972" y="666" width="6" height="36" fill="#c9a0ff"/><rect x="972" y="696" width="36" height="6" fill="#5f2e9e"/><rect x="1002" y="666" width="6" height="36" fill="#5f2e9e"/><rect x="972" y="630" width="36" height="36" fill="#9d5cf0"/><rect x="972" y="630" width="36" height="6" fill="#c9a0ff"/><rect x="972" y="630" width="6" height="36" fill="#c9a0ff"/><rect x="972" y="660" width="36" height="6" fill="#5f2e9e"/><rect x="1002" y="630" width="6" height="36" fill="#5f2e9e"/><rect x="1008" y="702" width="36" height="36" fill="#ffcf35"/><rect x="1008" y="702" width="36" height="6" fill="#ffe98c"/><rect x="1008" y="702" width="6" height="36" fill="#ffe98c"/><rect x="1008" y="732" width="36" height="6" fill="#b8860e"/><rect x="1038" y="702" width="6" height="36" fill="#b8860e"/><rect x="1008" y="666" width="36" height="36" fill="#ffcf35"/><rect x="1008" y="666" width="36" height="6" fill="#ffe98c"/><rect x="1008" y="666" width="6" height="36" fill="#ffe98c"/><rect x="1008" y="696" width="36" height="6" fill="#b8860e"/><rect x="1038" y="666" width="6" height="36" fill="#b8860e"/><rect x="1008" y="630" width="36" height="36" fill="#9d5cf0"/><rect x="1008" y="630" width="36" height="6" fill="#c9a0ff"/><rect x="1008" y="630" width="6" height="36" fill="#c9a0ff"/><rect x="1008" y="660" width="36" height="6" fill="#5f2e9e"/><rect x="1038" y="630" width="6" height="36" fill="#5f2e9e"/><rect x="1044" y="702" width="36" height="36" fill="#ff5c3c"/><rect x="1044" y="702" width="36" height="6" fill="#ff9d85"/><rect x="1044" y="702" width="6" height="36" fill="#ff9d85"/><rect x="1044" y="732" width="36" height="6" fill="#b02c14"/><rect x="1074" y="702" width="6" height="36" fill="#b02c14"/><rect x="1044" y="666" width="36" height="36" fill="#ffcf35"/><rect x="1044" y="666" width="36" height="6" fill="#ffe98c"/><rect x="1044" y="666" width="6" height="36" fill="#ffe98c"/><rect x="1044" y="696" width="36" height="6" fill="#b8860e"/><rect x="1074" y="666" width="6" height="36" fill="#b8860e"/><rect x="1080" y="702" width="36" height="36" fill="#ff5c3c"/><rect x="1080" y="702" width="36" height="6" fill="#ff9d85"/><rect x="1080" y="702" width="6" height="36" fill="#ff9d85"/><rect x="1080" y="732" width="36" height="6" fill="#b02c14"/><rect x="1110" y="702" width="6" height="36" fill="#b02c14"/><rect x="1080" y="666" width="36" height="36" fill="#ff5c3c"/><rect x="1080" y="666" width="36" height="6" fill="#ff9d85"/><rect x="1080" y="666" width="6" height="36" fill="#ff9d85"/><rect x="1080" y="696" width="36" height="6" fill="#b02c14"/><rect x="1110" y="666" width="6" height="36" fill="#b02c14"/><rect x="1116" y="702" width="36" height="36" fill="#ff5c3c"/><rect x="1116" y="702" width="36" height="6" fill="#ff9d85"/><rect x="1116" y="702" width="6" height="36" fill="#ff9d85"/><rect x="1116" y="732" width="36" height="6" fill="#b02c14"/><rect x="1146" y="702" width="6" height="36" fill="#b02c14"/><rect x="828" y="144" width="36" height="36" fill="#9d5cf0"/><rect x="828" y="144" width="36" height="6" fill="#c9a0ff"/><rect x="828" y="144" width="6" height="36" fill="#c9a0ff"/><rect x="828" y="174" width="36" height="6" fill="#5f2e9e"/><rect x="858" y="144" width="6" height="36" fill="#5f2e9e"/><rect x="864" y="144" width="36" height="36" fill="#9d5cf0"/><rect x="864" y="144" width="36" height="6" fill="#c9a0ff"/><rect x="864" y="144" width="6" height="36" fill="#c9a0ff"/><rect x="864" y="174" width="36" height="6" fill="#5f2e9e"/><rect x="894" y="144" width="6" height="36" fill="#5f2e9e"/><rect x="900" y="144" width="36" height="36" fill="#9d5cf0"/><rect x="900" y="144" width="36" height="6" fill="#c9a0ff"/><rect x="900" y="144" width="6" height="36" fill="#c9a0ff"/><rect x="900" y="174" width="36" height="6" fill="#5f2e9e"/><rect x="930" y="144" width="6" height="36" fill="#5f2e9e"/><rect x="864" y="180" width="36" height="36" fill="#9d5cf0"/><rect x="864" y="180" width="36" height="6" fill="#c9a0ff"/><rect x="864" y="180" width="6" height="36" fill="#c9a0ff"/><rect x="864" y="210" width="36" height="6" fill="#5f2e9e"/><rect x="894" y="180" width="6" height="36" fill="#5f2e9e"/><rect x="144" y="72" width="36" height="36" fill="#3f7bf6"/><rect x="144" y="72" width="36" height="6" fill="#92b4ff"/><rect x="144" y="72" width="6" height="36" fill="#92b4ff"/><rect x="144" y="102" width="36" height="6" fill="#1f47a8"/><rect x="174" y="72" width="6" height="36" fill="#1f47a8"/><rect x="144" y="108" width="36" height="36" fill="#3f7bf6"/><rect x="144" y="108" width="36" height="6" fill="#92b4ff"/><rect x="144" y="108" width="6" height="36" fill="#92b4ff"/><rect x="144" y="138" width="36" height="6" fill="#1f47a8"/><rect x="174" y="108" width="6" height="36" fill="#1f47a8"/><rect x="180" y="108" width="36" height="36" fill="#3f7bf6"/><rect x="180" y="108" width="36" height="6" fill="#92b4ff"/><rect x="180" y="108" width="6" height="36" fill="#92b4ff"/><rect x="180" y="138" width="36" height="6" fill="#1f47a8"/><rect x="210" y="108" width="6" height="36" fill="#1f47a8"/><rect x="216" y="108" width="36" height="36" fill="#3f7bf6"/><rect x="216" y="108" width="36" height="6" fill="#92b4ff"/><rect x="216" y="108" width="6" height="36" fill="#92b4ff"/><rect x="216" y="138" width="36" height="6" fill="#1f47a8"/><rect x="246" y="108" width="6" height="36" fill="#1f47a8"/><rect x="1044" y="216" width="36" height="36" fill="#2fd4e6"/><rect x="1044" y="216" width="36" height="6" fill="#8ff0fa"/><rect x="1044" y="216" width="6" height="36" fill="#8ff0fa"/><rect x="1044" y="246" width="36" height="6" fill="#17808f"/><rect x="1074" y="216" width="6" height="36" fill="#17808f"/><rect x="1044" y="252" width="36" height="36" fill="#2fd4e6"/><rect x="1044" y="252" width="36" height="6" fill="#8ff0fa"/><rect x="1044" y="252" width="6" height="36" fill="#8ff0fa"/><rect x="1044" y="282" width="36" height="6" fill="#17808f"/><rect x="1074" y="252" width="6" height="36" fill="#17808f"/><rect x="1044" y="288" width="36" height="36" fill="#2fd4e6"/><rect x="1044" y="288" width="36" height="6" fill="#8ff0fa"/><rect x="1044" y="288" width="6" height="36" fill="#8ff0fa"/><rect x="1044" y="318" width="36" height="6" fill="#17808f"/><rect x="1074" y="288" width="6" height="36" fill="#17808f"/><rect x="1044" y="324" width="36" height="36" fill="#2fd4e6"/><rect x="1044" y="324" width="36" height="6" fill="#8ff0fa"/><rect x="1044" y="324" width="6" height="36" fill="#8ff0fa"/><rect x="1044" y="354" width="36" height="6" fill="#17808f"/><rect x="1074" y="324" width="6" height="36" fill="#17808f"/><g transform="translate(286,140) scale(0.22516) translate(-45,-422)"><path fill="#f43f5e" d="M1833.95,1020.62l-0,-15.677c-0,-321.781 -260.856,-582.637 -582.637,-582.637l-0.002,-0c-207.296,-0 -388.831,108.582 -492.103,271.648c-94.522,-93.944 -240.701,-124.828 -368.992,-66.044l-0.002,0c-161.476,73.981 -234.075,262.107 -166.715,424.855c-106.298,60.658 -178.106,174.821 -178.106,305.971c0,194.561 157.725,352.287 352.288,352.287l1337.97,0c194.567,0 352.292,-157.726 352.292,-352.287c-0,-160.412 -107.312,-295.531 -253.99,-338.116Z"/><g fill="#ffffff"><path d="M789.036,940.735l-0,-105.98l-46.163,0c-27.959,0 -53.317,3.901 -76.073,12.355c-23.407,8.451 -43.563,19.505 -60.468,33.808c-16.904,14.954 -29.909,31.86 -39.011,52.015c-9.753,20.157 -14.305,42.913 -14.305,66.971l-0,211.311l120.285,-0l-0,-204.16c-0,-19.506 6.502,-35.759 19.506,-48.114c13.005,-12.354 29.909,-18.206 50.066,-18.206l46.163,0Z"/><path d="M1066.67,940.735l-0,-105.98l-46.163,0c-27.959,0 -53.317,3.901 -76.073,12.355c-23.407,8.451 -43.563,19.505 -60.468,33.808c-16.904,14.954 -29.909,31.86 -39.011,52.015c-9.753,20.157 -14.305,42.913 -14.305,66.971l-0,211.311l120.287,-0l-0,-204.16c-0,-19.506 6.5,-35.759 19.505,-48.114c13.004,-12.354 29.908,-18.206 50.065,-18.206l46.163,0Z"/></g></g><g opacity="0.10"><rect x="0" y="0" width="1152" height="4" fill="#000000"/><rect x="0" y="12" width="1152" height="4" fill="#000000"/><rect x="0" y="24" width="1152" height="4" fill="#000000"/><rect x="0" y="36" width="1152" height="4" fill="#000000"/><rect x="0" y="48" width="1152" height="4" fill="#000000"/><rect x="0" y="60" width="1152" height="4" fill="#000000"/><rect x="0" y="72" width="1152" height="4" fill="#000000"/><rect x="0" y="84" width="1152" height="4" fill="#000000"/><rect x="0" y="96" width="1152" height="4" fill="#000000"/><rect x="0" y="108" width="1152" height="4" fill="#000000"/><rect x="0" y="120" width="1152" height="4" fill="#000000"/><rect x="0" y="132" width="1152" height="4" fill="#000000"/><rect x="0" y="144" width="1152" height="4" fill="#000000"/><rect x="0" y="156" width="1152" height="4" fill="#000000"/><rect x="0" y="168" width="1152" height="4" fill="#000000"/><rect x="0" y="180" width="1152" height="4" fill="#000000"/><rect x="0" y="192" width="1152" height="4" fill="#000000"/><rect x="0" y="204" width="1152" height="4" fill="#000000"/><rect x="0" y="216" width="1152" height="4" fill="#000000"/><rect x="0" y="228" width="1152" height="4" fill="#000000"/><rect x="0" y="240" width="1152" height="4" fill="#000000"/><rect x="0" y="252" width="1152" height="4" fill="#000000"/><rect x="0" y="264" width="1152" height="4" fill="#000000"/><rect x="0" y="276" width="1152" height="4" fill="#000000"/><rect x="0" y="288" width="1152" height="4" fill="#000000"/><rect x="0" y="300" width="1152" height="4" fill="#000000"/><rect x="0" y="312" width="1152" height="4" fill="#000000"/><rect x="0" y="324" width="1152" height="4" fill="#000000"/><rect x="0" y="336" width="1152" height="4" fill="#000000"/><rect x="0" y="348" width="1152" height="4" fill="#000000"/><rect x="0" y="360" width="1152" height="4" fill="#000000"/><rect x="0" y="372" width="1152" height="4" fill="#000000"/><rect x="0" y="384" width="1152" height="4" fill="#000000"/><rect x="0" y="396" width="1152" height="4" fill="#000000"/><rect x="0" y="408" width="1152" height="4" fill="#000000"/><rect x="0" y="420" width="1152" height="4" fill="#000000"/><rect x="0" y="432" width="1152" height="4" fill="#000000"/><rect x="0" y="444" width="1152" height="4" fill="#000000"/><rect x="0" y="456" width="1152" height="4" fill="#000000"/><rect x="0" y="468" width="1152" height="4" fill="#000000"/><rect x="0" y="480" width="1152" height="4" fill="#000000"/><rect x="0" y="492" width="1152" height="4" fill="#000000"/><rect x="0" y="504" width="1152" height="4" fill="#000000"/><rect x="0" y="516" width="1152" height="4" fill="#000000"/><rect x="0" y="528" width="1152" height="4" fill="#000000"/><rect x="0" y="540" width="1152" height="4" fill="#000000"/><rect x="0" y="552" width="1152" height="4" fill="#000000"/><rect x="0" y="564" width="1152" height="4" fill="#000000"/><rect x="0" y="576" width="1152" height="4" fill="#000000"/><rect x="0" y="588" width="1152" height="4" fill="#000000"/><rect x="0" y="600" width="1152" height="4" fill="#000000"/><rect x="0" y="612" width="1152" height="4" fill="#000000"/><rect x="0" y="624" width="1152" height="4" fill="#000000"/><rect x="0" y="636" width="1152" height="4" fill="#000000"/><rect x="0" y="648" width="1152" height="4" fill="#000000"/><rect x="0" y="660" width="1152" height="4" fill="#000000"/><rect x="0" y="672" width="1152" height="4" fill="#000000"/><rect x="0" y="684" width="1152" height="4" fill="#000000"/><rect x="0" y="696" width="1152" height="4" fill="#000000"/><rect x="0" y="708" width="1152" height="4" fill="#000000"/><rect x="0" y="720" width="1152" height="4" fill="#000000"/><rect x="0" y="732" width="1152" height="4" fill="#000000"/></g></svg>
